<?xml version="1.0" standalone="no"?>
<!DOCTYPE svg PUBLIC "-//W3C//DTD SVG 1.1//EN" "http://www.w3.org/Graphics/SVG/1.1/DTD/svg11.dtd" >
<svg xmlns="http://www.w3.org/2000/svg">
<metadata>
Created by FontPrep 20130207 at Thu Jun  2 17:13:36 2016
 By Denis Drachev
Copyright 1987-1992 as an unpublished work by Bitstream Inc., Cambridge, MA. All rights reserved. Confidential and proprietary to Bitstream Inc. Copyright (c) ParaType, Inc., 2005. All rights reserved.
</metadata>
<defs>
<font id="4939673e16c38094b4bbcaf912068c19" horiz-adv-x='1024' >
  <font-face 
    font-family="Caslon540BT-Regular"
    font-weight="400"
    font-stretch="normal"
    units-per-em="2048"
    panose-1="2 2 5 2 5 5 6 2 3 3"
    ascent="1638"
    descent="-410"
    x-height="895"
    cap-height="1421"
    bbox="-846 -555 2251 1976"
    underline-thickness="102"
    underline-position="-102"
    unicode-range="U+0020-FB02"
  />
<missing-glyph horiz-adv-x="477" 
 />
    <glyph glyph-name="afii10017.var.accented" unicode="&#x410;`" horiz-adv-x="1236" 
d="M826 1849q36 0 56 -21q19 -22 19 -48q0 -47 -61 -84l-330 -205h-68l289 299q59 59 95 59zM315 592h439l-228 582zM-59 0v49l69 12q27 4 44 25q18 22 26 34t17 36q9 23 20 45t20 61l352 938q12 37 -6 72l-18 31q100 74 153 157h19l500 -1300q25 -63 57 -88t94 -23v-49
h-536v49l63 8q63 10 82 26q18 15 18 44t-14 63l-125 342h-481l-105 -284q-29 -80 -28 -113q0 -66 117 -82l43 -6v-47h-381z" />
    <glyph glyph-name="afii10022.var.accented" unicode="&#x415;`" horiz-adv-x="1323" 
d="M869 1849q36 0 56 -21q19 -22 19 -48q0 -47 -61 -84l-330 -205h-68l289 299q59 59 95 59zM113 0v47q96 -6 129 29q20 20 20 106v1051q0 87 -20 113t-97 26h-32v49h1028l102 -325l-43 -17q-104 180 -188 235t-202 59q-34 1 -130 1h-209v-624h107q178 0 239 45q43 31 69 93
t29 122h35v-570h-35q-4 55 -29 120q-26 65 -69 95q-61 45 -239 45h-107v-499q0 -94 32 -124t136 -30h125q168 0 258 53q55 33 123 117t110 166l39 -12l-75 -371h-1106z" />
    <glyph glyph-name="afii10026.var.accented" unicode="&#x418;`" horiz-adv-x="1677" 
d="M1046 1849q36 1 55 -21t19 -48q0 -47 -61 -84l-330 -205h-67l288 299q60 59 96 59zM1565 1421v-49h-19q-78 0 -104 -19t-27 -77v-1129q0 -53 26 -75t109 -23h17v-49h-529v47h39q47 0 61 1t37 12q22 11 26 37q5 26 5 75v991l-733 -989q-7 -68 16 -102q8 -12 34 -18t36 -7
h82v-47h-528v49h16q84 0 110 23t25 75v1129q0 57 -26 77q-27 19 -105 19h-18v49h526v-47h-41q-45 0 -60 -1q-16 -1 -36 -12t-26 -37t-5 -73v-966l733 983q0 42 -7 64q-11 37 -64 41q-12 1 -56 1h-41v47h527z" />
    <glyph glyph-name="afii10032.var.accented" unicode="&#x41e;`" horiz-adv-x="1564" 
d="M990 1849q36 0 56 -21q19 -22 19 -48q0 -47 -61 -84l-330 -205h-68l289 299q59 59 95 59zM305 706q0 -330 141 -506t338 -175q196 0 338 177t142 510t-140 511t-337 178q-198 0 -340 -182q-142 -183 -142 -513zM780 1446q304 0 502 -206q197 -206 197 -531
q0 -326 -194 -530t-502 -204q-307 0 -501 213q-194 214 -194 530t194 522t498 206z" />
    <glyph glyph-name="afii10037.var.accented" unicode="&#x423;`" horiz-adv-x="1462" 
d="M939 1849q36 1 55 -21t20 -48q0 -47 -62 -84l-329 -205h-68l289 299q59 59 95 59zM1462 1421v-49q-74 8 -133 -26t-104 -136l-303 -688q-154 -348 -238 -442q-98 -104 -229 -105q-88 0 -138 43q-49 42 -49 92t29 85t74 34q70 0 125 -82q42 -59 78 -59t76 50t61 91l41 86
l-547 959q-57 104 -148 98v49h518v-49q-93 0 -117 -18t-24 -42t19 -55l405 -718l281 641q27 57 27 108t-48 72q-29 12 -110 12v49h454z" />
    <glyph glyph-name="afii10045.var.accented" unicode="&#x42b;`" horiz-adv-x="1890" 
d="M1152 1849q36 1 55 -21t20 -48q0 -47 -62 -84l-329 -205h-68l289 299q59 59 95 59zM578 727q-68 0 -105 -4v-537q0 -104 65 -127q34 -12 85 -12h57q141 0 227 117q57 78 58 211q0 352 -387 352zM1778 1421v-47h-41q-45 0 -61 -1t-36 -12t-25 -37t-5 -73v-1079
q0 -82 18 -104t115 -21h35v-47h-547v47h29q102 0 122 30q17 23 17 63v1130q0 33 -2 47q-6 44 -52 52q-28 5 -75 5h-39v47h547zM614 780q572 0 574 -387q0 -158 -109 -262q-61 -59 -165 -95t-212 -36h-587v49h12q85 0 111 22t26 128v1077q0 57 -26 77q-27 19 -105 19h-18v49
h526v-47l-80 -2q-88 -2 -88 -112v-486q82 6 141 6z" />
    <glyph glyph-name="afii10047.var.accented" unicode="&#x42d;`" horiz-adv-x="1462" 
d="M939 1849q36 1 55 -21t20 -48q0 -47 -62 -84l-329 -205h-68l289 299q59 59 95 59zM162 938v446h37q14 -72 61 -71q24 1 64 21l62 31t32 17q133 63 284 64q309 0 502 -236q172 -211 172 -510q0 -170 -66 -322t-188 -251q-186 -152 -479 -152t-448 138q-113 100 -113 221
q0 49 28 81t78 31q84 0 111 -75q7 -23 23 -135t104 -158q88 -45 223 -45q297 0 434 282q86 176 80 404h-241q-178 0 -230 -38q-52 -39 -79 -103q-26 -64 -29 -119h-35v569h35q4 -60 30 -122t68 -93q61 -45 240 -45h241q-4 180 -73 324q-141 307 -426 307q-113 1 -210 -57
q-203 -120 -249 -404h-43z" />
    <glyph glyph-name="afii10048.var.accented" unicode="&#x42e;`" horiz-adv-x="1978" 
d="M1197 1849q36 1 55 -21t20 -48q0 -47 -62 -84l-329 -205h-68l289 299q59 59 95 59zM1763 712q0 335 -137 508t-331 173q-193 1 -321 -191t-128 -510t139 -488t321 -171q182 0 319 172q138 172 138 507zM379 750h252q6 218 109 380q102 162 250 239t310 77q289 0 484 -207
t194 -532q0 -183 -62 -329t-164 -230q-207 -173 -456 -173t-455 196t-212 521h-250v-520q0 -82 18 -104t115 -21h35v-47h-547v47h29q103 0 123 30q16 23 16 63v1130q0 55 -13 74q-13 20 -41 25t-75 5h-39v47h547v-47h-41q-44 0 -60 -1q-51 -3 -62 -49q-5 -26 -5 -73v-501z
" />
    <glyph glyph-name="afii10049.var.accented" unicode="&#x42f;`" horiz-adv-x="1443" 
d="M929 1849q36 1 55 -21t20 -48q0 -47 -62 -84l-330 -205h-67l289 299q59 59 95 59zM973 709v567q0 27 -5 44q-5 16 -32 34t-74 18h-71q-119 0 -197 -72q-98 -88 -98 -262t104 -258q88 -72 242 -71h131zM287 1031q1 167 115 279t309 111h620v-49h-18q-78 0 -105 -19
t-26 -77v-1129q0 -53 26 -75t109 -23h16v-49h-528v47h39q47 0 61 1t36 12t27 37t5 75v485h-96q-176 0 -277 -178q-29 -51 -68 -147q-38 -96 -74 -173t-86 -129t-136 -53q-170 0 -201 240l51 14q0 -61 27 -98t55 -37q55 0 113 156q2 6 12 33t19 55t19 44l19 38t20 34
q112 172 308 201v9q-158 4 -274 101t-117 264z" />
    <glyph glyph-name="afii10065.var.accented" unicode="&#x430;`" horiz-adv-x="878" 
d="M262 1030l289 299q98 98 150 38q19 -22 20 -48q0 -47 -62 -84l-329 -205h-68zM219 238q0 -68 46 -108t119 -40t167 82v309q-164 -59 -254 -123q-78 -52 -78 -120zM690 -18q-62 0 -103 36q-40 36 -42 103q-137 -143 -275 -144q-86 1 -139 51t-53 132q0 141 170 237
q113 66 309 135v205q0 123 -115 123q-68 0 -123 -28t-63 -82q0 -76 -12 -111q-20 -61 -88 -61q-78 0 -78 75q0 66 94 142q160 127 336 127q94 0 150 -49t57 -224v-520q0 -55 41 -55q20 0 36 20q15 20 17 49h39q-4 -77 -50 -119t-108 -42z" />
    <glyph glyph-name="afii10070.var.accented" unicode="&#x435;`" horiz-adv-x="995" 
d="M780 1319q0 -47 -61 -84l-330 -205h-67l288 299q60 59 96 59t55 -21q19 -22 19 -48zM618 662q70 0 70 61q0 67 -54 109t-139 42t-153 -57t-92 -155h368zM864 608h-622q-14 -100 -15 -151q-1 -150 99 -251t249 -102q105 0 189 58t125 155l39 -12q-45 -154 -162 -243
q-118 -89 -276 -89t-287 120t-129 335t124 353t328 139q152 0 264 -88t111 -183q0 -25 -7 -33t-30 -8z" />
    <glyph glyph-name="afii10074.var.accented" unicode="&#x438;`" horiz-adv-x="1146" 
d="M856 1319q0 -47 -61 -84l-330 -205h-68l289 299q97 97 151 38q19 -22 19 -48zM791 786q0 72 -101 72h-10v37h377v-37h-13q-57 0 -78 -19t-22 -63v-610q0 -86 20 -107t93 -20v-39h-377v39q70 -6 94 24q16 16 17 95v524l-435 -543v-26q0 -29 22 -55t89 -19v-39h-377v39
q74 0 93 20t20 107v610q0 42 -22 62t-79 20h-12v37h377v-37h-10q-57 0 -79 -19t-22 -63v-559l435 545v24z" />
    <glyph glyph-name="afii10080.var.accented" unicode="&#x43e;`" horiz-adv-x="983" 
d="M774 1319q0 -47 -61 -84l-330 -205h-68l289 299q97 97 151 38q19 -22 19 -48zM496 870q-104 0 -180 -98t-74 -324q0 -226 74 -325q75 -98 168 -98t168 81q40 44 65 132t24 211q0 213 -70 317q-71 104 -175 104zM72 450q0 212 115 341t305 129t306 -129t116 -339
t-116 -343q-114 -133 -304 -133t-307 130q-115 132 -115 344z" />
    <glyph glyph-name="afii10085.var.accented" unicode="&#x443;`" horiz-adv-x="933" 
d="M291 1030l289 299q98 98 150 38q19 -22 20 -48q0 -47 -62 -84l-330 -205h-67zM-25 858v37h437v-37l-50 -4q-94 -6 -96 -53q0 -12 17 -45l286 -539l172 514q11 27 11 61q1 61 -73 66q-28 2 -75 0v37h346v-37q-81 0 -106 -38t-43 -87l-336 -950q-11 -45 -20 -62
q-9 -15 -17 -39t-13 -31t-16 -26t-30 -36t-45 -24t-57 -7t-53 28t-22 64q0 37 27 57t57 21l70 -11q23 1 39 13t19 20t12 27l86 246l-396 725q-18 35 -30 53q-12 17 -39 37t-62 20z" />
    <glyph glyph-name="afii10093.var.accented" unicode="&#x44b;`" horiz-adv-x="1359" 
d="M504 1030l289 299q98 98 150 38q19 -22 20 -48q0 -47 -62 -84l-330 -205h-67zM356 455v-316q0 -92 107 -92q135 0 190 84q33 51 33 117q0 123 -82 174q-51 33 -137 33h-111zM90 0v39q74 0 93 20t20 107v610q0 42 -22 62t-79 20h-12v37h379v-37h-12q-57 0 -79 -19t-22 -63
v-270h164q131 0 205 -37q133 -61 133 -215q0 -125 -98 -197q-78 -57 -199 -57h-471zM891 895h379v-37h-13q-57 0 -78 -19t-22 -63v-610q0 -86 20 -107t93 -20v-39h-379v39q74 0 93 20t20 107v610q0 42 -22 62t-79 20h-12v37z" />
    <glyph glyph-name="afii10095.var.accented" unicode="&#x44d;`" horiz-adv-x="954" 
d="M301 1030l289 299q98 98 150 38q19 -22 20 -48q0 -47 -62 -84l-329 -205h-68zM285 496h428q-4 131 -45 221q-76 158 -238 157q-202 0 -260 -217l-12 -45h-43v232q168 76 344 76t286 -97q139 -127 139 -346t-104 -350q-121 -150 -356 -150t-328 119q-56 75 -12 129
q18 23 59 23t61 -37q7 -14 17 -44q16 -47 43 -88q37 -56 137 -56q186 0 269 176q49 111 43 247h-428v50z" />
    <glyph glyph-name="afii10096.var.accented" unicode="&#x44e;`" horiz-adv-x="1415" 
d="M989 1319q0 -47 -61 -84l-330 -205h-68l289 299q59 59 95 59t56 -21q19 -22 19 -48zM932 870q-90 0 -166 -96t-76 -325q0 -325 166 -406q37 -18 76 -18q88 0 165 97t77 327q0 322 -167 403q-38 18 -75 18zM469 895v-37h-12q-57 0 -79 -19t-22 -63v-278h166q8 188 126 305
t292 117t290 -130t116 -348t-124 -342t-290 -125q-201 1 -306 143t-106 333h-164v-285q0 -86 17 -103q20 -25 96 -24v-39h-379v39q74 0 93 20t20 107v610q0 42 -22 62t-79 20h-12v37h379z" />
    <glyph glyph-name="afii10097.var.accented" unicode="&#x44f;`" 
d="M336 1030l289 299q98 98 150 38q19 -22 20 -48q0 -47 -62 -84l-330 -205h-67zM668 438v307q0 105 -106 105t-159 -53q-53 -57 -53 -157t66 -150q66 -52 170 -52h82zM934 895v-37h-12q-56 0 -78 -19t-23 -67v-606q0 -86 20 -107t93 -20v-39h-377v39q70 -6 94 24
q16 16 17 95v235h-72q-70 0 -108 -31q-38 -32 -86 -152t-96 -170q-46 -50 -125 -50t-126 61q-27 39 -39 96l37 9q2 -27 24 -59q23 -31 55 -31t56 43q10 18 28 61q17 43 26 59q76 160 215 174v5q-121 6 -200 70t-79 174t92 176t279 67h385z" />
    <glyph glyph-name="fi" unicode="fi" horiz-adv-x="1175" 
d="M383 780v-622q0 -72 19 -95t100 -22h41v-41h-445v41q92 2 112 27q19 25 19 122v590h-147l22 84h125v105q0 223 119 345t316 122q120 0 192 -50t72 -112q0 -35 -25 -60q-41 -41 -105 -13q-18 8 -25 21t-17 29t-13 21q-59 98 -174 98t-151 -81t-37 -285v-140h317
q156 0 258 37h23v-743q0 -74 18 -97t95 -22v-39h-387v39q76 2 94 31t18 120v476q-1 70 -25 92t-110 22h-299z" />
    <glyph glyph-name="fl" unicode="fl" horiz-adv-x="1175" 
d="M543 0h-445v41q94 2 113 27q18 25 18 122v590h-147l22 84h125v99q0 227 125 350t342 123q135 0 289 -54v-1224q0 -70 15 -94t71 -23h25v-41h-377v41h10q72 0 87 28t15 121v590h-448v-622q-1 -72 21 -95t98 -22h41v-41zM383 864h446v320q0 4 -15 22t-35 58q-21 39 -35 56
q-14 16 -49 32q-36 16 -89 16q-127 0 -175 -87t-48 -284v-133z" />
    <glyph glyph-name=".notdef" horiz-adv-x="477" 
 />
    <glyph glyph-name=".null" horiz-adv-x="0" 
 />
    <glyph glyph-name="nonmarkingreturn" horiz-adv-x="681" 
 />
    <glyph glyph-name="space" unicode=" " horiz-adv-x="516" 
 />
    <glyph glyph-name="space" unicode="&#xa0;" horiz-adv-x="516" 
 />
    <glyph glyph-name="exclam" unicode="!" horiz-adv-x="598" 
d="M201 1290q0 76 26 116q27 40 70 40t73 -39t29 -100q0 -18 -4 -76l-78 -891h-36l-76 891q-4 41 -4 59zM176 98q0 51 35 86t87 35t87 -35t35 -85t-37 -87t-85 -37t-85 36t-37 87z" />
    <glyph glyph-name="quotedbl" unicode="&#x22;" horiz-adv-x="677" 
d="M418 1360q0 102 85 102t85 -100q0 -25 -2 -41l-68 -457h-31l-65 457q-4 29 -4 39zM90 1362q0 100 85 100t85 -100q0 -8 -4 -41l-66 -457h-32l-64 457q-4 29 -4 41z" />
    <glyph glyph-name="numbersign" unicode="#" horiz-adv-x="1574" 
d="M700 868l-100 -286h289l102 286h-291zM778 1456h133l-168 -473h287l168 473h131l-166 -473h307l-40 -115h-310l-100 -286h332l-43 -115h-330l-166 -469h-133l166 469h-287l-166 -469h-131l166 469h-324l43 115h322l100 286h-348l43 115h348z" />
    <glyph glyph-name="dollar" unicode="$" horiz-adv-x="1034" 
d="M512 1325l-29 2q-104 1 -172 -67t-67 -173q0 -147 155 -219l31 -14zM811 304q0 110 -42 168t-138 103l-39 19l-96 -551l30 -2q129 0 207 77t78 186zM473 836l105 -45l84 481q-35 29 -101 45zM442 664l-98 -566q49 -33 105 -45l98 561zM901 1198q0 -57 -65 -57
q-28 0 -48 12t-47 41t-39 41l-81 -467l36 -14q135 -48 211 -138t76 -206q0 -180 -125 -301t-317 -121h-17l-28 -166h-49l28 168q-51 6 -108 18l-33 -186h-49l37 203q-203 70 -203 165q0 28 17 46t44 18t47 -15t54 -51t59 -57l96 551q-251 112 -252 330q-1 162 101 263
t274 105l35 179h45l-29 -179q86 -12 107 -16l35 195h49l-37 -211q176 -61 176 -150z" />
    <glyph glyph-name="percent" unicode="%" horiz-adv-x="1497" 
d="M563 1325q-96 0 -180 -70q-84 -69 -145 -199q-62 -130 -62 -210t36 -120t91 -40q113 0 229 153t123 353q-55 59 -67 133h-25zM1288 672q-104 0 -213 -158q-150 -219 -149 -358q0 -56 36 -94t89 -37q123 0 249 192q109 164 109 303q0 72 -33 112t-88 40zM795 230
q0 106 47 205t131 175q135 125 287 125q94 0 149 -58t55 -163q0 -158 -114 -332q-137 -205 -322 -205q-98 0 -166 74q-67 73 -67 179zM283 635q-104 0 -171 76t-67 194q0 166 140 325t313 159q86 0 143 -43t68 -117q55 -35 120 -35q203 0 404 225h84l-1047 -1482h-104
l909 1282q-104 -88 -246 -89q-59 0 -122 29q-25 -229 -149 -377t-275 -147z" />
    <glyph glyph-name="ampersand" unicode="&#x26;" horiz-adv-x="1687" 
d="M647 1376q-74 0 -130 -50t-56 -118q0 -94 201 -241q88 57 128 107t40 118t-55 126q-54 58 -128 58zM1390 -6q-62 0 -101 13q-65 21 -142 119q-23 28 -75 100t-81 112q-151 -193 -269 -279t-270 -86t-262 122t-110 287q0 166 91 276t292 221q-137 121 -137 235t132 224
q132 112 250 112t188 -61q69 -61 69 -143q-1 -82 -63 -148q-62 -68 -206 -164q258 -221 383 -397l209 297q29 41 29 69q0 68 -141 68v47h442v-51h-4q-104 0 -190 -78t-232 -279l-82 -112q188 -278 248 -342t120 -64t105 68l39 -25q-34 -63 -102 -102t-130 -39zM260 502
q0 -148 85 -242t220 -94q210 0 400 215q-156 221 -449 465q-256 -111 -256 -344z" />
    <glyph glyph-name="quotesingle" unicode="'" horiz-adv-x="348" 
d="M90 1360q0 102 85 102t85 -100q0 -8 -4 -41l-66 -457h-32l-66 457q-2 14 -2 39z" />
    <glyph glyph-name="parenleft" unicode="(" horiz-adv-x="829" 
d="M231 552q-1 224 109 458t319 436l39 -25q-290 -373 -290 -869t290 -867l-39 -23q-209 203 -318 435q-110 231 -110 455z" />
    <glyph glyph-name="parenright" unicode=")" horiz-adv-x="829" 
d="M598 554q0 -224 -110 -456t-318 -436l-37 23q289 369 289 866t-289 870l37 25q208 -203 318 -436q110 -232 110 -456z" />
    <glyph glyph-name="asterisk" unicode="*" horiz-adv-x="1052" 
d="M344 1395q0 53 49 53q43 0 72 -80t61 -262l6 -4q37 186 64 265t63 79q21 0 37 -15t17 -40q0 -63 -164 -297l4 -2q238 164 301 163q47 0 47 -51q0 -42 -79 -70t-265 -61v-8q186 -37 265 -64t79 -63q0 -20 -15 -36t-40 -17q-63 0 -297 164l-6 -5q164 -242 164 -294t-52 -52
q-43 0 -70 79q-28 79 -61 263l-6 -2q-38 -186 -64 -264t-63 -78q-21 0 -37 14t-16 40q0 68 164 299l-4 8q-244 -164 -296 -164t-52 51q0 43 78 71t264 60l2 4q-186 37 -264 64t-78 63q0 20 14 36t39 18q66 0 299 -164l4 4q-164 242 -164 295z" />
    <glyph glyph-name="plus" unicode="+" horiz-adv-x="1705" 
d="M795 1221h118v-551h539v-117h-539v-553h-118v553h-541v117h541v551z" />
    <glyph glyph-name="comma" unicode="," horiz-adv-x="516" 
d="M127 129q0 45 31 73q30 28 90 28t108 -60q48 -59 47 -152q1 -177 -204 -327l-33 35q152 135 151 217q0 28 -17 40q-17 11 -39 18t-32 11q-102 37 -102 117z" />
    <glyph glyph-name="hyphen" unicode="-" horiz-adv-x="673" 
d="M84 379v137h504v-137h-504z" />
    <glyph glyph-name="hyphen" unicode="&#x2010;" horiz-adv-x="673" 
d="M84 379v137h504v-137h-504z" />
    <glyph glyph-name="hyphen" unicode="&#xad;" horiz-adv-x="673" 
d="M84 379v137h504v-137h-504z" />
    <glyph glyph-name="period" unicode="." horiz-adv-x="516" 
d="M137 110q0 50 34 85t86 35t87 -36q35 -34 35 -84t-36 -86t-86 -36t-85 36t-35 86z" />
    <glyph glyph-name="slash" unicode="/" horiz-adv-x="567" 
d="M82 -190h-117l502 1636h115z" />
    <glyph glyph-name="zero" unicode="0" horiz-adv-x="1034" 
d="M764 682q0 664 -247 664t-249 -664q0 -328 64 -496t184 -168q248 0 248 664zM80 682q0 324 124 516t313 193q189 -1 313 -195t124 -516t-126 -512q-126 -192 -313 -192t-311 190q-124 192 -124 516z" />
    <glyph glyph-name="one" unicode="1" horiz-adv-x="1034" 
d="M244 0v43q135 2 165 26t29 111v856q0 66 -15 83t-87 18h-105v47q190 45 344 207h39v-1207q0 -90 24 -109t150 -32v-43h-544z" />
    <glyph glyph-name="two" unicode="2" horiz-adv-x="1034" 
d="M109 0v27q0 106 60 205q61 98 125 180t89 116l168 226q150 203 149 321q0 85 -54 141t-146 56t-178 -74t-181 -233l-35 14q193 414 490 414q135 0 217 -78t82 -199q0 -70 -37 -142t-73 -115q-36 -42 -130 -140l-243 -260q-152 -162 -209 -297h514q63 0 98 28t66 105h41
l-140 -404h-37v21q0 61 -24 75q-25 13 -117 13h-495z" />
    <glyph glyph-name="three" unicode="3" horiz-adv-x="1034" 
d="M389 668h-14q147 160 209 248t61 172q0 82 -49 131t-131 49q-117 0 -272 -152l-31 25q113 131 205 192t192 61q99 0 163 -58q64 -60 64 -156q0 -180 -229 -367q164 -13 257 -111t93 -270t-135 -312q-135 -142 -332 -143q-154 -1 -254 63t-100 142q0 31 24 54q24 22 60 22
t58 -26t51 -85q57 -125 179 -125t204 104q82 103 81 257q0 285 -354 285z" />
    <glyph glyph-name="four" unicode="4" horiz-adv-x="1034" 
d="M623 543v674l-469 -674h469zM618 0v410h-559v90l633 907h99v-864h200v-133h-200v-410h-173z" />
    <glyph glyph-name="five" unicode="5" horiz-adv-x="1034" 
d="M707 1366q53 0 77 12t35 56h41l-88 -226h-453l-24 -288h43q272 0 416 -123t145 -336q0 -213 -130 -348t-341 -136q-138 -1 -238 57t-100 124q0 31 24 51t56 20q53 -1 92 -69t83 -99t122 -30q127 0 207 94t80 262t-118 266t-339 99q-43 0 -66 -2l52 616h424z" />
    <glyph glyph-name="six" unicode="6" horiz-adv-x="1034" 
d="M279 403q0 -173 66 -277q67 -103 179 -103t191 106q78 107 78 273t-78 261t-194 95t-179 -91t-63 -264zM584 827q160 -1 271 -115q112 -114 112 -298t-126 -312t-304 -129q-178 0 -307 163q-128 163 -128 423q0 309 188 537t503 299l12 -37q-209 -52 -349 -238t-149 -424
q117 131 277 131z" />
    <glyph glyph-name="seven" unicode="7" horiz-adv-x="1034" 
d="M346 1208q-72 0 -94 -12t-41 -74l-21 -63h-47l117 379h37l-4 -29q0 -29 20 -36t70 -7h549v-51l-414 -1163q-10 -27 -23 -68t-25 -79q-23 -72 -97 -73q-74 -2 -74 72q0 45 60 179q61 134 205 437t267 588h-485z" />
    <glyph glyph-name="eight" unicode="8" horiz-adv-x="1034" 
d="M780 1114q0 102 -66 170q-66 66 -178 66t-183 -66t-71 -162t72 -164q72 -67 244 -151q96 73 139 139t43 168zM944 399q0 -180 -121 -302t-301 -122q-180 -1 -297 105t-116 252q0 244 288 381q-246 123 -245 331q0 152 112 250q113 98 282 98t270 -83q102 -84 102 -197
q0 -114 -64 -184t-217 -140l92 -51q215 -117 215 -338zM530 25q122 0 199 86q76 86 76 237q1 98 -59 158t-189 127l-111 57q-201 -141 -200 -358q0 -133 81 -220t203 -87z" />
    <glyph glyph-name="nine" unicode="9" horiz-adv-x="1034" 
d="M510 608q116 0 182 94t66 270t-66 271q-66 94 -184 94t-194 -105q-76 -106 -76 -270t78 -259t194 -95zM450 539q-160 1 -274 113q-113 112 -113 298t127 314q127 129 314 129q186 0 306 -160t120 -426q0 -313 -188 -541t-504 -297l-11 37q209 52 349 238t149 424
q-115 -129 -275 -129z" />
    <glyph glyph-name="colon" unicode=":" horiz-adv-x="563" 
d="M160 781q0 50 35 85t86 35t87 -35t36 -85t-38 -86q-36 -36 -86 -36t-85 36t-35 86zM160 110q0 50 35 85t86 35t87 -36q36 -34 36 -84t-38 -86q-36 -36 -86 -36t-85 36t-35 86z" />
    <glyph glyph-name="semicolon" unicode=";" horiz-adv-x="563" 
d="M154 781q0 50 34 85q35 35 87 35t87 -35t35 -85t-36 -86t-86 -36t-86 36q-35 36 -35 86zM338 -57q0 39 -41 53q-7 2 -23 7q-126 38 -127 126q0 45 31 73q30 28 90 28t108 -60q48 -59 48 -152q0 -175 -207 -327l-31 35q152 135 152 217z" />
    <glyph glyph-name="semicolon" unicode="&#x37e;" horiz-adv-x="563" 
d="M154 781q0 50 34 85q35 35 87 35t87 -35t35 -85t-36 -86t-86 -36t-86 36q-35 36 -35 86zM338 -57q0 39 -41 53q-7 2 -23 7q-126 38 -127 126q0 45 31 73q30 28 90 28t108 -60q48 -59 48 -152q0 -175 -207 -327l-31 35q152 135 152 217z" />
    <glyph glyph-name="less" unicode="&#x3c;" horiz-adv-x="1705" 
d="M1442 1145v-127l-1000 -408l1000 -405v-129l-1178 483v103z" />
    <glyph glyph-name="equal" unicode="=" horiz-adv-x="1705" 
d="M254 477h1198v-117h-1198v117zM254 860h1198v-117h-1198v117z" />
    <glyph glyph-name="greater" unicode="&#x3e;" horiz-adv-x="1705" 
d="M264 1145l1178 -483v-103l-1178 -483v129l1000 405l-1000 408v127z" />
    <glyph glyph-name="question" unicode="?" horiz-adv-x="786" 
d="M258 381v471q201 2 284 44t83 146q1 104 -49 146q-50 43 -144 57t-109 17q-15 4 -37 9q-77 18 -77 81q0 40 30 66t80 26q121 0 241 -125t120 -291t-87 -245t-278 -85l-10 -317h-47zM158 97q0 50 35 85t86 35t86 -35t35 -84t-38 -86q-36 -37 -84 -37t-84 36t-36 86z" />
    <glyph glyph-name="at" unicode="@" horiz-adv-x="2019" 
d="M1104 1452q358 0 565 -187t207 -499q0 -158 -58 -297t-169 -242t-252 -102q-195 0 -207 211q-123 -211 -309 -211q-125 0 -201 92t-76 244q0 229 187 409q139 136 308 136t212 -195l53 180h143l-170 -610q-18 -66 -18 -111q0 -44 26 -72t68 -28q78 0 164 66
q252 186 252 546q1 276 -195 448t-491 173q-373 0 -627 -244t-254 -653q0 -336 234 -536t574 -200q339 0 624 207l30 -36q-300 -221 -666 -221t-605 184q-307 231 -307 641t335 686q265 221 623 221zM1098 965q-102 0 -184 -121t-122 -247q-42 -126 -42 -221q0 -94 41 -148
t108 -54q131 0 242 178q125 203 125 400q0 94 -47 154t-121 59z" />
    <glyph glyph-name="A" unicode="A" horiz-adv-x="1236" 
d="M315 592h439l-228 582zM-59 0v49l69 12q27 4 44 25q18 22 26 34t17 36q9 23 20 45t20 61l352 938q12 37 -6 72l-18 31q100 74 153 157h19l500 -1300q25 -63 57 -88t94 -23v-49h-536v49l63 8q63 10 82 26q18 15 18 44t-14 63l-125 342h-481l-105 -284q-29 -80 -28 -113
q0 -66 117 -82l43 -6v-47h-381z" />
    <glyph glyph-name="B" unicode="B" horiz-adv-x="1263" 
d="M90 49h12q86 0 112 22t26 128v1034q0 96 -25 118t-111 21h-14v49l412 6q584 6 583 -362q1 -117 -67 -193t-168 -110q146 -16 242 -114t96 -232q0 -424 -643 -424l-217 4h-52l-186 4v49zM449 752h45q184 0 283 67q44 29 79 90t35 147t-33 152t-83 98q-114 73 -226 71
q-55 -1 -100 -1v-624zM449 707v-531q1 -70 33 -102t122 -31q90 0 158 24q68 25 104 59q76 72 91 172q26 154 -27 263q-53 108 -213 135q-59 10 -142 11h-126z" />
    <glyph glyph-name="C" unicode="C" horiz-adv-x="1458" 
d="M1339 500v-467h-41l-36 76q-8 14 -18 14t-93 -45q-178 -102 -371 -103q-240 0 -432 152q-260 207 -260 586q0 268 150 463q88 118 230 194t320 76q106 0 156 -14t86 -27q36 -11 52 -21t46 -24t62 -31q34 -17 53 -16q47 0 62 71h36v-475h-43q-14 154 -90 273
q-135 217 -379 217q-87 0 -175 -38q-171 -73 -267 -271q-80 -162 -80 -382t73 -374q72 -154 190 -230t243 -75q246 0 383 202q77 117 104 269h39z" />
    <glyph glyph-name="D" unicode="D" horiz-adv-x="1615" 
d="M113 0v49q120 -11 142 67q7 28 7 39v1092q0 97 -66 118q-32 9 -83 7v49h192q70 0 217 4l246 7q256 0 434 -99q334 -190 334 -614q0 -209 -80 -363t-205 -237q-197 -129 -585 -129l-332 10h-221zM471 1202v-975q0 -134 54 -164t165 -30t202 19t173 79q248 178 248 578
q0 215 -72 358t-164 215q-137 106 -409 107q-143 0 -173 -53q-17 -30 -21 -54t-3 -80z" />
    <glyph glyph-name="E" unicode="E" horiz-adv-x="1323" 
d="M113 0v47q96 -6 129 29q20 20 20 106v1051q0 87 -20 113t-97 26h-32v49h1028l102 -325l-43 -17q-104 180 -188 235t-202 59q-34 1 -130 1h-209v-624h107q178 0 239 45q43 31 69 93t29 122h35v-570h-35q-4 55 -29 120q-26 65 -69 95q-61 45 -239 45h-107v-499
q0 -94 32 -124t136 -30h125q168 0 258 53q55 33 123 117t110 166l39 -12l-75 -371h-1106z" />
    <glyph glyph-name="F" unicode="F" horiz-adv-x="1241" 
d="M113 0v47q109 -4 129 30t20 105v1051q0 96 -24 118q-25 22 -111 21h-14v49h1028l102 -325l-43 -17q-100 174 -196 236q-47 29 -115 43t-106 15t-136 1h-176v-624h107q182 0 235 42t78 110t24 126h35v-616h-35q1 68 -25 136t-65 101q-61 51 -247 51h-107v-528
q0 -82 18 -104t115 -21h35v-47h-526z" />
    <glyph glyph-name="G" unicode="G" horiz-adv-x="1505" 
d="M1126 352v154q0 93 -31 109q-19 11 -35 13t-56 1h-46v49h529v-51h-14q-51 0 -69 -2q-18 -3 -40 -17q-20 -14 -24 -43t-5 -86v-321q-303 -182 -551 -182t-436 151q-260 207 -260 582q0 329 210 533t490 204q109 0 196 -29t164 -66q77 -38 95 -38q51 0 62 71h32l17 -401
h-45q-33 209 -171 312t-302 103t-309 -121q-85 -73 -140 -190q-80 -166 -80 -376q0 -211 73 -377q74 -166 190 -237t245 -71t220 94q91 93 91 232z" />
    <glyph glyph-name="H" unicode="H" horiz-adv-x="1679" 
d="M115 1421h526v-47h-41q-45 0 -60 -1q-16 -1 -36 -12t-26 -37t-5 -73v-493h735v493q0 47 -5 73q-9 46 -61 49q-15 1 -61 1h-41v47h527v-49h-19q-78 0 -104 -19t-27 -77v-1129q0 -53 26 -75t109 -23h17v-49h-529v47h39q47 0 61 1t37 12q22 11 26 37q5 26 5 75v530h-735
v-530q0 -49 5 -75t27 -37t36 -12t61 -1h39v-47h-528v49h16q84 0 110 23t25 75v1129q0 57 -26 77q-27 19 -105 19h-18v49z" />
    <glyph glyph-name="I" unicode="I" horiz-adv-x="772" 
d="M659 1421v-47h-41q-45 0 -60 -1q-16 -1 -36 -12t-25 -37t-5 -73v-1079q0 -82 18 -104t115 -21h34v-47h-546v47h28q103 0 123 30q17 23 17 63v1130q0 55 -17 80q-17 24 -112 24h-39v47h546z" />
    <glyph glyph-name="J" unicode="J" horiz-adv-x="763" 
d="M299 -143v1368q0 57 -6 88t-29 43t-38 14t-64 2h-27v49h541v-49h-68q-51 0 -55 -7q-5 -7 -19 -20t-14 -94v-954q0 -254 -54 -384t-145 -189q-91 -60 -181 -60t-132 36q-43 36 -43 86t27 81t71 31q78 0 130 -113q25 -59 53 -59q53 0 53 131z" />
    <glyph glyph-name="K" unicode="K" horiz-adv-x="1339" 
d="M653 1421v-47q-123 12 -151 -18t-29 -105v-553l428 461q90 96 90 146q0 70 -149 69v47h483v-47q-92 -2 -165 -51t-206 -190l-274 -291l534 -697q41 -53 79 -75t108 -23v-47h-326l-540 684l-62 -61v-451q0 -49 5 -75t27 -37t36 -12t59 -1h53v-47h-540v47q31 -2 73 6
q42 7 58 25q18 18 18 104v1059q0 82 -20 105q-33 33 -129 28v47h540z" />
    <glyph glyph-name="L" unicode="L" horiz-adv-x="1372" 
d="M113 0v49h14q86 0 111 23t24 118v1043q0 87 -22 113t-113 26h-14v49h540v-47q-113 4 -153 -33q-29 -29 -29 -139v-1001q0 -96 33 -125t145 -29h135q184 0 289 70q63 43 137 142t121 198h45l-114 -457h-1149z" />
    <glyph glyph-name="M" unicode="M" horiz-adv-x="1886" 
d="M297 281q0 -135 37 -187t112 -51h43v-43h-430v43h41q68 0 106 50t38 186v1017q-12 42 -47 62t-121 22v41h350l537 -1147l491 1147h330v-49h-25q-88 0 -107 -26t-20 -121v-1091q0 -26 4 -32t10 -16t12 -14l28 -16t98 -13v-43h-529v43q100 -4 135 24q34 28 33 105v1057
l-518 -1229h-43l-565 1210v-929z" />
    <glyph glyph-name="N" unicode="N" horiz-adv-x="1656" 
d="M51 1421h320l991 -1104v867q0 114 -36 154t-109 40h-43v43h432v-43h-41q-72 0 -108 -41t-36 -153v-1200h-41l-1077 1226v-938q0 -125 37 -177t109 -52h43v-43h-433v43h41q74 0 109 48t35 181v1002l-90 69q-47 31 -103 35v43z" />
    <glyph glyph-name="O" unicode="O" horiz-adv-x="1564" 
d="M305 706q0 -330 141 -506t338 -175q196 0 338 177t142 510t-140 511t-337 178q-198 0 -340 -182q-142 -183 -142 -513zM780 1446q304 0 502 -206q197 -206 197 -531q0 -326 -194 -530t-502 -204q-307 0 -501 213q-194 214 -194 530t194 522t498 206z" />
    <glyph glyph-name="P" unicode="P" horiz-adv-x="1241" 
d="M967 1016q0 364 -349 362q-94 0 -120 -38t-27 -105v-576q45 -4 107 -4q260 0 344 148q45 78 45 213zM471 172q0 -70 36 -102t144 -23v-47h-538v49h14q86 0 111 23t24 118v1086q0 72 -38 84t-77 12h-34v49q82 -4 259 -1t185 3q266 0 404 -57q221 -94 221 -348t-215 -352
q-135 -61 -394 -62l-102 2v-434z" />
    <glyph glyph-name="Q" unicode="Q" horiz-adv-x="1564" 
d="M395 -346q-25 0 -43 18t-18 62t40 78q40 33 115 63l230 100q-287 31 -459 233t-172 508t190 518t501 212q310 0 505 -205t195 -524q1 -319 -181 -523t-485 -221q-133 -47 -250 -102l6 -12q61 31 123 31t166 -25l109 -25q66 -16 112 -16q162 0 236 162h43
q-23 -140 -115 -244t-246 -104q-96 0 -264 79l-180 86q-16 10 -37 11q-63 0 -67 -66l-3 -33q0 -21 -13 -41t-38 -20zM788 1401q-198 0 -340 -182q-142 -181 -142 -513t140 -506q141 -174 338 -175q196 0 338 177t142 510t-140 511t-336 178z" />
    <glyph glyph-name="R" unicode="R" horiz-adv-x="1359" 
d="M442 172q0 -95 67 -116q32 -9 81 -9h31v-47h-539v49h14q86 0 112 22t25 128v1026q0 57 -4 86t-24 43q-21 14 -39 16t-70 2h-14v49l389 2q166 0 282 -14t211 -55q189 -82 189 -324q0 -137 -83 -236t-234 -128q135 -125 276 -383l64 -115q76 -133 206 -123v-45h-344
l-90 170q-195 365 -354 446q-75 40 -152 31v-475zM442 1241v-551q72 -4 107 -4q160 0 248 53q139 84 139 298t-154 298q-78 43 -187 43t-131 -41q-22 -42 -22 -96z" />
    <glyph glyph-name="S" unicode="S" horiz-adv-x="1114" 
d="M96 4v438h45q6 -133 66 -231q106 -180 325 -180q132 0 222 83t90 210q0 86 -41 132q-23 26 -51 52t-113 57q-86 31 -96 35l-70 27q-145 58 -212 118q-124 109 -124 285t120 296t284 120t299 -84q25 -14 38 -22t19 -7q29 0 59 41h29v-418h-41q-23 152 -76 250
q-98 188 -286 189q-117 0 -195 -82t-78 -210t95 -197q50 -36 92 -55t118 -47q78 -28 123 -46t107 -56t94 -74q82 -93 82 -235q0 -188 -131 -302q-131 -113 -325 -113t-376 100l-65 -74h-27z" />
    <glyph glyph-name="T" unicode="T" horiz-adv-x="1521" 
d="M864 1372v-1200q0 -94 36 -110q36 -15 91 -15h39v-47h-538v47h38q104 0 119 51q8 27 8 74v1200h-53q-129 0 -248 -8l-63 -4q-41 -2 -90 -58t-144 -200l-34 -53l-25 18l80 387q109 -33 274 -33h813q166 0 275 33l80 -387l-25 -18l-35 53q-94 144 -143 200t-90 58l-64 4
q-119 8 -247 8h-54z" />
    <glyph glyph-name="U" unicode="U" horiz-adv-x="1546" 
d="M250 608v633q0 81 -25 109t-125 24v47h527v-47h-65q-54 0 -73 -13q-20 -13 -25 -39t-5 -71v-850q-1 -168 107 -270t276 -102q414 0 413 530v625q1 114 -33 152t-112 38h-43v47h418v-47h-37q-68 0 -100 -38t-33 -152v-647q0 -561 -522 -562q-367 0 -482 222
q-61 116 -61 411z" />
    <glyph glyph-name="V" unicode="V" horiz-adv-x="1230" 
d="M-63 1421h555v-47l-64 -4q-49 -2 -76 -15t-33 -27t-6 -36q0 -23 17 -67l372 -942l336 913q18 49 19 84q0 82 -111 90l-63 4v47h454v-47l-45 -8q-41 -8 -53 -12t-41 -22t-48 -54q-19 -37 -44 -98l-455 -1209h-41l-528 1323q-29 72 -84 76l-61 4v47z" />
    <glyph glyph-name="W" unicode="W" horiz-adv-x="1773" 
d="M-66 1421h545v-49l-61 -4q-38 -2 -58 -6t-38 -22t-18 -38t13 -71l340 -942l252 741l-102 264q-27 70 -92 74l-70 4v49h569v-49l-73 -4q-104 -8 -105 -76q0 -12 13 -55l305 -948l237 837q27 106 27 138q0 115 -160 108v49h438v-47l-55 -10q-69 -12 -103 -56t-59 -128
l-370 -1209h-37l-334 969l-328 -969h-41l-497 1323q-27 70 -84 74l-54 6v47z" />
    <glyph glyph-name="X" unicode="X" horiz-adv-x="1339" 
d="M-47 0v47q66 0 120 29q54 28 81 56t63 77l361 469l-404 584q-25 37 -45 57q-21 21 -67 39t-109 16v47h612v-47l-88 -6q-78 -4 -78 -49q0 -35 101 -178l219 -318l155 191q174 213 175 272q0 88 -158 88v47h491v-47q-66 2 -118 -24t-78 -52q-25 -25 -64 -73l-368 -453
l383 -567q61 -90 109 -125t136 -33v-47h-606v47q170 0 170 64q0 27 -51 100l-283 418l-163 -219q-187 -250 -187 -299t84 -56l96 -8v-47h-489z" />
    <glyph glyph-name="Y" unicode="Y" horiz-adv-x="1058" 
d="M643 193q0 -92 25 -123t127 -21v-49h-514v49h14q85 0 111 22t26 128v444l-362 631q-61 102 -148 100v47h510v-47q-141 8 -141 -63q0 -16 18 -49l309 -529l246 424q59 102 60 143q0 76 -123 80v41h362v-47q-67 -2 -107 -38t-93 -124l-320 -534v-485z" />
    <glyph glyph-name="Z" unicode="Z" horiz-adv-x="1310" 
d="M838 1380h-230q-135 0 -217 -51q-49 -33 -96 -88t-133 -174l-45 -61l-37 14l137 401h1012l-955 -1374h197q248 0 351 11t145 42q92 68 266 355h37l-137 -455h-1139l964 1372q-55 8 -120 8z" />
    <glyph glyph-name="bracketleft" unicode="[" horiz-adv-x="829" 
d="M285 1421h372v-51h-90q-84 0 -103 -22t-20 -97v-1398q0 -74 20 -98t103 -23h90v-51h-372v1740z" />
    <glyph glyph-name="backslash" unicode="\" horiz-adv-x="567" 
d="M485 -190l-499 1636h114l502 -1636h-117z" />
    <glyph glyph-name="bracketright" unicode="]" horiz-adv-x="829" 
d="M545 1421v-1740h-373v51h90q82 0 103 23q20 24 20 98v1398q0 74 -19 97t-104 22h-90v51h373z" />
    <glyph glyph-name="asciicircum" unicode="^" horiz-adv-x="2048" 
d="M934 1462h178l520 -565h-92l-518 436l-520 -436h-90z" />
    <glyph glyph-name="underscore" unicode="_" 
d="M0 -365h1024v-118h-1024v118z" />
    <glyph glyph-name="grave" unicode="`" 
d="M304 1389q36 0 95 -60l289 -299h-67l-330 205q-61 37 -62 84q-1 27 19 49t56 21z" />
    <glyph glyph-name="a" unicode="a" horiz-adv-x="878" 
d="M219 238q0 -68 46 -108t119 -40t167 82v309q-164 -59 -254 -123q-78 -52 -78 -120zM690 -18q-62 0 -103 36q-40 36 -42 103q-137 -143 -275 -144q-86 1 -139 51t-53 132q0 141 170 237q113 66 309 135v205q0 123 -115 123q-68 0 -123 -28t-63 -82q0 -76 -12 -111
q-20 -61 -88 -61q-78 0 -78 75q0 66 94 142q160 127 336 127q94 0 150 -49t57 -224v-520q0 -55 41 -55q20 0 36 20q15 20 17 49h39q-4 -77 -50 -119t-108 -42z" />
    <glyph glyph-name="b" unicode="b" horiz-adv-x="1087" 
d="M326 301q0 -276 209 -276q135 1 221 113t86 309t-86 295t-212 100q-126 0 -218 -111v-430zM326 1436v-639q131 119 296 119q166 0 278 -116t112 -344t-135 -352q-135 -123 -320 -122q-125 0 -204 32t-100 33q-21 0 -25 -9t-7 -11l-22 -43h-29v1183q0 87 -40 118
q-22 17 -54 28v24q141 43 235 99h15z" />
    <glyph glyph-name="c" unicode="c" horiz-adv-x="909" 
d="M479 -23q-176 1 -290 137q-113 136 -113 344t131 336t285 128t247 -74q94 -74 95 -156q0 -35 -25 -55t-53 -21q-51 0 -72 54q-2 4 -19 66t-34 89q-32 49 -107 49q-116 0 -200 -98t-84 -280t95 -292q95 -108 218 -108q88 0 158 52q69 53 108 135l31 -15
q-50 -131 -150 -211t-221 -80z" />
    <glyph glyph-name="d" unicode="d" horiz-adv-x="1114" 
d="M770 504q0 365 -242 364q-122 0 -196 -112t-74 -291q0 -177 91 -281t214 -104t207 94v330zM770 1167q0 39 -3 59t-29 48q-26 27 -76 35v26q117 31 249 101h19v-1266q0 -50 41 -68q20 -8 53 -16v-23q-160 -49 -233 -77h-19v135q-123 -145 -284 -145q-162 0 -280 124
q-118 125 -118 342t123 345t317 128q103 0 240 -43v295z" />
    <glyph glyph-name="e" unicode="e" horiz-adv-x="995" 
d="M618 662q70 0 70 61q0 67 -54 109t-139 42t-153 -57t-92 -155h368zM864 608h-622q-14 -100 -15 -151q-1 -150 99 -251t249 -102q105 0 189 58t125 155l39 -12q-45 -154 -162 -243q-118 -89 -276 -89t-287 120t-129 335t124 353t328 139q152 0 264 -88t111 -183
q0 -25 -7 -33t-30 -8z" />
    <glyph glyph-name="f" unicode="f" horiz-adv-x="661" 
d="M383 780v-622q-1 -72 19 -96t100 -23h41v-39h-445v39h31q20 0 48 10q28 11 40 25t12 116v590h-147l22 84h125v86q-1 218 97 352t266 134q94 0 156 -45t61 -117q0 -42 -24 -62t-60 -20q-55 0 -92 70q-15 28 -19 34l-16 24q-28 44 -72 44q-43 0 -70 -12t-57 -84
q-16 -46 -16 -150v-254h223l-24 -84h-199z" />
    <glyph glyph-name="g" unicode="g" horiz-adv-x="964" 
d="M610 -63h-172q-102 0 -166 24q-96 -53 -96 -170q0 -199 291 -199q391 0 391 191q0 154 -248 154zM647 617q0 125 -49 191t-128 66t-128 -66t-49 -190q0 -126 49 -190t127 -64t128 64q50 63 50 189zM457 -455q-406 0 -406 217q1 76 57 134t130 88q-113 57 -113 163
q0 61 45 119t104 94q-133 88 -133 238t90 236q89 86 235 86t257 -84q76 68 147 67q45 1 67 -23q21 -24 21 -53t-17 -44t-39 -15t-57 26q-36 26 -64 26t-38 -9q61 -92 61 -211t-93 -202q-94 -83 -240 -83q-63 0 -162 25q-86 -41 -86 -125q0 -93 119 -113q72 -10 162 -10
l110 -2q350 -6 351 -248q0 -297 -508 -297z" />
    <glyph glyph-name="h" unicode="h" horiz-adv-x="1103" 
d="M82 0v39q66 -6 96 35q16 23 17 116v977q0 39 -5 61q-4 22 -26 46t-64 39v24q141 43 236 99h12v-678q121 164 291 164t229 -121q60 -121 60 -297v-363q0 -63 20 -86t92 -16v-39h-372v39q26 -2 54 6t38 25q14 18 14 96v344q0 160 -39 240t-155 79q-70 0 -133 -37
q-62 -38 -99 -108v-526q0 -78 14 -94t47 -22q32 -7 52 -3v-39h-379z" />
    <glyph glyph-name="i" unicode="i" horiz-adv-x="561" 
d="M379 1327q0 -41 -32 -73t-76 -32q-45 0 -75 32t-30 77t30 75t78 30t76 -34q29 -34 29 -75zM365 920v-762q-1 -76 21 -101t91 -18v-39h-387v39q74 -4 92 28t19 123v461q0 39 -4 61t-26 46t-65 39v24q127 39 236 99h23z" />
    <glyph glyph-name="j" unicode="j" horiz-adv-x="514" 
d="M367 1329q0 -43 -32 -75t-77 -32t-76 32q-30 32 -30 77t30 75q31 30 75 30t77 -32t33 -75zM346 920v-889q0 -248 -85 -363t-208 -114q-63 0 -106 30t-43 72q0 43 21 62q22 19 52 20q58 0 121 -84q23 -31 39 -31q53 0 51 146v882q0 59 -18 91t-78 55v24q141 43 236 99h18z
" />
    <glyph glyph-name="k" unicode="k" horiz-adv-x="1067" 
d="M80 0v39q61 -5 87 21t26 130v977q-1 61 -19 93t-76 53v24q121 39 236 99h14v-928l295 225q47 35 47 65t-44 39q-25 5 -30 5l-92 16v37h455v-37q-137 -33 -223 -100l-207 -162l342 -434q92 -121 199 -123v-39h-463v39l51 6q59 10 59 43q0 14 -14 33l-293 389l-82 -64v-288
q0 -78 22 -101t89 -18v-39h-379z" />
    <glyph glyph-name="l" unicode="l" horiz-adv-x="555" 
d="M358 1436v-1278q0 -78 22 -101t89 -18v-39h-379v39q68 -4 96 33q16 23 17 118v977q-1 61 -19 93t-75 53v24q123 37 235 99h14z" />
    <glyph glyph-name="m" unicode="m" horiz-adv-x="1662" 
d="M1491 119q0 -92 111 -80v-39h-365v39q23 -4 49 4t40 28q13 20 13 105v375q0 117 -26 178q-45 98 -166 98q-143 0 -223 -157v-551q0 -89 112 -80v-39h-368v39h8q56 -1 76 23t20 114v377q0 115 -29 178q-45 96 -165 96q-143 0 -222 -157v-512q0 -78 22 -101t89 -18v-39
h-373v39q63 0 87 22t24 129v461q-1 61 -19 92t-77 54v24q131 39 237 99h10v-162q119 164 291 164q49 0 111 -20q116 -39 153 -167q115 186 295 187q92 0 156 -46t96 -110q33 -64 33 -205v-442z" />
    <glyph glyph-name="n" unicode="n" horiz-adv-x="1114" 
d="M90 0v39q74 0 93 20t20 107v485q0 39 -4 61t-26 46t-64 39v24q121 37 233 99h18l-4 -162q123 164 297 164t240 -152q41 -100 41 -266v-389q0 -43 18 -59t97 -17v-39h-375v39q72 0 89 17t17 59v438q0 113 -28 176q-47 100 -166 100q-150 0 -230 -145v-526q0 -76 22 -102
t89 -17v-39h-377z" />
    <glyph glyph-name="o" unicode="o" horiz-adv-x="983" 
d="M496 870q-104 0 -180 -98t-74 -324q0 -226 74 -325q75 -98 168 -98t168 81q40 44 65 132t24 211q0 213 -70 317q-71 104 -175 104zM72 450q0 212 115 341t305 129t306 -129t116 -339t-116 -343q-114 -133 -304 -133t-307 130q-115 132 -115 344z" />
    <glyph glyph-name="p" unicode="p" horiz-adv-x="1114" 
d="M346 420q0 -195 27 -253q42 -95 102 -121q41 -17 94 -17q129 1 212 113t83 294t-101 292q-101 112 -226 112q-95 0 -191 -74v-346zM346 -283q0 -55 14 -83t48 -34t90 -3v-37h-420v37q103 -5 110 54q2 15 2 44v956q0 61 -18 92t-78 54v24q127 39 236 99h16v-103
q127 96 291 96q165 1 277 -121t112 -328t-136 -346t-345 -141q-105 0 -199 35v-295z" />
    <glyph glyph-name="q" unicode="q" horiz-adv-x="1112" 
d="M954 915v-1239q0 -40 34 -62t79 -17v-37h-420v37q113 -8 135 33q12 24 15 39q2 15 2 48v373q-141 -106 -297 -106t-273 114t-117 335q0 220 128 352q127 132 344 133q109 0 215 -33q57 -15 75 -15t29 13l31 32h20zM799 623q0 155 -38 197q-17 18 -55 36t-92 18
q-162 0 -242 -120t-79 -310q0 -188 85 -287t202 -100q145 0 219 115v451z" />
    <glyph glyph-name="r" unicode="r" horiz-adv-x="688" 
d="M90 0v39q61 -4 87 25t26 126v461q-1 59 -19 91t-78 55v24q141 47 236 99h14v-148q36 62 94 108t116 46t84 -30t26 -68t-20 -58t-53 -20q-31 0 -65 17t-63 17q-80 0 -119 -88v-538q0 -76 27 -100t117 -19v-39h-410z" />
    <glyph glyph-name="s" unicode="s" horiz-adv-x="792" 
d="M102 297h39q40 -198 129 -252q38 -23 104 -23t116 52q50 51 50 127q0 75 -43 117q-58 55 -155 102t-113 61q-16 13 -36 29q-19 16 -27 26t-22 28q-32 40 -31 126q0 86 75 158q76 72 208 72t257 -70v-217h-43q-6 74 -45 139q-66 109 -176 109q-67 0 -109 -37t-42 -81
t8 -68q13 -38 119 -99l63 -35q111 -57 162 -96q102 -78 102 -206t-100 -205t-236 -77t-254 68v252z" />
    <glyph glyph-name="t" unicode="t" horiz-adv-x="755" 
d="M221 793h-115v20q145 109 254 231h17v-149h301l-53 -102h-248v-523q0 -136 55 -171q31 -19 78 -19q88 0 168 80l18 -23q-102 -158 -274 -157q-145 0 -182 126q-18 61 -19 207v480z" />
    <glyph glyph-name="u" unicode="u" horiz-adv-x="1101" 
d="M915 895v-694q0 -63 19 -82t76 -19v-24q-49 -16 -236 -90h-14v153q-117 -164 -296 -164t-249 152q-33 70 -33 233v416q0 42 -22 62t-82 20h-10v37h268v-512q0 -152 26 -212t66 -82q41 -22 107 -21q150 0 225 159v510q0 73 -18 97t-83 24h-10v37h266z" />
    <glyph glyph-name="v" unicode="v" horiz-adv-x="935" 
d="M-2 895h416v-41h-23q-35 0 -53 -1t-36 -12t-19 -34q0 -23 16 -62l207 -559l246 559q12 29 12 54q0 55 -121 55v41h303v-41q-41 0 -73 -27t-45 -51t-35 -74l-326 -720h-45l-295 784q-18 50 -47 68t-82 20v41z" />
    <glyph glyph-name="w" unicode="w" horiz-adv-x="1417" 
d="M6 895h395v-41l-61 -4q-59 -6 -59 -41q0 -25 16 -64l215 -555l186 482l-28 76q-43 109 -129 106v41h379v-41l-48 -4q-57 -8 -57 -45q0 -16 14 -60l179 -542l206 542q12 37 12 60t-21 34q-22 11 -40 11l-49 4v41h289v-41q-57 -4 -87 -32t-52 -87l-297 -753h-41l-207 618
l-246 -618h-43l-297 766q-23 60 -51 84t-78 22v41z" />
    <glyph glyph-name="x" unicode="x" horiz-adv-x="968" 
d="M23 0v39h6q80 0 126 36t115 130l170 229l-262 354q-39 53 -104 64l-37 6v37h414v-37l-35 -4q-51 -6 -51 -33q0 -20 16 -45l158 -223l145 209q18 25 18 55q0 41 -98 41h-26v37h364v-37q-57 0 -97 -18q-41 -18 -57 -36t-47 -59l-172 -227l250 -364q45 -70 87 -90t91 -25
v-39h-477v39l68 4q78 6 78 49q0 23 -41 80l-158 219l-150 -213q-49 -68 -49 -98q0 -41 92 -41h29v-39h-366z" />
    <glyph glyph-name="y" unicode="y" horiz-adv-x="933" 
d="M-25 858v37h437v-37l-50 -4q-94 -6 -96 -53q0 -12 17 -45l286 -539l172 514q11 27 11 61q1 61 -73 66q-28 2 -75 0v37h346v-37q-81 0 -106 -38t-43 -87l-336 -950q-11 -45 -20 -62q-9 -15 -17 -39t-13 -31t-16 -26t-30 -36t-45 -24t-57 -7t-53 28t-22 64q0 37 27 57
t57 21l70 -11q23 1 39 13t19 20t12 27l86 246l-396 725q-18 35 -30 53q-12 17 -39 37t-62 20z" />
    <glyph glyph-name="z" unicode="z" horiz-adv-x="913" 
d="M57 0v12l553 842h-194q-121 0 -159 -19t-79 -73t-63 -107l-43 9l67 231h680v-12l-551 -838h193q170 0 221 37q57 47 145 215l31 -14l-63 -283h-738z" />
    <glyph glyph-name="braceleft" unicode="{" 
d="M846 1516v-52q-146 -2 -196 -58t-50 -206v-143q0 -209 -54 -299t-233 -123q179 -33 233 -123t54 -299v-143q0 -150 49 -205t197 -58v-51h-10q-219 0 -299 75t-80 271v213q1 156 -57 216t-224 75v60q168 14 224 74t57 216v213q0 197 80 272t299 75h10z" />
    <glyph glyph-name="bar" unicode="|" 
d="M449 1565h126v-2048h-126v2048z" />
    <glyph glyph-name="braceright" unicode="}" 
d="M178 1516h10q217 0 298 -75t81 -272v-213q1 -156 57 -216t224 -74v-60q-166 -14 -223 -74t-58 -217v-213q0 -198 -81 -272t-298 -74h-10v51q146 1 196 57t50 206v143q0 209 54 299t233 123q-178 33 -233 123q-54 90 -54 299v143q0 150 -49 206t-197 58v52z" />
    <glyph glyph-name="asciitilde" unicode="~" horiz-adv-x="1705" 
d="M565 739q106 0 291 -65q10 -4 40 -14t43 -16q109 -42 206 -42q162 0 385 156v-131q-201 -143 -387 -144q-86 1 -153 23q-68 22 -138 47t-139 46t-150 22q-158 0 -385 -160v133q211 145 387 145z" />
    <glyph glyph-name="exclamdown" unicode="&#xa1;" horiz-adv-x="598" 
d="M298 -25q-44 0 -72 41t-27 113q0 10 4 64l78 888h34l78 -888l4 -64q1 -72 -27 -113t-72 -41zM420 1324q0 -50 -34 -85t-86 -35t-88 35t-36 85t37 86t87 36t85 -36t35 -86z" />
    <glyph glyph-name="cent" unicode="&#xa2;" horiz-adv-x="1034" 
d="M516 135v748q-96 -37 -151 -133t-55 -232t52 -236q54 -100 154 -147zM598 -262h-82v258q-170 20 -271 148t-101 318t102 320q104 131 270 152v242h82v-236q141 -18 223 -84t82 -147q1 -29 -23 -53t-59 -24t-53 24q-18 22 -33 80q-14 58 -20 75q-31 76 -117 84v-780
q18 -2 41 -2q63 0 132 49t116 137l33 -12q-98 -242 -322 -289v-260z" />
    <glyph glyph-name="sterling" unicode="&#xa3;" horiz-adv-x="1034" 
d="M217 715q31 0 78 2q-147 165 -147 321t104 255q106 99 254 99t242 -73q94 -74 94 -156q0 -33 -22 -55t-54 -23q-32 0 -52 27q-19 28 -38 98t-55 105q-37 35 -114 35t-139 -62t-62 -158q0 -95 67 -200q19 -31 79 -106t80 -101q88 2 277 16l-43 -116q-135 8 -188 8
q70 -186 -27 -404q68 -84 154 -84q86 -1 136 69t91 226l43 -14q-35 -233 -103 -343t-179 -110t-224 138q-84 -131 -207 -132q-88 1 -143 59t-55 146t58 146t132 57q74 0 122 -24q46 -24 107 -76q18 51 19 77q0 109 -146 265l-53 2q-88 0 -199 -15l25 105q57 -4 88 -4z
M251 283q-50 0 -85 -34t-35 -86t39 -89t96 -37q84 0 160 113q-31 63 -78 98t-97 35z" />
    <glyph glyph-name="currency" unicode="&#xa4;" horiz-adv-x="1241" 
d="M623 1200q-131 0 -223 -92t-91 -222q0 -130 91 -222q92 -92 222 -92t222 92q92 94 92 223t-91 221t-222 92zM1038 886q0 -142 -86 -257l205 -205l-72 -74l-204 207q-113 -88 -258 -88t-258 88l-207 -207l-72 74l207 205q-88 117 -88 256t88 256l-207 205l72 73l207 -207
q119 90 258 90t258 -90l204 207l72 -73l-205 -205q86 -113 86 -255z" />
    <glyph glyph-name="yen" unicode="&#xa5;" horiz-adv-x="1132" 
d="M807 1364h362v-45q-63 -7 -82 -20q-18 -13 -34 -23t-32 -37t-25 -38t-22 -35t-18 -29l-157 -260h317v-50h-348l-119 -196h467v-49h-467v-394q0 -92 23 -116t129 -23v-49h-477v49h14q94 0 115 26q20 26 20 113v394h-442v49h422l-113 196h-309v50h278l-198 342
q-57 98 -148 100v45h494v-45q-141 -2 -142 -66q0 -16 17 -49l293 -522l245 420q60 102 60 142t-28 58t-95 21v41z" />
    <glyph glyph-name="brokenbar" unicode="&#xa6;" 
d="M449 408h126v-758h-126v758zM449 1432h126v-758h-126v758z" />
    <glyph glyph-name="section" unicode="&#xa7;" 
d="M402 850q-60 0 -106 -46t-46 -112q0 -68 112 -184q162 -162 240 -162t124 44t46 108q0 96 -145 225q-78 71 -122 99q-43 28 -103 28zM889 550q0 -140 -123 -212q-72 -39 -143 -39q-5 0 -15 1t-16 1q199 -156 199 -301q1 -104 -87 -178t-219 -74t-211 62t-79 143
q0 51 28 82q29 31 71 31t68 -25t27 -61q0 -36 -33 -72q-33 -35 -32 -45q0 -29 42 -49t120 -20t130 43q51 44 52 112q0 100 -176 250l-181 155q-176 152 -176 285q0 109 77 181t196 71h20q-100 85 -147 153t-47 160t80 167q81 75 204 75t200 -60t77 -147q0 -49 -29 -79
t-72 -30q-42 0 -68 23t-26 55t33 70t33 58t-42 42t-109 23q-67 0 -113 -44q-46 -45 -46 -109t44 -122t137 -137l178 -151q174 -148 174 -288z" />
    <glyph glyph-name="dieresis" unicode="&#xa8;" 
d="M688 1286q35 0 67 -28q31 -28 31 -70t-28 -73q-28 -30 -69 -30q-42 0 -72 29q-29 29 -29 73q0 43 32 71t68 28zM336 1286q36 0 68 -28t32 -72t-30 -72q-30 -29 -71 -29q-42 0 -70 30q-27 30 -27 73q0 42 32 70t66 28z" />
    <glyph glyph-name="copyright" unicode="&#xa9;" horiz-adv-x="1683" 
d="M588 680q0 -377 266 -377q170 0 283 174l34 -24q-117 -209 -342 -209q-167 0 -285 123t-118 304t117 306t284 125q74 0 148 -34t82 -34q51 1 63 62h35l2 -314h-41q-68 274 -280 275q-248 0 -248 -377zM841 1303q-255 -1 -435 -185t-180 -441t180 -438q182 -181 438 -181
t435 182q179 184 179 442t-181 440t-436 181zM1544 678q0 -287 -204 -495t-496 -208t-499 204q-206 204 -206 496q0 291 204 499t497 208t497 -204q99 -96 153 -228t54 -272z" />
    <glyph glyph-name="ordfeminine" unicode="&#xaa;" horiz-adv-x="653" 
d="M158 962q0 -46 34 -76q34 -28 86 -28q54 0 130 57v215q-133 -47 -192 -84q-58 -38 -58 -84zM514 782q-100 0 -111 97q-113 -101 -193 -101t-118 36q-39 36 -39 93q0 82 81 137t278 123v144q0 86 -86 86q-56 0 -98 -23t-42 -57q0 -63 -16 -91t-59 -28q-57 0 -58 53
q-1 57 105 123t212 66t133 -49q28 -49 27 -160v-346q0 -39 33 -39t37 49h31q-17 -113 -117 -113z" />
    <glyph glyph-name="guillemotleft" unicode="&#xab;" horiz-adv-x="1036" 
d="M850 770q20 0 20 -22t-112 -179l-78 -106l78 -107q112 -158 112 -180t-20 -22q-17 0 -29 12l-28 31q-143 147 -293 266q158 125 293 266l28 31q9 10 29 10zM506 770q20 0 20 -22t-112 -179l-78 -106l78 -107q112 -158 112 -180t-18 -22q-19 0 -31 12l-28 31
q-143 147 -293 266q158 125 293 266l28 31q9 10 29 10z" />
    <glyph glyph-name="logicalnot" unicode="&#xac;" horiz-adv-x="1705" 
d="M254 858h1198v-502h-115v385h-1083v117z" />
    <glyph glyph-name="registered" unicode="&#xae;" horiz-adv-x="1683" 
d="M729 981v-262q33 -2 66 -2q115 0 175 46t60 123t-52 122t-150 45t-99 -72zM469 1092h393q150 0 234 -56t84 -138q0 -83 -70 -131t-217 -75q94 -29 142 -78t71 -133q4 -20 11 -69q7 -50 19 -66t40 -16q68 0 67 133h43v-12q0 -178 -160 -179q-94 0 -127 66q-18 39 -21 114
t-9 95q-39 133 -207 133h-33v-248q0 -56 27 -76t98 -24v-41h-385v41q71 2 99 24t28 76v516q0 56 -27 76t-100 25v43zM843 1303q-253 -1 -435 -185t-182 -441t180 -438q182 -181 438 -181t435 182q179 184 179 438q0 123 -47 241t-133 201q-182 183 -435 183zM841 1382
q295 0 499 -204t204 -497q0 -292 -207 -499t-495 -207t-495 204q-208 204 -208 496q0 291 204 499t498 208z" />
    <glyph glyph-name="macron" unicode="&#xaf;" 
d="M254 1122v125h516v-125h-516z" />
    <glyph glyph-name="macron" unicode="&#x2c9;" 
d="M254 1122v125h516v-125h-516z" />
    <glyph glyph-name="degree" unicode="&#xb0;" horiz-adv-x="673" 
d="M338 1372q-84 0 -143 -58t-59 -144t58 -143q60 -58 145 -58t142 59t58 143q-1 85 -59 143t-142 58zM338 1454q117 0 200 -83t83 -200t-83 -199t-202 -83q-119 0 -200 82q-81 83 -81 201t83 200t200 82z" />
    <glyph glyph-name="plusminus" unicode="&#xb1;" horiz-adv-x="1705" 
d="M254 158h1198v-117h-1198v117zM795 1180h118v-344h539v-117h-539v-344h-118v344h-541v117h541v344z" />
    <glyph glyph-name="twosuperior" unicode="&#xb2;" horiz-adv-x="677" 
d="M68 547v16q0 71 52 146q15 23 64 81t64 74l112 135q98 121 98 183t-35 95q-35 34 -97 34t-118 -44t-118 -141l-24 9q129 248 323 247q88 0 142 -47q55 -47 55 -104q1 -96 -72 -168q-25 -25 -86 -84l-160 -158q-100 -92 -139 -178h340q43 0 66 17t43 63h26l-92 -242h-25
v13q0 37 -16 45t-76 8h-327z" />
    <glyph glyph-name="threesuperior" unicode="&#xb3;" horiz-adv-x="675" 
d="M250 948h-8q98 96 138 148t40 102q0 49 -33 79t-86 30q-80 0 -180 -90l-21 14q143 154 262 153q68 0 109 -36t41 -93q0 -109 -150 -221q106 -8 168 -66t62 -162t-89 -189t-203 -85t-182 39q-67 39 -67 84q-1 19 15 33t40 14t37 -15q14 -15 35 -52q37 -74 118 -74
q81 -1 135 61t54 154q1 172 -235 172z" />
    <glyph glyph-name="acute" unicode="&#xb4;" 
d="M336 1030l289 299q98 98 150 38q19 -22 20 -48q0 -47 -62 -84l-330 -205h-67z" />
    <glyph glyph-name="mu" unicode="&#xb5;" horiz-adv-x="1120" 
d="M668 172v23q-92 -217 -284 -217t-220 215q-23 -120 -45 -287q-21 -168 -33 -223t-32 -78t-55 -23t-57 24t-22 62t63 267q63 230 107 436l109 514h147l-104 -492q-12 -61 -12 -127t41 -113q42 -46 118 -47q199 0 258 269l111 510h149l-114 -531q-21 -98 -21 -142t26 -74
t66 -29q72 0 109 58t48 97t19 53t21 15q27 0 27 -48t-41 -139q-74 -164 -230 -163q-69 0 -109 50t-40 140z" />
    <glyph glyph-name="mu" unicode="&#x3bc;" horiz-adv-x="1120" 
d="M668 172v23q-92 -217 -284 -217t-220 215q-23 -120 -45 -287q-21 -168 -33 -223t-32 -78t-55 -23t-57 24t-22 62t63 267q63 230 107 436l109 514h147l-104 -492q-12 -61 -12 -127t41 -113q42 -46 118 -47q199 0 258 269l111 510h149l-114 -531q-21 -98 -21 -142t26 -74
t66 -29q72 0 109 58t48 97t19 53t21 15q27 0 27 -48t-41 -139q-74 -164 -230 -163q-69 0 -109 50t-40 140z" />
    <glyph glyph-name="paragraph" unicode="&#xb6;" 
d="M948 1479v-78h-125v-1401h-94v1401h-184v-1401h-94v782q-175 8 -275 104t-100 248t106 248t287 97h479z" />
    <glyph glyph-name="periodcentered" unicode="&#xb7;" horiz-adv-x="516" 
d="M137 683q0 50 35 85t86 35t86 -35t35 -84t-37 -85t-85 -36t-84 35t-36 85z" />
    <glyph glyph-name="periodcentered" unicode="&#x22c5;" horiz-adv-x="516" 
d="M137 683q0 50 35 85t86 35t86 -35t35 -84t-37 -85t-85 -36t-84 35t-36 85z" />
    <glyph glyph-name="periodcentered" unicode="&#x2219;" horiz-adv-x="516" 
d="M137 683q0 50 35 85t86 35t86 -35t35 -84t-37 -85t-85 -36t-84 35t-36 85z" />
    <glyph glyph-name="cedilla" unicode="&#xb8;" 
d="M514 -365q112 0 113 93q0 42 -30 66t-72 24t-74 -8v190h63v-113q35 6 70 7q80 0 127 -44t47 -124t-60 -126t-170 -46t-282 75l35 78q121 -72 233 -72z" />
    <glyph glyph-name="onesuperior" unicode="&#xb9;" horiz-adv-x="677" 
d="M158 547v26q90 1 109 15t20 67v514q1 39 -11 49t-57 11h-69v28q123 25 227 123h24v-723q1 -53 17 -65t100 -19v-26h-360z" />
    <glyph glyph-name="ordmasculine" unicode="&#xba;" horiz-adv-x="733" 
d="M365 811q86 0 137 78t51 220t-51 218t-137 76q-87 0 -137 -77t-50 -218t50 -219t137 -78zM682 1108q0 -150 -88 -240t-229 -90t-229 90q-87 90 -87 240t87 240q86 90 228 90t230 -90t88 -240z" />
    <glyph glyph-name="guillemotright" unicode="&#xbb;" horiz-adv-x="1036" 
d="M526 154q-18 0 -18 22t113 180l77 107l-77 106q-113 157 -113 179t19 22t30 -10l29 -31q135 -141 293 -266q-150 -119 -293 -266l-29 -31q-13 -12 -31 -12zM184 154q-20 0 -20 22t112 180l78 107l-78 106q-112 157 -112 179t20 22t31 -10l29 -31q135 -141 293 -266
q-150 -119 -293 -266l-29 -31q-11 -12 -31 -12z" />
    <glyph glyph-name="onequarter" unicode="&#xbc;" horiz-adv-x="1640" 
d="M1382 303v379l-297 -379h297zM1378 0v229h-352v52l399 507h62v-485h127v-74h-127v-229h-109zM305 -68l920 1483h104l-919 -1483h-105zM152 600v25q86 2 103 14t17 61v480q0 37 -9 47t-54 10h-66v27q117 25 217 114h25v-676q0 -51 14 -61t95 -16v-25h-342z" />
    <glyph glyph-name="onehalf" unicode="&#xbd;" horiz-adv-x="1640" 
d="M1057 0v14q0 62 35 114q35 51 79 100t60 67l104 127q95 113 95 170t-34 89t-85 32q-119 0 -234 -172l-20 8q119 231 307 231q84 0 136 -44t52 -97q0 -86 -68 -157q-22 -22 -81 -79l-154 -147q-94 -88 -133 -166h324q40 0 62 16t42 60h25l-86 -227h-25v12q0 35 -15 42
t-73 7h-313zM305 -68l920 1483h104l-919 -1483h-105zM152 600v25q86 2 103 14t17 61v480q0 37 -9 47t-54 10h-66v27q117 25 217 114h25v-676q0 -51 14 -61t95 -16v-25h-342z" />
    <glyph glyph-name="threequarters" unicode="&#xbe;" horiz-adv-x="1640" 
d="M1382 303v379l-297 -379h297zM1378 0v229h-352v52l399 507h62v-485h127v-74h-127v-229h-109zM305 -68l920 1483h104l-919 -1483h-105zM242 975h-11q92 86 131 136t39 97t-30 75q-31 28 -93 28t-161 -86l-19 14q137 141 248 141q66 0 106 -32t40 -86q0 -102 -146 -207
q102 -7 162 -61t59 -151q0 -97 -85 -176q-86 -79 -196 -79t-173 36t-64 78q-1 18 15 30t38 13q22 0 37 -14q14 -14 33 -49q37 -70 114 -70t128 58t51 145q0 160 -223 160z" />
    <glyph glyph-name="questiondown" unicode="&#xbf;" horiz-adv-x="786" 
d="M651 1322q0 -50 -35 -85t-86 -35t-85 35q-33 35 -33 84t35 85q36 36 84 36t84 -35t36 -85zM551 1036v-471q-201 -2 -283 -43t-82 -144q0 -104 50 -148t161 -62q133 -15 162 -32t35 -34q6 -16 6 -46t-30 -55q-30 -26 -81 -26q-121 0 -241 124t-119 290q0 166 87 245
t278 85l10 317h47z" />
    <glyph glyph-name="Agrave" unicode="&#xc0;" horiz-adv-x="1236" 
d="M336 1780q0 26 19 48t55 22t96 -60l289 -299h-68l-330 205q-61 37 -61 84zM315 592h439l-228 582zM-59 0v49l69 12q27 4 44 25q18 22 26 34t17 36q9 23 20 45t20 61l352 938q12 37 -6 72l-18 31q100 74 153 157h19l500 -1300q25 -63 57 -88t94 -23v-49h-536v49l63 8
q63 10 82 26q18 15 18 44t-14 63l-125 342h-481l-105 -284q-29 -80 -28 -113q0 -66 117 -82l43 -6v-47h-381z" />
    <glyph glyph-name="Aacute" unicode="&#xc1;" horiz-adv-x="1236" 
d="M826 1849q36 0 56 -21q19 -22 19 -48q0 -47 -61 -84l-330 -205h-68l289 299q59 59 95 59zM315 592h439l-228 582zM-59 0v49l69 12q27 4 44 25q18 22 26 34t17 36q9 23 20 45t20 61l352 938q12 37 -6 72l-18 31q100 74 153 157h19l500 -1300q25 -63 57 -88t94 -23v-49
h-536v49l63 8q63 10 82 26q18 15 18 44t-14 63l-125 342h-481l-105 -284q-29 -80 -28 -113q0 -66 117 -82l43 -6v-47h-381z" />
    <glyph glyph-name="Acircumflex" unicode="&#xc2;" horiz-adv-x="1236" 
d="M328 1491l231 350h119l231 -350h-57l-234 211l-233 -211h-57zM315 592h439l-228 582zM-59 0v49l69 12q27 4 44 25q18 22 26 34t17 36q9 23 20 45t20 61l352 938q12 37 -6 72l-18 31q100 74 153 157h19l500 -1300q25 -63 57 -88t94 -23v-49h-536v49l63 8q63 10 82 26
q18 15 18 44t-14 63l-125 342h-481l-105 -284q-29 -80 -28 -113q0 -66 117 -82l43 -6v-47h-381z" />
    <glyph glyph-name="Atilde" unicode="&#xc3;" horiz-adv-x="1236" 
d="M711 1583q-27 0 -74 10l-109 29q-31 6 -49 6q-74 0 -96 -90h-51q18 119 74 166t120 47q29 0 66 -10l110 -29q37 -8 56 -8q69 0 94 84h53q-37 -205 -194 -205zM315 592h439l-228 582zM-59 0v49l69 12q27 4 44 25q18 22 26 34t17 36q9 23 20 45t20 61l352 938q12 37 -6 72
l-18 31q100 74 153 157h19l500 -1300q25 -63 57 -88t94 -23v-49h-536v49l63 8q63 10 82 26q18 15 18 44t-14 63l-125 342h-481l-105 -284q-29 -80 -28 -113q0 -66 117 -82l43 -6v-47h-381z" />
    <glyph glyph-name="Adieresis" unicode="&#xc4;" horiz-adv-x="1236" 
d="M795 1747q35 0 67 -28q32 -29 31 -71q0 -42 -28 -72q-27 -30 -69 -30t-72 29t-30 73t33 72t68 27zM442 1747q35 0 68 -28q33 -27 33 -71t-30 -73t-72 -29q-41 0 -69 30t-28 73t32 71t66 27zM315 592h439l-228 582zM-59 0v49l69 12q27 4 44 25q18 22 26 34t17 36
q9 23 20 45t20 61l352 938q12 37 -6 72l-18 31q100 74 153 157h19l500 -1300q25 -63 57 -88t94 -23v-49h-536v49l63 8q63 10 82 26q18 15 18 44t-14 63l-125 342h-481l-105 -284q-29 -80 -28 -113q0 -66 117 -82l43 -6v-47h-381z" />
    <glyph glyph-name="Aring" unicode="&#xc5;" horiz-adv-x="1236" 
d="M756 1736q0 62 -44 106t-106 44t-105 -44q-44 -44 -44 -106t44 -106t105 -45q61 0 106 44q44 45 44 107zM848 1737q0 -100 -71 -171t-171 -71t-170 71t-69 171q0 100 69 170q70 69 170 69t171 -70t71 -169zM315 592h439l-228 582zM-59 0v49l69 12q27 4 44 25q18 22 26 34
t17 36q9 23 20 45t20 61l352 938q12 37 -6 72l-18 31q100 74 153 157h19l500 -1300q25 -63 57 -88t94 -23v-49h-536v49l63 8q63 10 82 26q18 15 18 44t-14 63l-125 342h-481l-105 -284q-29 -80 -28 -113q0 -66 117 -82l43 -6v-47h-381z" />
    <glyph glyph-name="AE" unicode="&#xc6;" horiz-adv-x="1751" 
d="M668 0v47q100 2 125 33t24 129v418h-428l-231 -408q-37 -66 -37 -94q0 -80 160 -82v-43h-400v43q49 4 89 33q40 30 63 62t48 76t30 52l559 955q25 43 24 73q0 80 -131 80h-18v47h1024l102 -325l-43 -17q-117 184 -194 236t-213 57q-47 2 -146 2h-49v-624h35l18 -2
q151 0 215 56t84 206h37v-570h-37q-20 150 -85 205t-214 55h-53v-499q0 -88 30 -121t122 -33q188 0 285 65t220 271l39 -12l-77 -371h-977zM817 682v668l-393 -668h393z" />
    <glyph glyph-name="Ccedilla" unicode="&#xc7;" horiz-adv-x="1458" 
d="M1339 500v-467h-41l-36 76q-8 14 -35 14t-128 -74q-38 -29 -119 -51t-187 -23v-88q33 6 69 7q80 0 127 -44t47 -124t-59 -126t-170 -46t-283 75l35 78q121 -72 234 -72t112 93q1 42 -29 66t-72 24t-75 -8v167q-207 12 -381 150q-260 207 -260 586q0 268 150 463
q88 118 230 194t320 76q106 0 156 -14t86 -27q36 -11 52 -21t46 -24t62 -31q34 -17 53 -16q47 0 62 71h36v-475h-43q-14 154 -90 273q-135 217 -379 217q-87 0 -175 -38q-171 -73 -267 -271q-80 -162 -80 -382t74 -374q73 -154 191 -230t253 -75q233 0 371 202
q77 117 104 269h39z" />
    <glyph glyph-name="Egrave" unicode="&#xc8;" horiz-adv-x="1323" 
d="M379 1780q0 26 19 48q20 22 56 22t95 -60l289 -299h-68l-330 205q-61 37 -61 84zM113 0v47q96 -6 129 29q20 20 20 106v1051q0 87 -20 113t-97 26h-32v49h1028l102 -325l-43 -17q-104 180 -188 235t-202 59q-34 1 -130 1h-209v-624h107q178 0 239 45q43 31 69 93t29 122
h35v-570h-35q-4 55 -29 120q-26 65 -69 95q-61 45 -239 45h-107v-499q0 -94 32 -124t136 -30h125q168 0 258 53q55 33 123 117t110 166l39 -12l-75 -371h-1106z" />
    <glyph glyph-name="Eacute" unicode="&#xc9;" horiz-adv-x="1323" 
d="M869 1849q36 0 56 -21q19 -22 19 -48q0 -47 -61 -84l-330 -205h-68l289 299q59 59 95 59zM113 0v47q96 -6 129 29q20 20 20 106v1051q0 87 -20 113t-97 26h-32v49h1028l102 -325l-43 -17q-104 180 -188 235t-202 59q-34 1 -130 1h-209v-624h107q178 0 239 45q43 31 69 93
t29 122h35v-570h-35q-4 55 -29 120q-26 65 -69 95q-61 45 -239 45h-107v-499q0 -94 32 -124t136 -30h125q168 0 258 53q55 33 123 117t110 166l39 -12l-75 -371h-1106z" />
    <glyph glyph-name="Ecircumflex" unicode="&#xca;" horiz-adv-x="1323" 
d="M371 1491l231 350h119l231 -350h-57l-233 211l-234 -211h-57zM113 0v47q96 -6 129 29q20 20 20 106v1051q0 87 -20 113t-97 26h-32v49h1028l102 -325l-43 -17q-104 180 -188 235t-202 59q-34 1 -130 1h-209v-624h107q178 0 239 45q43 31 69 93t29 122h35v-570h-35
q-4 55 -29 120q-26 65 -69 95q-61 45 -239 45h-107v-499q0 -94 32 -124t136 -30h125q168 0 258 53q55 33 123 117t110 166l39 -12l-75 -371h-1106z" />
    <glyph glyph-name="Edieresis" unicode="&#xcb;" horiz-adv-x="1323" 
d="M838 1747q34 0 66 -28q32 -29 32 -71t-28 -72t-70 -30t-71 29q-30 29 -30 73t33 72t68 27zM485 1747q35 0 68 -28q33 -27 33 -71t-30 -73t-72 -29t-70 30t-27 73q-1 43 31 71t67 27zM113 0v47q96 -6 129 29q20 20 20 106v1051q0 87 -20 113t-97 26h-32v49h1028l102 -325
l-43 -17q-104 180 -188 235t-202 59q-34 1 -130 1h-209v-624h107q178 0 239 45q43 31 69 93t29 122h35v-570h-35q-4 55 -29 120q-26 65 -69 95q-61 45 -239 45h-107v-499q0 -94 32 -124t136 -30h125q168 0 258 53q55 33 123 117t110 166l39 -12l-75 -371h-1106z" />
    <glyph glyph-name="Igrave" unicode="&#xcc;" horiz-adv-x="772" 
d="M563 1491h-67l-330 205q-61 37 -62 84q0 26 20 48q53 59 150 -38zM659 1421v-47h-41q-45 0 -60 -1q-16 -1 -36 -12t-25 -37t-5 -73v-1079q0 -82 18 -104t115 -21h34v-47h-546v47h28q103 0 123 30q17 23 17 63v1130q0 55 -17 80q-17 24 -112 24h-39v47h546z" />
    <glyph glyph-name="Iacute" unicode="&#xcd;" horiz-adv-x="772" 
d="M595 1849q36 1 55 -21t20 -48q0 -47 -62 -84l-329 -205h-68l289 299q59 59 95 59zM659 1421v-47h-41q-45 0 -60 -1q-16 -1 -36 -12t-25 -37t-5 -73v-1079q0 -82 18 -104t115 -21h34v-47h-546v47h28q103 0 123 30q17 23 17 63v1130q0 55 -17 80q-17 24 -112 24h-39v47h546
z" />
    <glyph glyph-name="Icircumflex" unicode="&#xce;" horiz-adv-x="772" 
d="M96 1491l232 350h118l232 -350h-57l-234 211l-233 -211h-58zM659 1421v-47h-41q-45 0 -60 -1q-16 -1 -36 -12t-25 -37t-5 -73v-1079q0 -82 18 -104t115 -21h34v-47h-546v47h28q103 0 123 30q17 23 17 63v1130q0 55 -17 80q-17 24 -112 24h-39v47h546z" />
    <glyph glyph-name="Idieresis" unicode="&#xcf;" horiz-adv-x="772" 
d="M563 1747q35 0 67 -28q32 -29 32 -71t-28 -72t-70 -30t-72 29t-29 73t33 72t67 27zM211 1747q35 0 68 -28q33 -27 33 -71t-30 -73t-72 -29t-70 30t-28 73t32 71t67 27zM659 1421v-47h-41q-45 0 -60 -1q-16 -1 -36 -12t-25 -37t-5 -73v-1079q0 -82 18 -104t115 -21h34v-47
h-546v47h28q103 0 123 30q17 23 17 63v1130q0 55 -17 80q-17 24 -112 24h-39v47h546z" />
    <glyph glyph-name="Eth" unicode="&#xd0;" horiz-adv-x="1615" 
d="M113 0v49q100 4 125 32t24 116v497h-262v70h262v483q0 73 -30 97t-119 28v49h192l471 11q356 0 558 -195t202 -528q0 -190 -75 -344t-210 -246q-190 -129 -585 -129l-424 10h-129zM471 694v-467q0 -113 41 -153t160 -41q258 0 384 91t191 241q66 150 66 341
q-1 192 -63 340t-185 245t-397 98q-127 0 -162 -37t-35 -150v-438h403v-70h-403z" />
    <glyph glyph-name="Ntilde" unicode="&#xd1;" horiz-adv-x="1656" 
d="M920 1583q-27 0 -74 10l-109 29q-31 6 -49 6q-74 0 -96 -90h-51q18 119 74 166t120 47q29 0 66 -10l110 -29q37 -8 56 -8q69 0 94 84h53q-37 -205 -194 -205zM51 1421h320l991 -1104v867q0 114 -36 154t-109 40h-43v43h432v-43h-41q-72 0 -108 -41t-36 -153v-1200h-41
l-1077 1226v-938q0 -125 37 -177t109 -52h43v-43h-433v43h41q74 0 109 48t35 181v1002l-90 69q-47 31 -103 35v43z" />
    <glyph glyph-name="Ograve" unicode="&#xd2;" horiz-adv-x="1564" 
d="M500 1780q0 26 19 48q52 59 151 -38l288 -299h-67l-330 205q-61 37 -61 84zM305 706q0 -330 141 -506t338 -175q196 0 338 177t142 510t-140 511t-337 178q-198 0 -340 -182q-142 -183 -142 -513zM780 1446q304 0 502 -206q197 -206 197 -531q0 -326 -194 -530t-502 -204
q-307 0 -501 213q-194 214 -194 530t194 522t498 206z" />
    <glyph glyph-name="Oacute" unicode="&#xd3;" horiz-adv-x="1564" 
d="M990 1849q36 0 56 -21q19 -22 19 -48q0 -47 -61 -84l-330 -205h-68l289 299q59 59 95 59zM305 706q0 -330 141 -506t338 -175q196 0 338 177t142 510t-140 511t-337 178q-198 0 -340 -182q-142 -183 -142 -513zM780 1446q304 0 502 -206q197 -206 197 -531
q0 -326 -194 -530t-502 -204q-307 0 -501 213q-194 214 -194 530t194 522t498 206z" />
    <glyph glyph-name="Ocircumflex" unicode="&#xd4;" horiz-adv-x="1564" 
d="M492 1491l231 350h119l231 -350h-57l-234 211l-233 -211h-57zM305 706q0 -330 141 -506t338 -175q196 0 338 177t142 510t-140 511t-337 178q-198 0 -340 -182q-142 -183 -142 -513zM780 1446q304 0 502 -206q197 -206 197 -531q0 -326 -194 -530t-502 -204
q-307 0 -501 213q-194 214 -194 530t194 522t498 206z" />
    <glyph glyph-name="Otilde" unicode="&#xd5;" horiz-adv-x="1564" 
d="M874 1583q-27 0 -73 10l-109 29q-31 6 -49 6q-74 0 -96 -90h-51q18 119 74 166t120 47q29 0 66 -10l110 -29q37 -8 56 -8q69 0 94 84h53q-37 -205 -195 -205zM305 706q0 -330 141 -506t338 -175q196 0 338 177t142 510t-140 511t-337 178q-198 0 -340 -182
q-142 -183 -142 -513zM780 1446q304 0 502 -206q197 -206 197 -531q0 -326 -194 -530t-502 -204q-307 0 -501 213q-194 214 -194 530t194 522t498 206z" />
    <glyph glyph-name="Odieresis" unicode="&#xd6;" horiz-adv-x="1564" 
d="M958 1747q35 0 67 -28q32 -29 32 -71t-28 -72t-70 -30q-41 0 -71 29t-30 73t32 72t68 27zM606 1747q35 0 68 -28q33 -27 33 -71t-30 -73t-72 -29q-41 0 -69 30t-28 73t32 71t66 27zM305 706q0 -330 141 -506t338 -175q196 0 338 177t142 510t-140 511t-337 178
q-198 0 -340 -182q-142 -183 -142 -513zM780 1446q304 0 502 -206q197 -206 197 -531q0 -326 -194 -530t-502 -204q-307 0 -501 213q-194 214 -194 530t194 522t498 206z" />
    <glyph glyph-name="multiply" unicode="&#xd7;" horiz-adv-x="1705" 
d="M381 1169l477 -477l475 477l82 -82l-475 -477l475 -475l-82 -82l-475 475l-477 -475l-80 82l475 475l-475 477z" />
    <glyph glyph-name="Oslash" unicode="&#xd8;" horiz-adv-x="1564" 
d="M784 25q209 0 344 185t136 503q0 121 -27 248t-78 208l-667 -1017q127 -127 292 -127zM780 1401q-202 -1 -338 -191t-134 -506q0 -316 141 -499l669 1030q-136 166 -338 166zM88 713q0 321 193 527t495 206q231 0 406 -119l153 236h78l-178 -277q244 -207 244 -579
q0 -326 -195 -530t-498 -204q-182 0 -350 90l-166 -253h-77l188 290q-293 215 -293 613z" />
    <glyph glyph-name="Ugrave" unicode="&#xd9;" horiz-adv-x="1546" 
d="M948 1491h-67l-330 205q-61 37 -62 84q-1 26 19 48q53 59 151 -38zM250 608v633q0 81 -25 109t-125 24v47h527v-47h-65q-54 0 -73 -13q-20 -13 -25 -39t-5 -71v-850q-1 -168 107 -270t276 -102q414 0 413 530v625q1 114 -33 152t-112 38h-43v47h418v-47h-37
q-68 0 -100 -38t-33 -152v-647q0 -561 -522 -562q-367 0 -482 222q-61 116 -61 411z" />
    <glyph glyph-name="Uacute" unicode="&#xda;" horiz-adv-x="1546" 
d="M980 1849q36 1 55 -21t20 -48q0 -47 -62 -84l-329 -205h-68l289 299q59 59 95 59zM250 608v633q0 81 -25 109t-125 24v47h527v-47h-65q-54 0 -73 -13q-20 -13 -25 -39t-5 -71v-850q-1 -168 107 -270t276 -102q414 0 413 530v625q1 114 -33 152t-112 38h-43v47h418v-47
h-37q-68 0 -100 -38t-33 -152v-647q0 -561 -522 -562q-367 0 -482 222q-61 116 -61 411z" />
    <glyph glyph-name="Ucircumflex" unicode="&#xdb;" horiz-adv-x="1546" 
d="M506 1491l231 350h119l231 -350h-57l-233 211l-234 -211h-57zM250 608v633q0 81 -25 109t-125 24v47h527v-47h-65q-54 0 -73 -13q-20 -13 -25 -39t-5 -71v-850q-1 -168 107 -270t276 -102q414 0 413 530v625q1 114 -33 152t-112 38h-43v47h418v-47h-37q-68 0 -100 -38
t-33 -152v-647q0 -561 -522 -562q-367 0 -482 222q-61 116 -61 411z" />
    <glyph glyph-name="Udieresis" unicode="&#xdc;" horiz-adv-x="1546" 
d="M975 1747q35 0 67 -28q32 -29 31 -71q1 -42 -27 -72t-70 -30t-72 29t-30 73t33 72t68 27zM623 1747q35 0 67 -28q32 -27 33 -71q0 -44 -30 -73q-29 -29 -71 -29t-70 30t-28 73t32 71t67 27zM250 608v633q0 81 -25 109t-125 24v47h527v-47h-65q-54 0 -73 -13
q-20 -13 -25 -39t-5 -71v-850q-1 -168 107 -270t276 -102q414 0 413 530v625q1 114 -33 152t-112 38h-43v47h418v-47h-37q-68 0 -100 -38t-33 -152v-647q0 -561 -522 -562q-367 0 -482 222q-61 116 -61 411z" />
    <glyph glyph-name="Yacute" unicode="&#xdd;" horiz-adv-x="1058" 
d="M736 1849q36 0 56 -21q19 -22 19 -48q0 -47 -61 -84l-330 -205h-68l289 299q59 59 95 59zM643 193q0 -92 25 -123t127 -21v-49h-514v49h14q85 0 111 22t26 128v444l-362 631q-61 102 -148 100v47h510v-47q-141 8 -141 -63q0 -16 18 -49l309 -529l246 424q59 102 60 143
q0 76 -123 80v41h362v-47q-67 -2 -107 -38t-93 -124l-320 -534v-485z" />
    <glyph glyph-name="Thorn" unicode="&#xde;" horiz-adv-x="1241" 
d="M471 946v-575q66 -4 94 -4q213 0 307 84t94 269t-86 277q-87 92 -251 93q-90 0 -124 -32t-34 -112zM471 172q0 -80 35 -102t145 -23v-47h-538v49h14q94 0 115 26q20 26 20 115v1086q0 51 -26 74q-27 23 -89 22h-34v49h510v-49h-35q-80 0 -98 -32t-19 -126v-81q82 4 121 4
q590 0 590 -408q0 -223 -152 -319t-473 -97l-86 2v-143z" />
    <glyph glyph-name="germandbls" unicode="&#xdf;" horiz-adv-x="1120" 
d="M506 868q276 0 274 269q0 131 -57 197t-147 65q-90 0 -148 -50q-38 -34 -62 -136t-24 -416v-797h-291v39q98 8 119 41q20 33 20 158v741q0 225 98 342t274 117t278 -86t102 -204t-71 -194q-71 -74 -199 -100v-14q364 -80 364 -430q0 -178 -118 -306q-118 -129 -289 -129
q-97 1 -161 49t-65 111q1 35 21 55t53 21q68 0 90 -95t88 -96q86 0 146 109q59 109 59 295q0 389 -366 407v37h12z" />
    <glyph glyph-name="agrave" unicode="&#xe0;" horiz-adv-x="878" 
d="M158 1319q0 27 19 49t55 21q36 0 96 -60l288 -299h-67l-330 205q-61 37 -61 84zM219 238q0 -68 46 -108t119 -40t167 82v309q-164 -59 -254 -123q-78 -52 -78 -120zM690 -18q-62 0 -103 36q-40 36 -42 103q-137 -143 -275 -144q-86 1 -139 51t-53 132q0 141 170 237
q113 66 309 135v205q0 123 -115 123q-68 0 -123 -28t-63 -82q0 -76 -12 -111q-20 -61 -88 -61q-78 0 -78 75q0 66 94 142q160 127 336 127q94 0 150 -49t57 -224v-520q0 -55 41 -55q20 0 36 20q15 20 17 49h39q-4 -77 -50 -119t-108 -42z" />
    <glyph glyph-name="aacute" unicode="&#xe1;" horiz-adv-x="878" 
d="M264 1030l289 299q98 98 150 38q19 -22 20 -48q0 -47 -61 -84l-330 -205h-68zM219 238q0 -68 46 -108t119 -40t167 82v309q-164 -59 -254 -123q-78 -52 -78 -120zM690 -18q-62 0 -103 36q-40 36 -42 103q-137 -143 -275 -144q-86 1 -139 51t-53 132q0 141 170 237
q113 66 309 135v205q0 123 -115 123q-68 0 -123 -28t-63 -82q0 -76 -12 -111q-20 -61 -88 -61q-78 0 -78 75q0 66 94 142q160 127 336 127q94 0 150 -49t57 -224v-520q0 -55 41 -55q20 0 36 20q15 20 17 49h39q-4 -77 -50 -119t-108 -42z" />
    <glyph glyph-name="acircumflex" unicode="&#xe2;" horiz-adv-x="878" 
d="M150 1030l231 350h119l231 -350h-57l-234 211l-233 -211h-57zM219 238q0 -68 46 -108t119 -40t167 82v309q-164 -59 -254 -123q-78 -52 -78 -120zM690 -18q-62 0 -103 36q-40 36 -42 103q-137 -143 -275 -144q-86 1 -139 51t-53 132q0 141 170 237q113 66 309 135v205
q0 123 -115 123q-68 0 -123 -28t-63 -82q0 -76 -12 -111q-20 -61 -88 -61q-78 0 -78 75q0 66 94 142q160 127 336 127q94 0 150 -49t57 -224v-520q0 -55 41 -55q20 0 36 20q15 20 17 49h39q-4 -77 -50 -119t-108 -42z" />
    <glyph glyph-name="atilde" unicode="&#xe3;" horiz-adv-x="878" 
d="M532 1122q-29 0 -73 11l-109 28q-31 6 -49 6q-74 0 -96 -90h-51q18 119 74 166t120 47q29 0 66 -10l110 -29q37 -8 56 -8q69 0 94 84h53q-37 -205 -195 -205zM219 238q0 -68 46 -108t119 -40t167 82v309q-164 -59 -254 -123q-78 -52 -78 -120zM690 -18q-62 0 -103 36
q-40 36 -42 103q-137 -143 -275 -144q-86 1 -139 51t-53 132q0 141 170 237q113 66 309 135v205q0 123 -115 123q-68 0 -123 -28t-63 -82q0 -76 -12 -111q-20 -61 -88 -61q-78 0 -78 75q0 66 94 142q160 127 336 127q94 0 150 -49t57 -224v-520q0 -55 41 -55q20 0 36 20
q15 20 17 49h39q-4 -77 -50 -119t-108 -42z" />
    <glyph glyph-name="adieresis" unicode="&#xe4;" horiz-adv-x="878" 
d="M616 1286q35 0 67 -28t32 -70t-28 -73q-28 -30 -70 -30q-41 0 -71 29t-30 73q0 43 32 71t68 28zM264 1286q35 0 68 -28t33 -72t-30 -72q-30 -29 -72 -29q-41 0 -69 30t-28 73q0 42 32 70t66 28zM219 238q0 -68 46 -108t119 -40t167 82v309q-164 -59 -254 -123
q-78 -52 -78 -120zM690 -18q-62 0 -103 36q-40 36 -42 103q-137 -143 -275 -144q-86 1 -139 51t-53 132q0 141 170 237q113 66 309 135v205q0 123 -115 123q-68 0 -123 -28t-63 -82q0 -76 -12 -111q-20 -61 -88 -61q-78 0 -78 75q0 66 94 142q160 127 336 127q94 0 150 -49
t57 -224v-520q0 -55 41 -55q20 0 36 20q15 20 17 49h39q-4 -77 -50 -119t-108 -42z" />
    <glyph glyph-name="aring" unicode="&#xe5;" horiz-adv-x="878" 
d="M590 1252q0 62 -44 106t-106 45q-62 0 -105 -44q-44 -45 -44 -107t44 -106t105 -44t106 44q44 44 44 106zM682 1253q0 -100 -71 -171q-71 -70 -171 -70t-170 70t-69 171q0 100 69 170q70 70 170 70t171 -70t71 -170zM219 238q0 -68 46 -108t119 -40t167 82v309
q-164 -59 -254 -123q-78 -52 -78 -120zM690 -18q-62 0 -103 36q-40 36 -42 103q-137 -143 -275 -144q-86 1 -139 51t-53 132q0 141 170 237q113 66 309 135v205q0 123 -115 123q-68 0 -123 -28t-63 -82q0 -76 -12 -111q-20 -61 -88 -61q-78 0 -78 75q0 66 94 142
q160 127 336 127q94 0 150 -49t57 -224v-520q0 -55 41 -55q20 0 36 20q15 20 17 49h39q-4 -77 -50 -119t-108 -42z" />
    <glyph glyph-name="ae" unicode="&#xe6;" horiz-adv-x="1458" 
d="M1081 657q72 1 72 63t-53 106t-141 44t-154 -56q-65 -57 -92 -157h368zM1327 604h-625q-14 -90 -14 -131q0 -160 100 -265t248 -106q106 0 192 58t124 155l37 -12q-49 -154 -163 -241t-263 -87q-223 0 -357 193q-203 -197 -340 -197q-84 -1 -138 51t-54 134
q0 114 114 198t369 174v205q0 123 -115 123q-59 0 -114 -27q-54 -27 -62 -50t-11 -85q-5 -122 -91 -121q-86 0 -86 75t144 171t287 96q144 0 187 -104q117 104 282 104q166 0 276 -90t110 -180q0 -41 -37 -41zM219 232q0 -66 43 -106t116 -40t173 82v309q-180 -70 -256 -124
q-76 -55 -76 -121z" />
    <glyph glyph-name="ccedilla" unicode="&#xe7;" horiz-adv-x="909" 
d="M741 -274q0 -80 -59 -126t-170 -46t-283 75l35 78q121 -72 234 -72t112 93q0 42 -30 66t-71 24q-42 0 -75 -8v170q-162 26 -260 154t-98 330t131 330t285 128t247 -74q94 -74 95 -156q0 -35 -25 -55t-53 -21q-51 0 -72 54q-2 4 -19 66t-34 89q-32 49 -107 49
q-116 0 -200 -98t-84 -280t95 -292q95 -108 218 -108q88 0 158 52q69 53 108 135l31 -15q-29 -76 -75 -134t-86 -86q-75 -53 -191 -71v-90q35 6 69 7q80 0 127 -44t47 -124z" />
    <glyph glyph-name="egrave" unicode="&#xe8;" horiz-adv-x="995" 
d="M215 1319q0 27 19 49q20 22 56 21q36 0 95 -60l289 -299h-68l-330 205q-61 37 -61 84zM618 662q70 0 70 61q0 67 -54 109t-139 42t-153 -57t-92 -155h368zM864 608h-622q-14 -100 -15 -151q-1 -150 99 -251t249 -102q105 0 189 58t125 155l39 -12q-45 -154 -162 -243
q-118 -89 -276 -89t-287 120t-129 335t124 353t328 139q152 0 264 -88t111 -183q0 -25 -7 -33t-30 -8z" />
    <glyph glyph-name="eacute" unicode="&#xe9;" horiz-adv-x="995" 
d="M780 1319q0 -47 -61 -84l-330 -205h-67l288 299q60 59 96 59t55 -21q19 -22 19 -48zM618 662q70 0 70 61q0 67 -54 109t-139 42t-153 -57t-92 -155h368zM864 608h-622q-14 -100 -15 -151q-1 -150 99 -251t249 -102q105 0 189 58t125 155l39 -12q-45 -154 -162 -243
q-118 -89 -276 -89t-287 120t-129 335t124 353t328 139q152 0 264 -88t111 -183q0 -25 -7 -33t-30 -8z" />
    <glyph glyph-name="ecircumflex" unicode="&#xea;" horiz-adv-x="995" 
d="M207 1030l231 350h119l231 -350h-57l-233 211l-234 -211h-57zM618 662q70 0 70 61q0 67 -54 109t-139 42t-153 -57t-92 -155h368zM864 608h-622q-14 -100 -15 -151q-1 -150 99 -251t249 -102q105 0 189 58t125 155l39 -12q-45 -154 -162 -243q-118 -89 -276 -89t-287 120
t-129 335t124 353t328 139q152 0 264 -88t111 -183q0 -25 -7 -33t-30 -8z" />
    <glyph glyph-name="edieresis" unicode="&#xeb;" horiz-adv-x="995" 
d="M674 1286q34 0 66 -28t32 -70t-28 -73q-28 -30 -70 -30t-71 29q-30 29 -30 73q0 43 33 71t68 28zM322 1286q36 0 68 -28t32 -72t-30 -72q-30 -29 -72 -29t-69 30q-28 30 -28 73q0 42 32 70t67 28zM618 662q70 0 70 61q0 67 -54 109t-139 42t-153 -57t-92 -155h368z
M864 608h-622q-14 -100 -15 -151q-1 -150 99 -251t249 -102q105 0 189 58t125 155l39 -12q-45 -154 -162 -243q-118 -89 -276 -89t-287 120t-129 335t124 353t328 139q152 0 264 -88t111 -183q0 -25 -7 -33t-30 -8z" />
    <glyph glyph-name="igrave" unicode="&#xec;" horiz-adv-x="561" 
d="M-2 1319q0 27 19 49t55 21q36 0 96 -60l289 -299h-68l-330 205q-61 37 -61 84zM365 920v-762q-1 -76 21 -101t91 -18v-39h-387v39q74 -4 92 28t19 123v461q0 39 -4 61t-26 46t-65 39v24q127 39 236 99h23z" />
    <glyph glyph-name="iacute" unicode="&#xed;" horiz-adv-x="561" 
d="M88 1030l289 299q98 98 150 38q19 -22 20 -48q0 -47 -62 -84l-329 -205h-68zM365 920v-762q-1 -76 21 -101t91 -18v-39h-387v39q74 -4 92 28t19 123v461q0 39 -4 61t-26 46t-65 39v24q127 39 236 99h23z" />
    <glyph glyph-name="icircumflex" unicode="&#xee;" horiz-adv-x="561" 
d="M-10 1030l231 350h119l231 -350h-57l-233 211l-234 -211h-57zM365 920v-762q-1 -76 21 -101t91 -18v-39h-387v39q74 -4 92 28t19 123v461q0 39 -4 61t-26 46t-65 39v24q127 39 236 99h23z" />
    <glyph glyph-name="idieresis" unicode="&#xef;" horiz-adv-x="561" 
d="M457 1286q35 0 67 -28t31 -70q0 -42 -28 -73q-27 -30 -69 -30t-72 29t-30 73q0 43 33 71t68 28zM104 1286q35 0 68 -28t33 -72t-30 -72q-30 -29 -72 -29q-41 0 -69 30t-28 73q0 42 32 70t66 28zM365 920v-762q-1 -76 21 -101t91 -18v-39h-387v39q74 -4 92 28t19 123v461
q0 39 -4 61t-26 46t-65 39v24q127 39 236 99h23z" />
    <glyph glyph-name="eth" unicode="&#xf0;" horiz-adv-x="983" 
d="M492 920q92 0 165 -31q-39 98 -133 250l-317 -148l-23 49l308 146q-70 106 -173 219l41 31q127 -115 222 -211l282 133l25 -49l-268 -125q149 -182 221 -350t71 -355q1 -239 -113 -371t-305 -132t-308 128q-115 130 -115 344t116 343q117 129 304 129zM493 25
q113 1 181 111t67 313q1 203 -67 313t-182 108q-114 0 -183 -112q-67 -112 -67 -313q0 -202 68 -311t183 -109z" />
    <glyph glyph-name="ntilde" unicode="&#xf1;" horiz-adv-x="1114" 
d="M649 1122q-27 0 -74 11l-108 28q-31 6 -49 6q-74 0 -96 -90h-52q18 119 74 166t121 47q29 0 65 -10l111 -29q37 -8 55 -8q70 0 95 84h53q-37 -205 -195 -205zM90 0v39q74 0 93 20t20 107v485q0 39 -4 61t-26 46t-64 39v24q121 37 233 99h18l-4 -162q123 164 297 164
t240 -152q41 -100 41 -266v-389q0 -43 18 -59t97 -17v-39h-375v39q72 0 89 17t17 59v438q0 113 -28 176q-47 100 -166 100q-150 0 -230 -145v-526q0 -76 22 -102t89 -17v-39h-377z" />
    <glyph glyph-name="ograve" unicode="&#xf2;" horiz-adv-x="983" 
d="M209 1319q0 27 19 49q20 22 56 21q36 0 95 -60l289 -299h-68l-330 205q-61 37 -61 84zM496 870q-104 0 -180 -98t-74 -324q0 -226 74 -325q75 -98 168 -98t168 81q40 44 65 132t24 211q0 213 -70 317q-71 104 -175 104zM72 450q0 212 115 341t305 129t306 -129t116 -339
t-116 -343q-114 -133 -304 -133t-307 130q-115 132 -115 344z" />
    <glyph glyph-name="oacute" unicode="&#xf3;" horiz-adv-x="983" 
d="M774 1319q0 -47 -61 -84l-330 -205h-68l289 299q97 97 151 38q19 -22 19 -48zM496 870q-104 0 -180 -98t-74 -324q0 -226 74 -325q75 -98 168 -98t168 81q40 44 65 132t24 211q0 213 -70 317q-71 104 -175 104zM72 450q0 212 115 341t305 129t306 -129t116 -339
t-116 -343q-114 -133 -304 -133t-307 130q-115 132 -115 344z" />
    <glyph glyph-name="ocircumflex" unicode="&#xf4;" horiz-adv-x="983" 
d="M201 1030l231 350h119l231 -350h-57l-233 211l-234 -211h-57zM496 870q-104 0 -180 -98t-74 -324q0 -226 74 -325q75 -98 168 -98t168 81q40 44 65 132t24 211q0 213 -70 317q-71 104 -175 104zM72 450q0 212 115 341t305 129t306 -129t116 -339t-116 -343
q-114 -133 -304 -133t-307 130q-115 132 -115 344z" />
    <glyph glyph-name="otilde" unicode="&#xf5;" horiz-adv-x="983" 
d="M584 1122q-27 0 -74 11l-109 28q-31 6 -49 6q-74 0 -96 -90h-51q19 119 75 166t119 47q29 0 66 -10l110 -29q37 -8 56 -8q69 0 94 84h53q-37 -205 -194 -205zM496 870q-104 0 -180 -98t-74 -324q0 -226 74 -325q75 -98 168 -98t168 81q40 44 65 132t24 211q0 213 -70 317
q-71 104 -175 104zM72 450q0 212 115 341t305 129t306 -129t116 -339t-116 -343q-114 -133 -304 -133t-307 130q-115 132 -115 344z" />
    <glyph glyph-name="odieresis" unicode="&#xf6;" horiz-adv-x="983" 
d="M668 1286q34 0 66 -28t32 -70t-28 -73q-28 -30 -70 -30t-71 29q-30 29 -30 73q0 43 33 71t68 28zM315 1286q35 0 68 -28t33 -72t-30 -72q-30 -29 -72 -29t-70 30t-27 73q-1 42 31 70t67 28zM496 870q-104 0 -180 -98t-74 -324q0 -226 74 -325q75 -98 168 -98t168 81
q40 44 65 132t24 211q0 213 -70 317q-71 104 -175 104zM72 450q0 212 115 341t305 129t306 -129t116 -339t-116 -343q-114 -133 -304 -133t-307 130q-115 132 -115 344z" />
    <glyph glyph-name="divide" unicode="&#xf7;" horiz-adv-x="1705" 
d="M854 365q47 0 81 -34t34 -81t-33 -81t-81 -34t-82 34t-34 82t34 81t81 33zM254 670h1198v-117h-1198v117zM854 1085q47 1 81 -33t34 -81t-33 -81t-82 -34t-82 34t-33 81t34 81t81 33z" />
    <glyph glyph-name="oslash" unicode="&#xf8;" horiz-adv-x="983" 
d="M235 448q0 -198 68 -313l348 666q-63 73 -171 73t-176 -114t-69 -312zM492 -23q-86 0 -175 35l-116 -231h-80l133 266q-182 133 -182 402q0 215 116 343q117 128 310 128q94 0 192 -48l105 205h77l-124 -239q166 -137 165 -389q0 -215 -115 -344q-116 -128 -306 -128z
M494 23q120 -1 186 109t66 310t-52 289l-342 -655q59 -53 142 -53z" />
    <glyph glyph-name="ugrave" unicode="&#xf9;" horiz-adv-x="1101" 
d="M343 1389q36 0 95 -60l289 -299h-68l-329 205q-61 37 -62 84q0 27 20 49t55 21zM915 895v-694q0 -63 19 -82t76 -19v-24q-49 -16 -236 -90h-14v153q-117 -164 -296 -164t-249 152q-33 70 -33 233v416q0 42 -22 62t-82 20h-10v37h268v-512q0 -152 26 -212t66 -82
q41 -22 107 -21q150 0 225 159v510q0 73 -18 97t-83 24h-10v37h266z" />
    <glyph glyph-name="uacute" unicode="&#xfa;" horiz-adv-x="1101" 
d="M375 1030l289 299q98 98 150 38q19 -22 20 -48q0 -47 -62 -84l-330 -205h-67zM915 895v-694q0 -63 19 -82t76 -19v-24q-49 -16 -236 -90h-14v153q-117 -164 -296 -164t-249 152q-33 70 -33 233v416q0 42 -22 62t-82 20h-10v37h268v-512q0 -152 26 -212t66 -82
q41 -22 107 -21q150 0 225 159v510q0 73 -18 97t-83 24h-10v37h266z" />
    <glyph glyph-name="ucircumflex" unicode="&#xfb;" horiz-adv-x="1101" 
d="M260 1030l232 350h118l232 -350h-58l-233 211l-234 -211h-57zM915 895v-694q0 -63 19 -82t76 -19v-24q-49 -16 -236 -90h-14v153q-117 -164 -296 -164t-249 152q-33 70 -33 233v416q0 42 -22 62t-82 20h-10v37h268v-512q0 -152 26 -212t66 -82q41 -22 107 -21
q150 0 225 159v510q0 73 -18 97t-83 24h-10v37h266z" />
    <glyph glyph-name="udieresis" unicode="&#xfc;" horiz-adv-x="1101" 
d="M713 1286q35 0 67 -28t31 -70q0 -42 -28 -73q-27 -30 -69 -30t-72 29t-30 73q0 43 33 71t68 28zM360 1286q35 0 68 -28t33 -72t-30 -72q-30 -29 -72 -29q-41 0 -69 30t-28 73q0 42 32 70t66 28zM915 895v-694q0 -63 19 -82t76 -19v-24q-49 -16 -236 -90h-14v153
q-117 -164 -296 -164t-249 152q-33 70 -33 233v416q0 42 -22 62t-82 20h-10v37h268v-512q0 -152 26 -212t66 -82q41 -22 107 -21q150 0 225 159v510q0 73 -18 97t-83 24h-10v37h266z" />
    <glyph glyph-name="yacute" unicode="&#xfd;" horiz-adv-x="933" 
d="M291 1030l289 299q98 98 150 38q19 -22 20 -48q0 -47 -62 -84l-330 -205h-67zM-25 858v37h437v-37l-50 -4q-94 -6 -96 -53q0 -12 17 -45l286 -539l172 514q11 27 11 61q1 61 -73 66q-28 2 -75 0v37h346v-37q-81 0 -106 -38t-43 -87l-336 -950q-11 -45 -20 -62
q-9 -15 -17 -39t-13 -31t-16 -26t-30 -36t-45 -24t-57 -7t-53 28t-22 64q0 37 27 57t57 21l70 -11q23 1 39 13t19 20t12 27l86 246l-396 725q-18 35 -30 53q-12 17 -39 37t-62 20z" />
    <glyph glyph-name="thorn" unicode="&#xfe;" horiz-adv-x="1114" 
d="M346 420q0 -205 46 -298t172 -93q126 -1 213 109t87 287t-96 296t-231 119q-93 0 -191 -74v-346zM190 1167q0 61 -16 89t-80 57v24q119 35 238 99h14v-619q129 96 275 96q181 -1 293 -121t112 -327t-136 -347t-343 -141q-102 0 -201 35v-295q0 -78 28 -99t124 -21v-37
h-420v37q76 8 93 21t17 71v10l2 51v1417z" />
    <glyph glyph-name="ydieresis" unicode="&#xff;" horiz-adv-x="933" 
d="M643 1286q35 0 67 -28t32 -70t-28 -73q-28 -30 -70 -30t-72 29t-30 73q0 43 34 71q32 28 67 28zM291 1286q35 0 67 -28t33 -72q0 -44 -30 -72q-29 -29 -71 -29t-70 30t-28 73q0 42 32 70t67 28zM-25 858v37h437v-37l-50 -4q-94 -6 -96 -53q0 -12 17 -45l286 -539l172 514
q11 27 11 61q1 61 -73 66q-28 2 -75 0v37h346v-37q-81 0 -106 -38t-43 -87l-336 -950q-11 -45 -20 -62q-9 -15 -17 -39t-13 -31t-16 -26t-30 -36t-45 -24t-57 -7t-53 28t-22 64q0 37 27 57t57 21l70 -11q23 1 39 13t19 20t12 27l86 246l-396 725q-18 35 -30 53
q-12 17 -39 37t-62 20z" />
    <glyph glyph-name="Amacron" unicode="&#x100;" horiz-adv-x="1236" 
d="M360 1583v125h517v-125h-517zM315 592h439l-228 582zM-59 0v49l69 12q27 4 44 25q18 22 26 34t17 36q9 23 20 45t20 61l352 938q12 37 -6 72l-18 31q100 74 153 157h19l500 -1300q25 -63 57 -88t94 -23v-49h-536v49l63 8q63 10 82 26q18 15 18 44t-14 63l-125 342h-481
l-105 -284q-29 -80 -28 -113q0 -66 117 -82l43 -6v-47h-381z" />
    <glyph glyph-name="amacron" unicode="&#x101;" horiz-adv-x="878" 
d="M182 1122v125h516v-125h-516zM219 238q0 -68 46 -108t119 -40t167 82v309q-164 -59 -254 -123q-78 -52 -78 -120zM690 -18q-62 0 -103 36q-40 36 -42 103q-137 -143 -275 -144q-86 1 -139 51t-53 132q0 141 170 237q113 66 309 135v205q0 123 -115 123q-68 0 -123 -28
t-63 -82q0 -76 -12 -111q-20 -61 -88 -61q-78 0 -78 75q0 66 94 142q160 127 336 127q94 0 150 -49t57 -224v-520q0 -55 41 -55q20 0 36 20q15 20 17 49h39q-4 -77 -50 -119t-108 -42z" />
    <glyph glyph-name="Abreve" unicode="&#x102;" horiz-adv-x="1236" 
d="M618 1661q208 0 240 141h51q-14 -106 -81 -189t-215 -83t-217 98q-53 75 -70 174h51q33 -141 241 -141zM315 592h439l-228 582zM-59 0v49l69 12q27 4 44 25q18 22 26 34t17 36q9 23 20 45t20 61l352 938q12 37 -6 72l-18 31q100 74 153 157h19l500 -1300q25 -63 57 -88
t94 -23v-49h-536v49l63 8q63 10 82 26q18 15 18 44t-14 63l-125 342h-481l-105 -284q-29 -80 -28 -113q0 -66 117 -82l43 -6v-47h-381z" />
    <glyph glyph-name="abreve" unicode="&#x103;" horiz-adv-x="878" 
d="M440 1200q208 0 240 141h51q-14 -106 -81 -189t-214 -83t-218 98q-54 77 -71 174h52q33 -141 241 -141zM219 238q0 -68 46 -108t119 -40t167 82v309q-164 -59 -254 -123q-78 -52 -78 -120zM690 -18q-62 0 -103 36q-40 36 -42 103q-137 -143 -275 -144q-86 1 -139 51
t-53 132q0 141 170 237q113 66 309 135v205q0 123 -115 123q-68 0 -123 -28t-63 -82q0 -76 -12 -111q-20 -61 -88 -61q-78 0 -78 75q0 66 94 142q160 127 336 127q94 0 150 -49t57 -224v-520q0 -55 41 -55q20 0 36 20q15 20 17 49h39q-4 -77 -50 -119t-108 -42z" />
    <glyph glyph-name="Aogonek" unicode="&#x104;" horiz-adv-x="1236" 
d="M315 592h439l-228 582zM-59 0v49l69 12q27 4 44 25q18 22 26 34t17 36q9 23 20 45t20 61l352 938q12 37 -6 72l-18 31q100 74 153 157h19l500 -1300q25 -63 57 -88t94 -23v-49h-104q-143 -119 -144 -236q0 -46 25 -82t78 -36q78 0 117 71l28 -18q-31 -66 -87 -107
t-125 -41q-68 0 -112 39t-44 113t59 158t147 139h-374v49l63 8q63 10 82 26q18 15 18 44t-14 63l-125 342h-481l-105 -284q-29 -80 -28 -113q0 -66 117 -82l43 -6v-47h-381z" />
    <glyph glyph-name="aogonek" unicode="&#x105;" horiz-adv-x="901" 
d="M219 238q0 -68 46 -108t119 -40t167 82v309q-164 -59 -254 -123q-78 -52 -78 -120zM658 -449q-68 0 -112 39t-44 114t54 150t128 128q-59 0 -98 40t-41 99q-137 -143 -275 -144q-86 1 -139 51t-53 132q0 141 170 237q113 66 309 135v205q0 123 -115 123q-68 0 -123 -28
t-63 -82q0 -76 -12 -111q-20 -61 -88 -61q-78 0 -78 75q0 66 94 142q160 127 336 127q94 0 150 -49t57 -224v-520q0 -55 41 -55q20 0 36 20q15 20 17 49h39q-2 -41 -18 -73t-28 -42q-11 -11 -46 -40q-133 -115 -133 -224q1 -46 25 -82t77 -36q78 -1 117 71l28 -18
q-31 -66 -87 -107t-125 -41z" />
    <glyph glyph-name="Cacute" unicode="&#x106;" horiz-adv-x="1458" 
d="M937 1849q36 1 55 -21t20 -48q0 -47 -62 -84l-329 -205h-68l289 299q59 59 95 59zM1339 500v-467h-41l-36 76q-8 14 -18 14t-93 -45q-178 -102 -371 -103q-240 0 -432 152q-260 207 -260 586q0 268 150 463q88 118 230 194t320 76q106 0 156 -14t86 -27q36 -11 52 -21
t46 -24t62 -31q34 -17 53 -16q47 0 62 71h36v-475h-43q-14 154 -90 273q-135 217 -379 217q-87 0 -175 -38q-171 -73 -267 -271q-80 -162 -80 -382t73 -374q72 -154 190 -230t243 -75q246 0 383 202q77 117 104 269h39z" />
    <glyph glyph-name="cacute" unicode="&#x107;" horiz-adv-x="909" 
d="M737 1319q0 -47 -61 -84l-330 -205h-67l288 299q59 59 95 59t56 -21q19 -22 19 -48zM479 -23q-176 1 -290 137q-113 136 -113 344t131 336t285 128t247 -74q94 -74 95 -156q0 -35 -25 -55t-53 -21q-51 0 -72 54q-2 4 -19 66t-34 89q-32 49 -107 49q-116 0 -200 -98
t-84 -280t95 -292q95 -108 218 -108q88 0 158 52q69 53 108 135l31 -15q-50 -131 -150 -211t-221 -80z" />
    <glyph glyph-name="Ccircumflex" unicode="&#x108;" horiz-adv-x="1458" 
d="M465 1491l231 350h119l232 -350h-58l-233 211l-234 -211h-57zM1339 500v-467h-41l-36 76q-8 14 -18 14t-93 -45q-178 -102 -371 -103q-240 0 -432 152q-260 207 -260 586q0 268 150 463q88 118 230 194t320 76q106 0 156 -14t86 -27q36 -11 52 -21t46 -24t62 -31
q34 -17 53 -16q47 0 62 71h36v-475h-43q-14 154 -90 273q-135 217 -379 217q-87 0 -175 -38q-171 -73 -267 -271q-80 -162 -80 -382t73 -374q72 -154 190 -230t243 -75q246 0 383 202q77 117 104 269h39z" />
    <glyph glyph-name="ccircumflex" unicode="&#x109;" horiz-adv-x="909" 
d="M164 1030l231 350h119l231 -350h-57l-233 211l-234 -211h-57zM479 -23q-176 1 -290 137q-113 136 -113 344t131 336t285 128t247 -74q94 -74 95 -156q0 -35 -25 -55t-53 -21q-51 0 -72 54q-2 4 -19 66t-34 89q-32 49 -107 49q-116 0 -200 -98t-84 -280t95 -292
q95 -108 218 -108q88 0 158 52q69 53 108 135l31 -15q-50 -131 -150 -211t-221 -80z" />
    <glyph glyph-name="Ccaron" unicode="&#x10c;" horiz-adv-x="1458" 
d="M479 1841h58l233 -211l234 211h57l-232 -350h-118zM1339 500v-467h-41l-36 76q-8 14 -18 14t-93 -45q-178 -102 -371 -103q-240 0 -432 152q-260 207 -260 586q0 268 150 463q88 118 230 194t320 76q106 0 156 -14t86 -27q36 -11 52 -21t46 -24t62 -31q34 -17 53 -16
q47 0 62 71h36v-475h-43q-14 154 -90 273q-135 217 -379 217q-87 0 -175 -38q-171 -73 -267 -271q-80 -162 -80 -382t73 -374q72 -154 190 -230t243 -75q246 0 383 202q77 117 104 269h39z" />
    <glyph glyph-name="ccaron" unicode="&#x10d;" horiz-adv-x="909" 
d="M164 1380h57l234 -211l233 211h57l-231 -350h-119zM479 -23q-176 1 -290 137q-113 136 -113 344t131 336t285 128t247 -74q94 -74 95 -156q0 -35 -25 -55t-53 -21q-51 0 -72 54q-2 4 -19 66t-34 89q-32 49 -107 49q-116 0 -200 -98t-84 -280t95 -292q95 -108 218 -108
q88 0 158 52q69 53 108 135l31 -15q-50 -131 -150 -211t-221 -80z" />
    <glyph glyph-name="Dcaron" unicode="&#x10e;" horiz-adv-x="1615" 
d="M449 1841h57l233 -211l234 211h57l-231 -350h-119zM113 0v49q120 -11 142 67q7 28 7 39v1092q0 97 -66 118q-32 9 -83 7v49h192q70 0 217 4l246 7q256 0 434 -99q334 -190 334 -614q0 -209 -80 -363t-205 -237q-197 -129 -585 -129l-332 10h-221zM471 1202v-975
q0 -134 54 -164t165 -30t202 19t173 79q248 178 248 578q0 215 -72 358t-164 215q-137 106 -409 107q-143 0 -173 -53q-17 -30 -21 -54t-3 -80z" />
    <glyph glyph-name="dcaron" unicode="&#x10f;" horiz-adv-x="1204" 
d="M1008 1354q0 92 100 92q47 0 82 -44t35 -136q-1 -92 -61 -166t-130 -117l-26 33q135 106 135 166q0 36 -21 51q-6 4 -20 10t-23 10q-72 35 -71 101zM770 504q0 365 -242 364q-122 0 -196 -112t-74 -291q0 -177 91 -281t214 -104t207 94v330zM770 1167q0 39 -3 59t-29 48
q-26 27 -76 35v26q117 31 249 101h19v-1266q0 -50 41 -68q20 -8 53 -16v-23q-160 -49 -233 -77h-19v135q-123 -145 -284 -145q-162 0 -280 124q-118 125 -118 342t123 345t317 128q103 0 240 -43v295z" />
    <glyph glyph-name="Dcroat" unicode="&#x110;" horiz-adv-x="1615" 
d="M113 0v49q100 4 125 32t24 116v497h-262v70h262v483q0 73 -30 97t-119 28v49h192l471 11q356 0 558 -195t202 -528q0 -190 -75 -344t-210 -246q-190 -129 -585 -129l-424 10h-129zM471 694v-467q0 -113 41 -153t160 -41q258 0 384 91t191 241q66 150 66 341
q-1 192 -63 340t-185 245t-397 98q-127 0 -162 -37t-35 -150v-438h403v-70h-403z" />
    <glyph glyph-name="dcroat" unicode="&#x111;" horiz-adv-x="1110" 
d="M770 504q0 365 -242 364q-122 0 -196 -112t-74 -291q0 -177 91 -281t214 -104t207 94v330zM770 1147v20q0 39 -3 59t-29 48q-26 27 -76 35v26q117 31 249 101h19v-289h207v-72h-207v-905q0 -50 41 -68q20 -8 53 -16v-23q-160 -49 -233 -77h-19v135q-123 -145 -284 -145
q-162 0 -280 124q-118 125 -118 342t123 345t317 128q102 0 240 -43v203h-319v72h319z" />
    <glyph glyph-name="Emacron" unicode="&#x112;" horiz-adv-x="1323" 
d="M403 1583v125h517v-125h-517zM113 0v47q96 -6 129 29q20 20 20 106v1051q0 87 -20 113t-97 26h-32v49h1028l102 -325l-43 -17q-104 180 -188 235t-202 59q-34 1 -130 1h-209v-624h107q178 0 239 45q43 31 69 93t29 122h35v-570h-35q-4 55 -29 120q-26 65 -69 95
q-61 45 -239 45h-107v-499q0 -94 32 -124t136 -30h125q168 0 258 53q55 33 123 117t110 166l39 -12l-75 -371h-1106z" />
    <glyph glyph-name="emacron" unicode="&#x113;" horiz-adv-x="995" 
d="M240 1122v125h516v-125h-516zM618 662q70 0 70 61q0 67 -54 109t-139 42t-153 -57t-92 -155h368zM864 608h-622q-14 -100 -15 -151q-1 -150 99 -251t249 -102q105 0 189 58t125 155l39 -12q-45 -154 -162 -243q-118 -89 -276 -89t-287 120t-129 335t124 353t328 139
q152 0 264 -88t111 -183q0 -25 -7 -33t-30 -8z" />
    <glyph glyph-name="Edotaccent" unicode="&#x116;" horiz-adv-x="1323" 
d="M762 1647q0 -41 -30 -71t-70 -30t-71 30q-30 30 -30 71t30 71t70 29q41 1 71 -29t30 -71zM113 0v47q96 -6 129 29q20 20 20 106v1051q0 87 -20 113t-97 26h-32v49h1028l102 -325l-43 -17q-104 180 -188 235t-202 59q-34 1 -130 1h-209v-624h107q178 0 239 45q43 31 69 93
t29 122h35v-570h-35q-4 55 -29 120q-26 65 -69 95q-61 45 -239 45h-107v-499q0 -94 32 -124t136 -30h125q168 0 258 53q55 33 123 117t110 166l39 -12l-75 -371h-1106z" />
    <glyph glyph-name="edotaccent" unicode="&#x117;" horiz-adv-x="995" 
d="M397 1186q0 40 30 70t70 30q41 0 71 -30t30 -71q0 -40 -30 -70t-70 -30t-71 30q-30 30 -30 71zM618 662q70 0 70 61q0 67 -54 109t-139 42t-153 -57t-92 -155h368zM864 608h-622q-14 -100 -15 -151q-1 -150 99 -251t249 -102q105 0 189 58t125 155l39 -12
q-45 -154 -162 -243q-118 -89 -276 -89t-287 120t-129 335t124 353t328 139q152 0 264 -88t111 -183q0 -25 -7 -33t-30 -8z" />
    <glyph glyph-name="Eogonek" unicode="&#x118;" horiz-adv-x="1323" 
d="M113 0v47q96 -6 129 29q20 20 20 106v1051q0 87 -20 113t-97 26h-32v49h1028l102 -325l-43 -17q-104 180 -188 235t-202 59q-34 1 -130 1h-209v-624h107q178 0 239 45q43 31 69 93t29 122h35v-570h-35q-4 55 -29 120q-26 65 -69 95q-61 45 -239 45h-107v-499
q0 -94 32 -124t136 -30h125q168 0 258 53q55 33 123 117t110 166l39 -12l-75 -371h-64q-143 -119 -143 -236q0 -46 24 -82t78 -36q78 0 117 71l29 -18q-32 -66 -88 -107t-124 -41t-113 39q-44 39 -44 113t59 158t148 139h-985z" />
    <glyph glyph-name="eogonek" unicode="&#x119;" horiz-adv-x="995" 
d="M618 662q70 0 70 61q0 67 -54 109t-139 42t-153 -57t-92 -155h368zM864 608h-622q-14 -100 -15 -151q-1 -150 99 -251t249 -102q105 0 189 58t125 155l39 -12q-49 -133 -136 -215q-32 -29 -92 -74q-172 -129 -172 -252q0 -46 25 -82t78 -36q78 0 117 71l28 -18
q-31 -66 -87 -107t-125 -41q-68 0 -112 39t-44 114t54 150t128 128q-213 -41 -365 91q-151 132 -151 351t124 357t328 139q152 0 264 -88t111 -183q0 -25 -7 -33t-30 -8z" />
    <glyph glyph-name="Ecaron" unicode="&#x11a;" horiz-adv-x="1323" 
d="M371 1841h57l234 -211l233 211h57l-231 -350h-119zM113 0v47q96 -6 129 29q20 20 20 106v1051q0 87 -20 113t-97 26h-32v49h1028l102 -325l-43 -17q-104 180 -188 235t-202 59q-34 1 -130 1h-209v-624h107q178 0 239 45q43 31 69 93t29 122h35v-570h-35q-4 55 -29 120
q-26 65 -69 95q-61 45 -239 45h-107v-499q0 -94 32 -124t136 -30h125q168 0 258 53q55 33 123 117t110 166l39 -12l-75 -371h-1106z" />
    <glyph glyph-name="ecaron" unicode="&#x11b;" horiz-adv-x="995" 
d="M207 1380h57l234 -211l233 211h57l-231 -350h-119zM618 662q70 0 70 61q0 67 -54 109t-139 42t-153 -57t-92 -155h368zM864 608h-622q-14 -100 -15 -151q-1 -150 99 -251t249 -102q105 0 189 58t125 155l39 -12q-45 -154 -162 -243q-118 -89 -276 -89t-287 120t-129 335
t124 353t328 139q152 0 264 -88t111 -183q0 -25 -7 -33t-30 -8z" />
    <glyph glyph-name="Gcircumflex" unicode="&#x11c;" horiz-adv-x="1505" 
d="M487 1491l232 350h119l231 -350h-57l-234 211l-233 -211h-58zM1126 352v154q0 93 -31 109q-19 11 -35 13t-56 1h-46v49h529v-51h-14q-51 0 -69 -2q-18 -3 -40 -17q-20 -14 -24 -43t-5 -86v-321q-303 -182 -551 -182t-436 151q-260 207 -260 582q0 329 210 533t490 204
q109 0 196 -29t164 -66q77 -38 95 -38q51 0 62 71h32l17 -401h-45q-33 209 -171 312t-302 103t-309 -121q-85 -73 -140 -190q-80 -166 -80 -376q0 -211 73 -377q74 -166 190 -237t245 -71t220 94q91 93 91 232z" />
    <glyph glyph-name="gcircumflex" unicode="&#x11d;" horiz-adv-x="964" 
d="M193 1030l231 350h119l231 -350h-57l-234 211l-233 -211h-57zM610 -63h-172q-102 0 -166 24q-96 -53 -96 -170q0 -199 291 -199q391 0 391 191q0 154 -248 154zM647 617q0 125 -49 191t-128 66t-128 -66t-49 -190q0 -126 49 -190t127 -64t128 64q50 63 50 189zM457 -455
q-406 0 -406 217q1 76 57 134t130 88q-113 57 -113 163q0 61 45 119t104 94q-133 88 -133 238t90 236q89 86 235 86t257 -84q76 68 147 67q45 1 67 -23q21 -24 21 -53t-17 -44t-39 -15t-57 26q-36 26 -64 26t-38 -9q61 -92 61 -211t-93 -202q-94 -83 -240 -83q-63 0 -162 25
q-86 -41 -86 -125q0 -93 119 -113q72 -10 162 -10l110 -2q350 -6 351 -248q0 -297 -508 -297z" />
    <glyph glyph-name="Gbreve" unicode="&#x11e;" horiz-adv-x="1505" 
d="M788 1661q208 0 240 141h51q-14 -106 -81 -189t-215 -83t-217 98q-53 75 -70 174h51q33 -141 241 -141zM1126 352v154q0 93 -31 109q-19 11 -35 13t-56 1h-46v49h529v-51h-14q-51 0 -69 -2q-18 -3 -40 -17q-20 -14 -24 -43t-5 -86v-321q-303 -182 -551 -182t-436 151
q-260 207 -260 582q0 329 210 533t490 204q109 0 196 -29t164 -66q77 -38 95 -38q51 0 62 71h32l17 -401h-45q-33 209 -171 312t-302 103t-309 -121q-85 -73 -140 -190q-80 -166 -80 -376q0 -211 73 -377q74 -166 190 -237t245 -71t220 94q91 93 91 232z" />
    <glyph glyph-name="gbreve" unicode="&#x11f;" horiz-adv-x="964" 
d="M484 1200q208 0 239 141h51q-14 -106 -81 -189t-214 -83t-218 98q-54 77 -71 174h52q34 -141 242 -141zM610 -63h-172q-102 0 -166 24q-96 -53 -96 -170q0 -199 291 -199q391 0 391 191q0 154 -248 154zM647 617q0 125 -49 191t-128 66t-128 -66t-49 -190q0 -126 49 -190
t127 -64t128 64q50 63 50 189zM457 -455q-406 0 -406 217q1 76 57 134t130 88q-113 57 -113 163q0 61 45 119t104 94q-133 88 -133 238t90 236q89 86 235 86t257 -84q76 68 147 67q45 1 67 -23q21 -24 21 -53t-17 -44t-39 -15t-57 26q-36 26 -64 26t-38 -9q61 -92 61 -211
t-93 -202q-94 -83 -240 -83q-63 0 -162 25q-86 -41 -86 -125q0 -93 119 -113q72 -10 162 -10l110 -2q350 -6 351 -248q0 -297 -508 -297z" />
    <glyph glyph-name="Gcommaaccent" unicode="&#x122;" horiz-adv-x="1505" 
d="M688 -184q0 92 100 92q46 0 82 -44q35 -44 35 -136t-60 -166t-130 -117l-27 33q135 106 135 166q0 36 -13 46q-14 9 -28 15q-94 39 -94 111zM1126 352v154q0 93 -31 109q-19 11 -35 13t-56 1h-46v49h529v-51h-14q-51 0 -69 -2q-18 -3 -40 -17q-20 -14 -24 -43t-5 -86
v-321q-303 -182 -551 -182t-436 151q-260 207 -260 582q0 329 210 533t490 204q109 0 196 -29t164 -66q77 -38 95 -38q51 0 62 71h32l17 -401h-45q-33 209 -171 312t-302 103t-309 -121q-85 -73 -140 -190q-80 -166 -80 -376q0 -211 73 -377q74 -166 190 -237t245 -71
t220 94q91 93 91 232z" />
    <glyph glyph-name="gcommaaccent" unicode="&#x123;" horiz-adv-x="964" 
d="M430 1266q0 -27 15 -37t49 -25q72 -35 72 -91t-28 -79q-26 -22 -73 -22t-82 44t-35 136t60 166t131 117l26 -33q-135 -106 -135 -176zM610 -63h-172q-102 0 -166 24q-96 -53 -96 -170q0 -199 291 -199q391 0 391 191q0 154 -248 154zM647 617q0 125 -49 191t-128 66
t-128 -66t-49 -190q0 -126 49 -190t127 -64t128 64q50 63 50 189zM457 -455q-406 0 -406 217q1 76 57 134t130 88q-113 57 -113 163q0 61 45 119t104 94q-133 88 -133 238t90 236q89 86 235 86t257 -84q76 68 147 67q45 1 67 -23q21 -24 21 -53t-17 -44t-39 -15t-57 26
q-36 26 -64 26t-38 -9q61 -92 61 -211t-93 -202q-94 -83 -240 -83q-63 0 -162 25q-86 -41 -86 -125q0 -93 119 -113q72 -10 162 -10l110 -2q350 -6 351 -248q0 -297 -508 -297z" />
    <glyph glyph-name="Hcircumflex" unicode="&#x124;" horiz-adv-x="1679" 
d="M549 1491l231 350h119l231 -350h-57l-233 211l-234 -211h-57zM115 1421h526v-47h-41q-45 0 -60 -1q-16 -1 -36 -12t-26 -37t-5 -73v-493h735v493q0 47 -5 73q-9 46 -61 49q-15 1 -61 1h-41v47h527v-49h-19q-78 0 -104 -19t-27 -77v-1129q0 -53 26 -75t109 -23h17v-49
h-529v47h39q47 0 61 1t37 12q22 11 26 37q5 26 5 75v530h-735v-530q0 -49 5 -75t27 -37t36 -12t61 -1h39v-47h-528v49h16q84 0 110 23t25 75v1129q0 57 -26 77q-27 19 -105 19h-18v49z" />
    <glyph glyph-name="hcircumflex" unicode="&#x125;" horiz-adv-x="1007" 
d="M-23 1401l232 350h119l231 -350h-57l-234 211l-233 -211h-58zM82 0v39q66 -6 96 35q16 23 17 116v977q0 39 -5 61q-4 22 -26 46t-64 39v24q141 43 236 99h12v-678q121 164 291 164t229 -121q60 -121 60 -297v-363q0 -63 20 -86t92 -16v-39h-372v39q26 -2 54 6t38 25
q14 18 14 96v344q0 160 -39 240t-155 79q-70 0 -133 -37q-62 -38 -99 -108v-526q0 -78 14 -94t47 -22q32 -7 52 -3v-39h-379z" />
    <glyph glyph-name="Imacron" unicode="&#x12a;" horiz-adv-x="772" 
d="M129 1583v125h516v-125h-516zM659 1421v-47h-41q-45 0 -60 -1q-16 -1 -36 -12t-25 -37t-5 -73v-1079q0 -82 18 -104t115 -21h34v-47h-546v47h28q103 0 123 30q17 23 17 63v1130q0 55 -17 80q-17 24 -112 24h-39v47h546z" />
    <glyph glyph-name="imacron" unicode="&#x12b;" horiz-adv-x="561" 
d="M23 1122v125h516v-125h-516zM365 920v-762q-1 -76 21 -101t91 -18v-39h-387v39q74 -4 92 28t19 123v461q0 39 -4 61t-26 46t-65 39v24q127 39 236 99h23z" />
    <glyph glyph-name="Iogonek" unicode="&#x12e;" horiz-adv-x="772" 
d="M659 1421v-47h-41q-45 0 -60 -1q-16 -1 -36 -12t-25 -37t-5 -73v-1079q0 -82 18 -104t115 -21h34v-47h-63q-143 -119 -143 -236q1 -46 25 -82t77 -36q78 0 117 71l28 -18q-31 -66 -87 -107t-125 -41q-68 0 -112 39t-44 113t59 158t148 139h-426v47h28q103 0 123 30
q17 23 17 63v1130q0 55 -17 80q-17 24 -112 24h-39v47h546z" />
    <glyph glyph-name="iogonek" unicode="&#x12f;" horiz-adv-x="561" 
d="M379 1327q0 -41 -32 -73t-76 -32q-45 0 -75 32t-30 77t30 75t78 30t76 -34q29 -34 29 -75zM365 920v-762q0 -78 14 -92t45 -22q31 -7 53 -5v-39h-69q-143 -119 -144 -236q0 -46 25 -82t78 -36q78 0 116 71l29 -18q-33 -68 -89 -108t-124 -40t-112 40t-44 113
q-1 73 59 157t148 139h-260v39q62 -6 86 22t25 129v461q0 63 -21 95t-74 51v24q127 39 236 99h23z" />
    <glyph glyph-name="Idotaccent" unicode="&#x130;" horiz-adv-x="772" 
d="M487 1647q1 -41 -29 -71t-71 -30t-71 30t-29 71q-1 41 29 71t70 29q40 1 70 -29t31 -71zM659 1421v-47h-41q-45 0 -60 -1q-16 -1 -36 -12t-25 -37t-5 -73v-1079q0 -82 18 -104t115 -21h34v-47h-546v47h28q103 0 123 30q17 23 17 63v1130q0 55 -17 80q-17 24 -112 24h-39
v47h546z" />
    <glyph glyph-name="dotlessi" unicode="&#x131;" horiz-adv-x="561" 
d="M365 920v-762q-1 -76 21 -101t91 -18v-39h-387v39q74 -4 92 28t19 123v461q0 39 -4 61t-26 46t-65 39v24q127 39 236 99h23z" />
    <glyph glyph-name="Jcircumflex" unicode="&#x134;" horiz-adv-x="763" 
d="M102 1491l232 350h119l231 -350h-57l-234 211l-233 -211h-58zM299 -143v1368q0 57 -6 88t-29 43t-38 14t-64 2h-27v49h541v-49h-68q-51 0 -55 -7q-5 -7 -19 -20t-14 -94v-954q0 -254 -54 -384t-145 -189q-91 -60 -181 -60t-132 36q-43 36 -43 86t27 81t71 31
q78 0 130 -113q25 -59 53 -59q53 0 53 131z" />
    <glyph glyph-name="jcircumflex" unicode="&#x135;" horiz-adv-x="493" 
d="M-43 1030l231 350h119l232 -350h-58l-233 211l-234 -211h-57zM346 920v-889q0 -248 -85 -363t-208 -114q-63 0 -106 30t-43 72q0 43 21 62q22 19 52 20q58 0 121 -84q23 -31 39 -31q53 0 51 146v882q0 59 -18 91t-78 55v24q141 43 236 99h18z" />
    <glyph glyph-name="Kcommaaccent" unicode="&#x136;" horiz-adv-x="1339" 
d="M592 -184q0 92 100 92q47 0 82 -44t35 -136q-1 -92 -61 -166t-130 -117l-26 33q135 106 135 166q0 36 -13 46q-14 9 -28 15q-94 39 -94 111zM653 1421v-47q-123 12 -151 -18t-29 -105v-553l428 461q90 96 90 146q0 70 -149 69v47h483v-47q-92 -2 -165 -51t-206 -190
l-274 -291l534 -697q41 -53 79 -75t108 -23v-47h-326l-540 684l-62 -61v-451q0 -49 5 -75t27 -37t36 -12t59 -1h53v-47h-540v47q31 -2 73 6q42 7 58 25q18 18 18 104v1059q0 82 -20 105q-33 33 -129 28v47h540z" />
    <glyph glyph-name="kcommaaccent" unicode="&#x137;" horiz-adv-x="1067" 
d="M401 -194q0 102 101 102q47 0 82 -44q34 -44 34 -136t-60 -166t-130 -117l-27 33q135 104 135 166q0 36 -20 51q-6 4 -20 10t-23 10q-72 35 -72 91zM80 0v39q61 -5 87 21t26 130v977q-1 61 -19 93t-76 53v24q121 39 236 99h14v-928l295 225q47 35 47 65t-44 39
q-25 5 -30 5l-92 16v37h455v-37q-137 -33 -223 -100l-207 -162l342 -434q92 -121 199 -123v-39h-463v39l51 6q59 10 59 43q0 14 -14 33l-293 389l-82 -64v-288q0 -78 22 -101t89 -18v-39h-379z" />
    <glyph glyph-name="Lacute" unicode="&#x139;" horiz-adv-x="1372" 
d="M720 1849q36 1 55 -21t20 -48q0 -47 -62 -84l-330 -205h-67l289 299q59 59 95 59zM113 0v49h14q86 0 111 23t24 118v1043q0 87 -22 113t-113 26h-14v49h540v-47q-113 4 -153 -33q-29 -29 -29 -139v-1001q0 -96 33 -125t145 -29h135q184 0 289 70q63 43 137 142t121 198
h45l-114 -457h-1149z" />
    <glyph glyph-name="lacute" unicode="&#x13a;" horiz-adv-x="555" 
d="M458 1853q36 1 55 -21t19 -48q0 -47 -61 -84l-330 -205h-67l288 299q60 59 96 59zM358 1436v-1278q0 -78 22 -101t89 -18v-39h-379v39q68 -4 96 33q16 23 17 118v977q-1 61 -19 93t-75 53v24q123 37 235 99h14z" />
    <glyph glyph-name="Lcommaaccent" unicode="&#x13b;" horiz-adv-x="1372" 
d="M555 -184q1 92 101 92q46 0 81 -44t35 -136t-60 -166t-130 -117l-27 33q135 106 135 166q0 36 -13 46q-13 9 -27 15q-94 39 -95 111zM113 0v49h14q86 0 111 23t24 118v1043q0 87 -22 113t-113 26h-14v49h540v-47q-113 4 -153 -33q-29 -29 -29 -139v-1001q0 -96 33 -125
t145 -29h135q184 0 289 70q63 43 137 142t121 198h45l-114 -457h-1149z" />
    <glyph glyph-name="lcommaaccent" unicode="&#x13c;" horiz-adv-x="555" 
d="M145 -194q0 102 101 102q47 0 82 -44q34 -44 34 -136t-60 -166t-130 -117l-27 33q135 104 135 166q0 36 -20 51q-6 4 -20 10t-23 10q-72 35 -72 91zM358 1436v-1278q0 -78 22 -101t89 -18v-39h-379v39q68 -4 96 33q16 23 17 118v977q-1 61 -19 93t-75 53v24
q123 37 235 99h14z" />
    <glyph glyph-name="Lcaron" unicode="&#x13d;" horiz-adv-x="1372" 
d="M1057 1354q0 92 100 92q47 0 82 -44t35 -136t-60 -166t-131 -117l-26 33q135 106 135 166q0 36 -21 51q-6 4 -20 10t-23 10q-72 35 -71 101zM113 0v49h14q86 0 111 23t24 118v1043q0 87 -22 113t-113 26h-14v49h540v-47q-113 4 -153 -33q-29 -29 -29 -139v-1001
q0 -96 33 -125t145 -29h135q184 0 289 70q63 43 137 142t121 198h45l-114 -457h-1149z" />
    <glyph glyph-name="lcaron" unicode="&#x13e;" horiz-adv-x="622" 
d="M426 1358q0 92 100 92q46 0 82 -44q35 -44 35 -136t-60 -166t-130 -117l-27 33q135 106 135 176q0 27 -13 36q-14 9 -28 15q-94 39 -94 111zM358 1436v-1278q0 -78 22 -101t89 -18v-39h-379v39q68 -4 96 33q16 23 17 118v977q-1 61 -19 93t-75 53v24q123 37 235 99h14z
" />
    <glyph glyph-name="Lslash" unicode="&#x141;" horiz-adv-x="1372" 
d="M113 0v49h14q94 0 115 26q20 26 20 115v365l-231 -162v78l231 164v598q0 88 -20 114t-115 25h-14v49h540v-47q-123 -2 -153 -32t-29 -140v-461l348 242v-82l-348 -239v-461q0 -98 34 -126t144 -28h135q203 0 308 82q104 82 239 328h45l-114 -457h-1149z" />
    <glyph glyph-name="lslash" unicode="&#x142;" horiz-adv-x="555" 
d="M358 158q0 -74 18 -97t93 -22v-39h-379v39q76 2 94 31t19 120v428l-203 -143v72l203 143v477q-1 61 -17 90t-77 56v24q121 37 235 99h14v-670l197 137v-72l-197 -137v-536z" />
    <glyph glyph-name="Nacute" unicode="&#x143;" horiz-adv-x="1656" 
d="M1035 1849q36 0 56 -21q19 -22 19 -48q0 -47 -61 -84l-330 -205h-68l289 299q59 59 95 59zM51 1421h320l991 -1104v867q0 114 -36 154t-109 40h-43v43h432v-43h-41q-72 0 -108 -41t-36 -153v-1200h-41l-1077 1226v-938q0 -125 37 -177t109 -52h43v-43h-433v43h41
q74 0 109 48t35 181v1002l-90 69q-47 31 -103 35v43z" />
    <glyph glyph-name="nacute" unicode="&#x144;" horiz-adv-x="1114" 
d="M381 1030l289 299q98 98 150 38q19 -22 20 -48q0 -47 -62 -84l-329 -205h-68zM90 0v39q74 0 93 20t20 107v485q0 39 -4 61t-26 46t-64 39v24q121 37 233 99h18l-4 -162q123 164 297 164t240 -152q41 -100 41 -266v-389q0 -43 18 -59t97 -17v-39h-375v39q72 0 89 17t17 59
v438q0 113 -28 176q-47 100 -166 100q-150 0 -230 -145v-526q0 -76 22 -102t89 -17v-39h-377z" />
    <glyph glyph-name="Ncommaaccent" unicode="&#x145;" horiz-adv-x="1656" 
d="M696 -194q0 102 100 102q46 0 82 -44t36 -136t-61 -166q-60 -74 -130 -117l-27 33q135 106 135 166q0 36 -13 46q-13 9 -27 15t-23 10q-72 35 -72 91zM51 1421h320l991 -1104v867q0 114 -36 154t-109 40h-43v43h432v-43h-41q-72 0 -108 -41t-36 -153v-1200h-41
l-1077 1226v-938q0 -125 37 -177t109 -52h43v-43h-433v43h41q74 0 109 48t35 181v1002l-90 69q-47 31 -103 35v43z" />
    <glyph glyph-name="ncommaaccent" unicode="&#x146;" horiz-adv-x="1114" 
d="M426 -184q0 92 100 92q46 0 82 -44q35 -44 35 -136t-60 -166t-130 -117l-27 33q135 106 135 166q0 36 -13 46q-14 9 -28 15q-94 39 -94 111zM90 0v39q74 0 93 20t20 107v485q0 39 -4 61t-26 46t-64 39v24q121 37 233 99h18l-4 -162q123 164 297 164t240 -152
q41 -100 41 -266v-389q0 -43 18 -59t97 -17v-39h-375v39q72 0 89 17t17 59v438q0 113 -28 176q-47 100 -166 100q-150 0 -230 -145v-526q0 -76 22 -102t89 -17v-39h-377z" />
    <glyph glyph-name="Ncaron" unicode="&#x147;" horiz-adv-x="1656" 
d="M537 1841h57l233 -211l234 211h57l-231 -350h-119zM51 1421h320l991 -1104v867q0 114 -36 154t-109 40h-43v43h432v-43h-41q-72 0 -108 -41t-36 -153v-1200h-41l-1077 1226v-938q0 -125 37 -177t109 -52h43v-43h-433v43h41q74 0 109 48t35 181v1002l-90 69
q-47 31 -103 35v43z" />
    <glyph glyph-name="ncaron" unicode="&#x148;" horiz-adv-x="1114" 
d="M266 1380h58l233 -211l234 211h57l-232 -350h-118zM90 0v39q74 0 93 20t20 107v485q0 39 -4 61t-26 46t-64 39v24q121 37 233 99h18l-4 -162q123 164 297 164t240 -152q41 -100 41 -266v-389q0 -43 18 -59t97 -17v-39h-375v39q72 0 89 17t17 59v438q0 113 -28 176
q-47 100 -166 100q-150 0 -230 -145v-526q0 -76 22 -102t89 -17v-39h-377z" />
    <glyph glyph-name="Omacron" unicode="&#x14c;" horiz-adv-x="1564" 
d="M524 1583v125h516v-125h-516zM305 706q0 -330 141 -506t338 -175q196 0 338 177t142 510t-140 511t-337 178q-198 0 -340 -182q-142 -183 -142 -513zM780 1446q304 0 502 -206q197 -206 197 -531q0 -326 -194 -530t-502 -204q-307 0 -501 213q-194 214 -194 530t194 522
t498 206z" />
    <glyph glyph-name="omacron" unicode="&#x14d;" horiz-adv-x="983" 
d="M233 1122v125h517v-125h-517zM496 870q-104 0 -180 -98t-74 -324q0 -226 74 -325q75 -98 168 -98t168 81q40 44 65 132t24 211q0 213 -70 317q-71 104 -175 104zM72 450q0 212 115 341t305 129t306 -129t116 -339t-116 -343q-114 -133 -304 -133t-307 130
q-115 132 -115 344z" />
    <glyph glyph-name="Obreve" unicode="&#x14e;" horiz-adv-x="1564" 
d="M782 1661q208 0 240 141h51q-14 -106 -81 -189t-215 -83t-217 98q-54 77 -71 174h52q33 -141 241 -141zM305 706q0 -330 141 -506t338 -175q196 0 338 177t142 510t-140 511t-337 178q-198 0 -340 -182q-142 -183 -142 -513zM780 1446q304 0 502 -206q197 -206 197 -531
q0 -326 -194 -530t-502 -204q-307 0 -501 213q-194 214 -194 530t194 522t498 206z" />
    <glyph glyph-name="obreve" unicode="&#x14f;" horiz-adv-x="983" 
d="M492 1200q209 0 239 141h51q-14 -106 -81 -189t-214 -83t-218 98q-53 75 -70 174h51q33 -141 242 -141zM496 870q-104 0 -180 -98t-74 -324q0 -226 74 -325q75 -98 168 -98t168 81q40 44 65 132t24 211q0 213 -70 317q-71 104 -175 104zM72 450q0 212 115 341t305 129
t306 -129t116 -339t-116 -343q-114 -133 -304 -133t-307 130q-115 132 -115 344z" />
    <glyph glyph-name="Ohungarumlaut" unicode="&#x150;" horiz-adv-x="1564" 
d="M1167 1782q0 -31 -41 -74l-202 -217h-60l144 281q41 80 92 79q27 0 47 -19t20 -50zM590 1491l143 281q41 80 92 79q27 0 47 -19q48 -46 -20 -124l-205 -217h-57zM305 706q0 -330 141 -506t338 -175q196 0 338 177t142 510t-140 511t-337 178q-198 0 -340 -182
q-142 -183 -142 -513zM780 1446q304 0 502 -206q197 -206 197 -531q0 -326 -194 -530t-502 -204q-307 0 -501 213q-194 214 -194 530t194 522t498 206z" />
    <glyph glyph-name="ohungarumlaut" unicode="&#x151;" horiz-adv-x="983" 
d="M809 1391q27 1 47 -19q51 -50 -20 -125l-203 -217h-60l144 281q41 80 92 80zM535 1391q27 1 47 -19t20 -49t-41 -76l-205 -217h-57l143 281q41 80 93 80zM496 870q-104 0 -180 -98t-74 -324q0 -226 74 -325q75 -98 168 -98t168 81q40 44 65 132t24 211q0 213 -70 317
q-71 104 -175 104zM72 450q0 212 115 341t305 129t306 -129t116 -339t-116 -343q-114 -133 -304 -133t-307 130q-115 132 -115 344z" />
    <glyph glyph-name="OE" unicode="&#x152;" horiz-adv-x="2193" 
d="M1130 379v751q0 264 -358 265q-227 0 -345 -177t-118 -522q0 -678 490 -678q193 0 262 86t69 275zM1516 1374h-175v-624h105q174 0 245 48t93 212h37v-570h-37q-23 164 -93 212q-71 48 -245 48h-105v-499q0 -96 32 -125t136 -29h125q178 0 275 68q96 68 217 268l37 -12
l-76 -371h-889q-129 0 -275 -11t-167 -12q-311 0 -490 200q-178 200 -178 537q0 336 174 530t473 194l412 -17h864l100 -325l-40 -17q-117 184 -197 236q-61 41 -138 50t-220 9z" />
    <glyph glyph-name="oe" unicode="&#x153;" horiz-adv-x="1660" 
d="M1284 657q70 1 70 63t-52 105t-140 43t-154 -56t-93 -155h369zM1167 -25q-213 0 -340 168q-131 -168 -327 -168t-313 129q-115 130 -115 344t115 343q116 129 305 129q225 0 344 -179q125 174 356 174q154 0 264 -90t111 -180q0 -43 -37 -43h-627q-10 -57 -10 -129
q0 -160 100 -264t246 -105q109 0 193 56t122 155l39 -12q-49 -154 -163 -241t-263 -87zM493 25q113 1 181 111t67 313q1 203 -67 313t-182 108q-114 0 -183 -112q-67 -112 -67 -313q0 -202 68 -311t183 -109z" />
    <glyph glyph-name="Racute" unicode="&#x154;" horiz-adv-x="1359" 
d="M792 1849q36 1 55 -21t19 -48q0 -47 -61 -84l-330 -205h-67l288 299q60 59 96 59zM442 172q0 -95 67 -116q32 -9 81 -9h31v-47h-539v49h14q86 0 112 22t25 128v1026q0 57 -4 86t-24 43q-21 14 -39 16t-70 2h-14v49l389 2q166 0 282 -14t211 -55q189 -82 189 -324
q0 -137 -83 -236t-234 -128q135 -125 276 -383l64 -115q76 -133 206 -123v-45h-344l-90 170q-195 365 -354 446q-75 40 -152 31v-475zM442 1241v-551q72 -4 107 -4q160 0 248 53q139 84 139 298t-154 298q-78 43 -187 43t-131 -41q-22 -42 -22 -96z" />
    <glyph glyph-name="racute" unicode="&#x155;" horiz-adv-x="688" 
d="M168 1030l289 299q98 98 150 38q19 -22 20 -48q0 -47 -62 -84l-329 -205h-68zM90 0v39q61 -4 87 25t26 126v461q-1 59 -19 91t-78 55v24q141 47 236 99h14v-148q36 62 94 108t116 46t84 -30t26 -68t-20 -58t-53 -20q-31 0 -65 17t-63 17q-80 0 -119 -88v-538
q0 -76 27 -100t117 -19v-39h-410z" />
    <glyph glyph-name="Rcommaaccent" unicode="&#x156;" horiz-adv-x="1359" 
d="M549 -184q0 92 100 92q47 0 82 -44t35 -136t-60 -166t-131 -117l-26 33q135 106 135 166q0 36 -13 46q-13 9 -27 15q-94 39 -95 111zM442 172q0 -95 67 -116q32 -9 81 -9h31v-47h-539v49h14q86 0 112 22t25 128v1026q0 57 -4 86t-24 43q-21 14 -39 16t-70 2h-14v49l389 2
q166 0 282 -14t211 -55q189 -82 189 -324q0 -137 -83 -236t-234 -128q135 -125 276 -383l64 -115q76 -133 206 -123v-45h-344l-90 170q-195 365 -354 446q-75 40 -152 31v-475zM442 1241v-551q72 -4 107 -4q160 0 248 53q139 84 139 298t-154 298q-78 43 -187 43t-131 -41
q-22 -42 -22 -96z" />
    <glyph glyph-name="rcommaaccent" unicode="&#x157;" horiz-adv-x="688" 
d="M178 -184q0 92 100 92q46 0 82 -44q35 -44 35 -136t-60 -166t-130 -117l-27 33q135 106 135 166q0 36 -13 46q-14 9 -28 15q-94 39 -94 111zM90 0v39q61 -4 87 25t26 126v461q-1 59 -19 91t-78 55v24q141 47 236 99h14v-148q36 62 94 108t116 46t84 -30t26 -68t-20 -58
t-53 -20q-31 0 -65 17t-63 17q-80 0 -119 -88v-538q0 -76 27 -100t117 -19v-39h-410z" />
    <glyph glyph-name="Rcaron" unicode="&#x158;" horiz-adv-x="1359" 
d="M322 1841h57l233 -211l234 211h57l-231 -350h-119zM442 172q0 -95 67 -116q32 -9 81 -9h31v-47h-539v49h14q86 0 112 22t25 128v1026q0 57 -4 86t-24 43q-21 14 -39 16t-70 2h-14v49l389 2q166 0 282 -14t211 -55q189 -82 189 -324q0 -137 -83 -236t-234 -128
q135 -125 276 -383l64 -115q76 -133 206 -123v-45h-344l-90 170q-195 365 -354 446q-75 40 -152 31v-475zM442 1241v-551q72 -4 107 -4q160 0 248 53q139 84 139 298t-154 298q-78 43 -187 43t-131 -41q-22 -42 -22 -96z" />
    <glyph glyph-name="rcaron" unicode="&#x159;" horiz-adv-x="688" 
d="M31 1380h57l234 -211l233 211h57l-231 -350h-119zM90 0v39q61 -4 87 25t26 126v461q-1 59 -19 91t-78 55v24q141 47 236 99h14v-148q36 62 94 108t116 46t84 -30t26 -68t-20 -58t-53 -20q-31 0 -65 17t-63 17q-80 0 -119 -88v-538q0 -76 27 -100t117 -19v-39h-410z" />
    <glyph glyph-name="Sacute" unicode="&#x15a;" horiz-adv-x="1114" 
d="M765 1849q36 1 55 -21t20 -48q0 -47 -62 -84l-329 -205h-68l289 299q59 59 95 59zM96 4v438h45q6 -133 66 -231q106 -180 325 -180q132 0 222 83t90 210q0 86 -41 132q-23 26 -51 52t-113 57q-86 31 -96 35l-70 27q-145 58 -212 118q-124 109 -124 285t120 296t284 120
t299 -84q25 -14 38 -22t19 -7q29 0 59 41h29v-418h-41q-23 152 -76 250q-98 188 -286 189q-117 0 -195 -82t-78 -210t95 -197q50 -36 92 -55t118 -47q78 -28 123 -46t107 -56t94 -74q82 -93 82 -235q0 -188 -131 -302q-131 -113 -325 -113t-376 100l-65 -74h-27z" />
    <glyph glyph-name="sacute" unicode="&#x15b;" horiz-adv-x="792" 
d="M221 1030l289 299q98 98 150 38q19 -22 20 -48q0 -47 -62 -84l-329 -205h-68zM102 297h39q40 -198 129 -252q38 -23 104 -23t116 52q50 51 50 127q0 75 -43 117q-58 55 -155 102t-113 61q-16 13 -36 29q-19 16 -27 26t-22 28q-32 40 -31 126q0 86 75 158q76 72 208 72
t257 -70v-217h-43q-6 74 -45 139q-66 109 -176 109q-67 0 -109 -37t-42 -81t8 -68q13 -38 119 -99l63 -35q111 -57 162 -96q102 -78 102 -206t-100 -205t-236 -77t-254 68v252z" />
    <glyph glyph-name="Scircumflex" unicode="&#x15c;" horiz-adv-x="1114" 
d="M266 1491l232 350h118l232 -350h-57l-234 211l-233 -211h-58zM96 4v438h45q6 -133 66 -231q106 -180 325 -180q132 0 222 83t90 210q0 86 -41 132q-23 26 -51 52t-113 57q-86 31 -96 35l-70 27q-145 58 -212 118q-124 109 -124 285t120 296t284 120t299 -84
q25 -14 38 -22t19 -7q29 0 59 41h29v-418h-41q-23 152 -76 250q-98 188 -286 189q-117 0 -195 -82t-78 -210t95 -197q50 -36 92 -55t118 -47q78 -28 123 -46t107 -56t94 -74q82 -93 82 -235q0 -188 -131 -302q-131 -113 -325 -113t-376 100l-65 -74h-27z" />
    <glyph glyph-name="scircumflex" unicode="&#x15d;" horiz-adv-x="792" 
d="M106 1030l232 350h119l231 -350h-57l-234 211l-233 -211h-58zM102 297h39q40 -198 129 -252q38 -23 104 -23t116 52q50 51 50 127q0 75 -43 117q-58 55 -155 102t-113 61q-16 13 -36 29q-19 16 -27 26t-22 28q-32 40 -31 126q0 86 75 158q76 72 208 72t257 -70v-217h-43
q-6 74 -45 139q-66 109 -176 109q-67 0 -109 -37t-42 -81t8 -68q13 -38 119 -99l63 -35q111 -57 162 -96q102 -78 102 -206t-100 -205t-236 -77t-254 68v252z" />
    <glyph glyph-name="Scedilla" unicode="&#x15e;" horiz-adv-x="1114" 
d="M96 4v438h45q6 -133 66 -231q106 -180 325 -180q132 0 222 83t90 210q0 86 -41 132q-23 26 -51 52t-113 57q-86 31 -96 35l-70 27q-145 58 -212 118q-124 109 -124 285t120 296t284 120t299 -84q25 -14 38 -22t19 -7q29 0 59 41h29v-418h-41q-23 152 -76 250
q-98 188 -286 189q-117 0 -195 -82t-78 -210t95 -197q50 -36 92 -55t118 -47q78 -28 123 -46t107 -56t94 -74q82 -93 82 -235q0 -184 -133 -302t-326 -114v-90q33 6 70 7q80 0 127 -44t47 -124q1 -80 -59 -126t-170 -46t-283 75l35 78q122 -72 234 -72t112 93q0 42 -30 66
t-72 24t-74 -8v170q-156 12 -310 98l-65 -74h-27z" />
    <glyph glyph-name="Scedilla" unicode="&#xf6c1;" horiz-adv-x="1114" 
d="M96 4v438h45q6 -133 66 -231q106 -180 325 -180q132 0 222 83t90 210q0 86 -41 132q-23 26 -51 52t-113 57q-86 31 -96 35l-70 27q-145 58 -212 118q-124 109 -124 285t120 296t284 120t299 -84q25 -14 38 -22t19 -7q29 0 59 41h29v-418h-41q-23 152 -76 250
q-98 188 -286 189q-117 0 -195 -82t-78 -210t95 -197q50 -36 92 -55t118 -47q78 -28 123 -46t107 -56t94 -74q82 -93 82 -235q0 -184 -133 -302t-326 -114v-90q33 6 70 7q80 0 127 -44t47 -124q1 -80 -59 -126t-170 -46t-283 75l35 78q122 -72 234 -72t112 93q0 42 -30 66
t-72 24t-74 -8v170q-156 12 -310 98l-65 -74h-27z" />
    <glyph glyph-name="scedilla" unicode="&#x15f;" horiz-adv-x="792" 
d="M102 297h39q40 -198 129 -252q38 -23 104 -23t116 52q50 51 50 127q0 75 -43 117q-58 55 -155 102t-113 61q-16 13 -36 29q-19 16 -27 26t-22 28q-32 40 -31 126q0 86 75 158q76 72 208 72t257 -70v-217h-43q-6 74 -45 139q-66 109 -176 109q-67 0 -109 -37t-42 -81
t8 -68q13 -38 119 -99l63 -35q111 -57 162 -96q102 -82 102 -203t-89 -199t-218 -83v-93q35 6 70 7q80 0 127 -44t47 -124q1 -80 -59 -126t-170 -46t-283 75l35 78q122 -72 234 -72t112 93q0 42 -30 66t-72 24t-74 -8v167q-118 11 -220 68v252z" />
    <glyph glyph-name="scedilla" unicode="&#xf6c2;" horiz-adv-x="792" 
d="M102 297h39q40 -198 129 -252q38 -23 104 -23t116 52q50 51 50 127q0 75 -43 117q-58 55 -155 102t-113 61q-16 13 -36 29q-19 16 -27 26t-22 28q-32 40 -31 126q0 86 75 158q76 72 208 72t257 -70v-217h-43q-6 74 -45 139q-66 109 -176 109q-67 0 -109 -37t-42 -81
t8 -68q13 -38 119 -99l63 -35q111 -57 162 -96q102 -82 102 -203t-89 -199t-218 -83v-93q35 6 70 7q80 0 127 -44t47 -124q1 -80 -59 -126t-170 -46t-283 75l35 78q122 -72 234 -72t112 93q0 42 -30 66t-72 24t-74 -8v167q-118 11 -220 68v252z" />
    <glyph glyph-name="Scaron" unicode="&#x160;" horiz-adv-x="1114" 
d="M266 1841h58l233 -211l234 211h57l-232 -350h-118zM96 4v438h45q6 -133 66 -231q106 -180 325 -180q132 0 222 83t90 210q0 86 -41 132q-23 26 -51 52t-113 57q-86 31 -96 35l-70 27q-145 58 -212 118q-124 109 -124 285t120 296t284 120t299 -84q25 -14 38 -22t19 -7
q29 0 59 41h29v-418h-41q-23 152 -76 250q-98 188 -286 189q-117 0 -195 -82t-78 -210t95 -197q50 -36 92 -55t118 -47q78 -28 123 -46t107 -56t94 -74q82 -93 82 -235q0 -188 -131 -302q-131 -113 -325 -113t-376 100l-65 -74h-27z" />
    <glyph glyph-name="scaron" unicode="&#x161;" horiz-adv-x="792" 
d="M106 1380h58l233 -211l234 211h57l-231 -350h-119zM102 297h39q40 -198 129 -252q38 -23 104 -23t116 52q50 51 50 127q0 75 -43 117q-58 55 -155 102t-113 61q-16 13 -36 29q-19 16 -27 26t-22 28q-32 40 -31 126q0 86 75 158q76 72 208 72t257 -70v-217h-43
q-6 74 -45 139q-66 109 -176 109q-67 0 -109 -37t-42 -81t8 -68q13 -38 119 -99l63 -35q111 -57 162 -96q102 -78 102 -206t-100 -205t-236 -77t-254 68v252z" />
    <glyph glyph-name="Tcedilla" unicode="&#x162;" horiz-adv-x="1521" 
d="M864 1372v-1200q0 -94 36 -110q36 -15 91 -15h39v-47h-246v-113q35 6 70 7q80 0 127 -44t47 -124t-59 -126t-170 -46t-283 75l35 78q121 -72 233 -72t113 93q0 42 -30 66q-29 24 -71 24t-75 -8v190h-229v47h38q104 0 119 51q8 27 8 74v1200h-53q-129 0 -248 -8l-63 -4
q-41 -2 -90 -58t-144 -200l-34 -53l-25 18l80 387q109 -33 274 -33h813q166 0 275 33l80 -387l-25 -18l-35 53q-94 144 -143 200t-90 58l-64 4q-119 8 -247 8h-54z" />
    <glyph glyph-name="tcedilla" unicode="&#x163;" horiz-adv-x="757" 
d="M221 793h-115v20q145 109 254 231h17v-149h301l-53 -102h-248v-523q0 -136 55 -171q31 -19 78 -19q88 0 168 80l18 -23q-90 -143 -241 -155v-95q35 6 69 7q80 0 127 -44t47 -124t-59 -126t-170 -46t-283 75l35 78q121 -72 234 -72t112 93q1 42 -29 66t-72 24t-75 -8v172
q-63 4 -98 34t-53 89q-18 60 -19 208v480z" />
    <glyph glyph-name="Tcaron" unicode="&#x164;" horiz-adv-x="1521" 
d="M469 1841h57l234 -211l233 211h58l-232 -350h-119zM864 1372v-1200q0 -94 36 -110q36 -15 91 -15h39v-47h-538v47h38q104 0 119 51q8 27 8 74v1200h-53q-129 0 -248 -8l-63 -4q-41 -2 -90 -58t-144 -200l-34 -53l-25 18l80 387q109 -33 274 -33h813q166 0 275 33l80 -387
l-25 -18l-35 53q-94 144 -143 200t-90 58l-64 4q-119 8 -247 8h-54z" />
    <glyph glyph-name="tcaron" unicode="&#x165;" horiz-adv-x="755" 
d="M471 1354q1 92 101 92q46 0 81 -44t35 -136t-60 -166t-130 -117l-27 33q135 106 135 166q0 36 -13 46q-13 9 -27 15q-94 39 -95 111zM221 793h-115v20q145 109 254 231h17v-149h301l-53 -102h-248v-523q0 -136 55 -171q31 -19 78 -19q88 0 168 80l18 -23
q-102 -158 -274 -157q-145 0 -182 126q-18 61 -19 207v480z" />
    <glyph glyph-name="Umacron" unicode="&#x16a;" horiz-adv-x="1546" 
d="M563 1583v125h516v-125h-516zM250 608v633q0 81 -25 109t-125 24v47h527v-47h-65q-54 0 -73 -13q-20 -13 -25 -39t-5 -71v-850q-1 -168 107 -270t276 -102q414 0 413 530v625q1 114 -33 152t-112 38h-43v47h418v-47h-37q-68 0 -100 -38t-33 -152v-647q0 -561 -522 -562
q-367 0 -482 222q-61 116 -61 411z" />
    <glyph glyph-name="umacron" unicode="&#x16b;" horiz-adv-x="1101" 
d="M293 1122v125h516v-125h-516zM915 895v-694q0 -63 19 -82t76 -19v-24q-49 -16 -236 -90h-14v153q-117 -164 -296 -164t-249 152q-33 70 -33 233v416q0 42 -22 62t-82 20h-10v37h268v-512q0 -152 26 -212t66 -82q41 -22 107 -21q150 0 225 159v510q0 73 -18 97t-83 24h-10
v37h266z" />
    <glyph glyph-name="Ubreve" unicode="&#x16c;" horiz-adv-x="1546" 
d="M805 1661q209 0 239 141h52q-14 -106 -81 -189t-215 -83t-217 98q-54 77 -71 174h51q33 -141 242 -141zM250 608v633q0 81 -25 109t-125 24v47h527v-47h-65q-54 0 -73 -13q-20 -13 -25 -39t-5 -71v-850q-1 -168 107 -270t276 -102q414 0 413 530v625q1 114 -33 152
t-112 38h-43v47h418v-47h-37q-68 0 -100 -38t-33 -152v-647q0 -561 -522 -562q-367 0 -482 222q-61 116 -61 411z" />
    <glyph glyph-name="ubreve" unicode="&#x16d;" horiz-adv-x="1101" 
d="M528 1200q208 0 240 141h51q-14 -106 -81 -189t-214 -83t-218 98q-53 75 -70 174h51q33 -141 241 -141zM915 895v-694q0 -63 19 -82t76 -19v-24q-49 -16 -236 -90h-14v153q-117 -164 -296 -164t-249 152q-33 70 -33 233v416q0 42 -22 62t-82 20h-10v37h268v-512
q0 -152 26 -212t66 -82q41 -22 107 -21q150 0 225 159v510q0 73 -18 97t-83 24h-10v37h266z" />
    <glyph glyph-name="Uring" unicode="&#x16e;" horiz-adv-x="1546" 
d="M958 1713q0 63 -44 107t-105 44t-105 -44t-45 -106q0 -62 44 -107q43 -44 105 -44t106 44t44 106zM1051 1714q0 -100 -71 -171t-171 -71t-170 72q-70 70 -70 170t70 170t170 70t171 -70t71 -170zM250 608v633q0 81 -25 109t-125 24v47h527v-47h-65q-54 0 -73 -13
q-20 -13 -25 -39t-5 -71v-850q-1 -168 107 -270t276 -102q414 0 413 530v625q1 114 -33 152t-112 38h-43v47h418v-47h-37q-68 0 -100 -38t-33 -152v-647q0 -561 -522 -562q-367 0 -482 222q-61 116 -61 411z" />
    <glyph glyph-name="uring" unicode="&#x16f;" horiz-adv-x="1101" 
d="M682 1252q0 62 -44 106t-106 45q-62 0 -105 -44q-44 -45 -44 -107t44 -106t105 -44t106 44q44 44 44 106zM774 1253q0 -100 -71 -171q-71 -70 -171 -70t-170 70t-69 171q0 100 69 170q70 70 170 70t171 -70t71 -170zM915 895v-694q0 -63 19 -82t76 -19v-24
q-49 -16 -236 -90h-14v153q-117 -164 -296 -164t-249 152q-33 70 -33 233v416q0 42 -22 62t-82 20h-10v37h268v-512q0 -152 26 -212t66 -82q41 -22 107 -21q150 0 225 159v510q0 73 -18 97t-83 24h-10v37h266z" />
    <glyph glyph-name="Uhungarumlaut" unicode="&#x170;" horiz-adv-x="1546" 
d="M1157 1782q0 -31 -41 -74l-203 -217h-59l143 281q41 80 93 79q27 0 47 -19t20 -50zM580 1491l143 281q41 80 92 79q27 0 47 -19q48 -46 -20 -124l-205 -217h-57zM250 608v633q0 81 -25 109t-125 24v47h527v-47h-65q-54 0 -73 -13q-20 -13 -25 -39t-5 -71v-850
q-1 -168 107 -270t276 -102q414 0 413 530v625q1 114 -33 152t-112 38h-43v47h418v-47h-37q-68 0 -100 -38t-33 -152v-647q0 -561 -522 -562q-367 0 -482 222q-61 116 -61 411z" />
    <glyph glyph-name="uhungarumlaut" unicode="&#x171;" horiz-adv-x="1101" 
d="M868 1391q27 1 47 -19q51 -50 -20 -125l-203 -217h-59l143 281q41 80 92 80zM594 1391q27 1 47 -19q48 -47 -20 -125l-205 -217h-58l144 281q41 80 92 80zM915 895v-694q0 -63 19 -82t76 -19v-24q-49 -16 -236 -90h-14v153q-117 -164 -296 -164t-249 152q-33 70 -33 233
v416q0 42 -22 62t-82 20h-10v37h268v-512q0 -152 26 -212t66 -82q41 -22 107 -21q150 0 225 159v510q0 73 -18 97t-83 24h-10v37h266z" />
    <glyph glyph-name="Uogonek" unicode="&#x172;" horiz-adv-x="1546" 
d="M250 608v658q0 51 -14 71q-27 37 -111 37h-25v47h527v-47h-76q-53 0 -73 -20t-19 -103v-850q-1 -168 107 -270t276 -102q414 0 413 530v625q1 114 -33 152t-112 38h-43v47h418v-47h-37q-68 0 -100 -38t-33 -152v-647q0 -180 -46 -294t-210 -225q-72 -46 -109 -96
q-66 -80 -65 -158q1 -46 25 -82t77 -36q78 0 117 71l29 -18q-31 -66 -87 -107t-125 -41t-113 39t-44 117t62 157t132 128q-86 -16 -182 -17q-350 0 -465 222q-61 116 -61 411z" />
    <glyph glyph-name="uogonek" unicode="&#x173;" horiz-adv-x="1101" 
d="M915 895v-694q0 -63 19 -82t76 -19v-24q-170 -46 -268 -178q-46 -63 -46 -122q0 -130 103 -130q78 0 116 71l29 -18q-31 -66 -87 -107t-124 -41q-69 0 -113 40t-45 110q0 147 185 285v153q-117 -164 -296 -164t-249 152q-33 70 -33 233v416q0 42 -22 62t-82 20h-10v37
h268v-512q0 -152 26 -212t66 -82q41 -22 107 -21q150 0 225 159v510q0 73 -18 97t-83 24h-10v37h266z" />
    <glyph glyph-name="Ydieresis" unicode="&#x178;" horiz-adv-x="1058" 
d="M711 1747q35 0 67 -28q32 -29 31 -71q0 -42 -28 -72q-27 -30 -69 -30t-72 29t-30 73t33 72t68 27zM358 1747q35 0 68 -28q33 -27 33 -71t-30 -73t-72 -29q-41 0 -69 30t-28 73t32 71t66 27zM643 193q0 -92 25 -123t127 -21v-49h-514v49h14q85 0 111 22t26 128v444
l-362 631q-61 102 -148 100v47h510v-47q-141 8 -141 -63q0 -16 18 -49l309 -529l246 424q59 102 60 143q0 76 -123 80v41h362v-47q-67 -2 -107 -38t-93 -124l-320 -534v-485z" />
    <glyph glyph-name="Zacute" unicode="&#x179;" horiz-adv-x="1310" 
d="M863 1849q36 0 56 -21q19 -22 19 -48q0 -47 -61 -84l-330 -205h-68l289 299q59 59 95 59zM838 1380h-230q-135 0 -217 -51q-49 -33 -96 -88t-133 -174l-45 -61l-37 14l137 401h1012l-955 -1374h197q248 0 351 11t145 42q92 68 266 355h37l-137 -455h-1139l964 1372
q-55 8 -120 8z" />
    <glyph glyph-name="zacute" unicode="&#x17a;" horiz-adv-x="913" 
d="M739 1319q0 -47 -61 -84l-330 -205h-67l288 299q59 59 95 59t56 -21q19 -22 19 -48zM57 0v12l553 842h-194q-121 0 -159 -19t-79 -73t-63 -107l-43 9l67 231h680v-12l-551 -838h193q170 0 221 37q57 47 145 215l31 -14l-63 -283h-738z" />
    <glyph glyph-name="Zdotaccent" unicode="&#x17b;" horiz-adv-x="1310" 
d="M756 1647q0 -41 -30 -71t-71 -30t-71 30t-29 71q0 41 30 71q31 30 71 29q40 1 70 -29t30 -71zM838 1380h-230q-135 0 -217 -51q-49 -33 -96 -88t-133 -174l-45 -61l-37 14l137 401h1012l-955 -1374h197q248 0 351 11t145 42q92 68 266 355h37l-137 -455h-1139l964 1372
q-55 8 -120 8z" />
    <glyph glyph-name="zdotaccent" unicode="&#x17c;" horiz-adv-x="913" 
d="M356 1186q0 40 30 70t70 30t70 -30t31 -71q0 -40 -30 -70q-31 -30 -71 -30t-70 30t-30 71zM57 0v12l553 842h-194q-121 0 -159 -19t-79 -73t-63 -107l-43 9l67 231h680v-12l-551 -838h193q170 0 221 37q57 47 145 215l31 -14l-63 -283h-738z" />
    <glyph glyph-name="Zcaron" unicode="&#x17d;" horiz-adv-x="1310" 
d="M365 1841h57l233 -211l234 211h57l-231 -350h-119zM838 1380h-230q-135 0 -217 -51q-49 -33 -96 -88t-133 -174l-45 -61l-37 14l137 401h1012l-955 -1374h197q248 0 351 11t145 42q92 68 266 355h37l-137 -455h-1139l964 1372q-55 8 -120 8z" />
    <glyph glyph-name="zcaron" unicode="&#x17e;" horiz-adv-x="913" 
d="M166 1380h57l234 -211l233 211h58l-232 -350h-119zM57 0v12l553 842h-194q-121 0 -159 -19t-79 -73t-63 -107l-43 9l67 231h680v-12l-551 -838h193q170 0 221 37q57 47 145 215l31 -14l-63 -283h-738z" />
    <glyph glyph-name="Schwa" unicode="&#x18f;" horiz-adv-x="1462" 
d="M545 377q-107 0 -107 -94t77 -166t214 -72q86 0 156 33q71 33 109 72t74 102t50 125h-573zM164 459h969q18 129 18 227q0 238 -152 394t-387 157q-168 0 -297 -87t-188 -243l-61 19q70 238 250 377q181 139 420 139t439 -171q97 -83 156 -224t59 -332t-78 -360
q-79 -169 -241 -274q-163 -105 -391 -105t-400 134q-172 136 -174 275q0 43 12 59t46 15z" />
    <glyph glyph-name="florin" unicode="&#x192;" horiz-adv-x="1034" 
d="M127 -348q-92 0 -166 55t-74 121q1 29 17 46t46 17t42 -26q13 -26 26 -62q47 -106 132 -106t127 92t57 238q16 145 26 251t15 154l22 248h-37q-90 0 -190 -12l27 102q78 -12 132 -12t72 2q23 311 130 472q108 161 288 161q102 -1 177 -59t75 -120q0 -27 -17 -44
q-18 -17 -36 -17t-32 6t-22 19q-7 12 -12 18q-4 6 -10 22t-10 23q-49 106 -141 107q-158 0 -195 -316l-33 -272h62q106 0 190 8l-24 -98q-109 14 -236 14l-49 -469q-29 -285 -122 -424t-257 -139z" />
    <glyph glyph-name="Icaron" unicode="&#x1cf;" horiz-adv-x="772" 
d="M96 1841h58l233 -211l234 211h57l-232 -350h-118zM659 1421v-47h-41q-45 0 -60 -1q-16 -1 -36 -12t-25 -37t-5 -73v-1079q0 -82 18 -104t115 -21h34v-47h-546v47h28q103 0 123 30q17 23 17 63v1130q0 55 -17 80q-17 24 -112 24h-39v47h546z" />
    <glyph glyph-name="icaron" unicode="&#x1d0;" horiz-adv-x="561" 
d="M-10 1380h57l234 -211l233 211h57l-231 -350h-119zM365 920v-762q-1 -76 21 -101t91 -18v-39h-387v39q74 -4 92 28t19 123v461q0 39 -4 61t-26 46t-65 39v24q127 39 236 99h23z" />
    <glyph glyph-name="eturn" unicode="&#x1dd;" horiz-adv-x="991" 
d="M375 231q-70 0 -70 -61q0 -66 54 -109q53 -43 139 -43t154 58t91 155h-368zM129 285h623q14 100 14 151q0 150 -99 251t-249 101q-106 0 -190 -57t-124 -156l-38 13q46 154 162 242t275 90q159 0 288 -120t129 -335t-124 -353t-329 -139q-151 0 -263 88t-112 183
q0 25 7 33t30 8z" />
    <glyph glyph-name="Gcaron" unicode="&#x1e6;" horiz-adv-x="1505" 
d="M485 1841h58l233 -211l234 211h57l-231 -350h-119zM1126 352v154q0 93 -31 109q-19 11 -35 13t-56 1h-46v49h529v-51h-14q-51 0 -69 -2q-18 -3 -40 -17q-20 -14 -24 -43t-5 -86v-321q-303 -182 -551 -182t-436 151q-260 207 -260 582q0 329 210 533t490 204
q109 0 196 -29t164 -66q77 -38 95 -38q51 0 62 71h32l17 -401h-45q-33 209 -171 312t-302 103t-309 -121q-85 -73 -140 -190q-80 -166 -80 -376q0 -211 73 -377q74 -166 190 -237t245 -71t220 94q91 93 91 232z" />
    <glyph glyph-name="gcaron" unicode="&#x1e7;" horiz-adv-x="964" 
d="M193 1380h57l233 -211l234 211h57l-231 -350h-119zM610 -63h-172q-102 0 -166 24q-96 -53 -96 -170q0 -199 291 -199q391 0 391 191q0 154 -248 154zM647 617q0 125 -49 191t-128 66t-128 -66t-49 -190q0 -126 49 -190t127 -64t128 64q50 63 50 189zM457 -455
q-406 0 -406 217q1 76 57 134t130 88q-113 57 -113 163q0 61 45 119t104 94q-133 88 -133 238t90 236q89 86 235 86t257 -84q76 68 147 67q45 1 67 -23q21 -24 21 -53t-17 -44t-39 -15t-57 26q-36 26 -64 26t-38 -9q61 -92 61 -211t-93 -202q-94 -83 -240 -83q-63 0 -162 25
q-86 -41 -86 -125q0 -93 119 -113q72 -10 162 -10l110 -2q350 -6 351 -248q0 -297 -508 -297z" />
    <glyph glyph-name="Scommaaccent" unicode="&#x218;" horiz-adv-x="1114" 
d="M426 -184q0 92 100 92q46 0 82 -44q35 -44 35 -136t-60 -166t-130 -117l-27 33q135 106 135 166q0 36 -13 46q-14 9 -28 15q-94 39 -94 111zM96 4v438h45q6 -133 66 -231q106 -180 325 -180q132 0 222 83t90 210q0 86 -41 132q-23 26 -51 52t-113 57q-86 31 -96 35
l-70 27q-145 58 -212 118q-124 109 -124 285t120 296t284 120t299 -84q25 -14 38 -22t19 -7q29 0 59 41h29v-418h-41q-23 152 -76 250q-98 188 -286 189q-117 0 -195 -82t-78 -210t95 -197q50 -36 92 -55t118 -47q78 -28 123 -46t107 -56t94 -74q82 -93 82 -235
q0 -188 -131 -302q-131 -113 -325 -113t-376 100l-65 -74h-27z" />
    <glyph glyph-name="scommaaccent" unicode="&#x219;" horiz-adv-x="792" 
d="M264 -184q0 92 100 92q46 0 82 -44t36 -136t-61 -166q-60 -74 -130 -117l-27 33q135 106 135 166q0 36 -13 46q-14 9 -28 15q-94 39 -94 111zM102 297h39q40 -198 129 -252q38 -23 104 -23t116 52q50 51 50 127q0 75 -43 117q-58 55 -155 102t-113 61q-16 13 -36 29
q-19 16 -27 26t-22 28q-32 40 -31 126q0 86 75 158q76 72 208 72t257 -70v-217h-43q-6 74 -45 139q-66 109 -176 109q-67 0 -109 -37t-42 -81t8 -68q13 -38 119 -99l63 -35q111 -57 162 -96q102 -78 102 -206t-100 -205t-236 -77t-254 68v252z" />
    <glyph glyph-name="Tcommaaccent" unicode="&#x21a;" horiz-adv-x="1521" 
d="M629 -184q0 92 100 92q47 0 82 -44t35 -136t-60 -166t-131 -117l-26 33q135 106 135 166q0 36 -21 51q-6 4 -20 10t-23 10q-72 35 -71 101zM864 1372v-1200q0 -94 36 -110q36 -15 91 -15h39v-47h-538v47h38q104 0 119 51q8 27 8 74v1200h-53q-129 0 -248 -8l-63 -4
q-41 -2 -90 -58t-144 -200l-34 -53l-25 18l80 387q109 -33 274 -33h813q166 0 275 33l80 -387l-25 -18l-35 53q-94 144 -143 200t-90 58l-64 4q-119 8 -247 8h-54z" />
    <glyph glyph-name="tcommaaccent" unicode="&#x21b;" horiz-adv-x="755" 
d="M293 -184q0 92 100 92q47 0 82 -44t35 -136t-60 -166t-131 -117l-26 33q135 106 135 166q0 36 -13 46q-13 9 -27 15q-94 39 -95 111zM221 793h-115v20q145 109 254 231h17v-149h301l-53 -102h-248v-523q0 -136 55 -171q31 -19 78 -19q88 0 168 80l18 -23
q-102 -158 -274 -157q-145 0 -182 126q-18 61 -19 207v480z" />
    <glyph glyph-name="Ecedilla" unicode="&#x228;" horiz-adv-x="1323" 
d="M113 0v47q96 -6 129 29q20 20 20 106v1051q0 87 -20 113t-97 26h-32v49h1028l102 -325l-43 -17q-104 180 -188 235t-202 59q-34 1 -130 1h-209v-624h107q178 0 239 45q43 31 69 93t29 122h35v-570h-35q-4 55 -29 120q-26 65 -69 95q-61 45 -239 45h-107v-499
q0 -94 32 -124t136 -30h125q168 0 258 53q55 33 123 117t110 166l39 -12l-75 -371h-482v-113q33 6 70 7q80 0 127 -44t47 -124t-59 -126t-170 -46t-283 75l35 78q122 -72 234 -72t112 93q0 42 -30 66t-72 24t-74 -8v190h-561z" />
    <glyph glyph-name="ecedilla" unicode="&#x229;" horiz-adv-x="995" 
d="M618 662q70 0 70 61q0 67 -54 109t-139 42t-153 -57t-92 -155h368zM864 608h-622q-14 -100 -15 -151q-1 -150 99 -251t249 -102q105 0 189 58t125 155l39 -12q-43 -145 -151 -233t-247 -97v-88q35 6 70 7q80 0 127 -44t47 -124t-59 -126t-170 -46t-283 75l35 78
q121 -72 233 -72t113 93q0 42 -30 66q-29 24 -71 24t-75 -8v165q-181 13 -287 143t-106 328t124 335q124 138 328 139q152 0 264 -88t111 -183q0 -25 -7 -33t-30 -8z" />
    <glyph glyph-name="schwa" unicode="&#x259;" horiz-adv-x="991" 
d="M375 231q-70 0 -70 -61q0 -66 54 -109q53 -43 139 -43t154 58t91 155h-368zM129 285h623q14 100 14 151q0 150 -99 251t-249 101q-106 0 -190 -57t-124 -156l-38 13q46 154 162 242t275 90q159 0 288 -120t129 -335t-124 -353t-329 -139q-151 0 -263 88t-112 183
q0 25 7 33t30 8z" />
    <glyph glyph-name="afii57929" unicode="&#x2bc;" horiz-adv-x="458" 
d="M135 1354q1 92 101 92q46 0 81 -44t35 -136t-60 -166t-130 -117l-27 33q135 106 135 166q0 36 -13 46q-13 9 -27 15q-94 39 -95 111z" />
    <glyph glyph-name="circumflex" unicode="&#x2c6;" 
d="M221 1030l232 350h118l232 -350h-58l-233 211l-233 -211h-58z" />
    <glyph glyph-name="caron" unicode="&#x2c7;" 
d="M221 1380h58l233 -211l233 211h58l-232 -350h-118z" />
    <glyph glyph-name="breve" unicode="&#x2d8;" 
d="M512 1200q209 0 240 141h51q-14 -106 -81 -189t-214 -83t-218 98q-54 77 -71 174h51q33 -141 242 -141z" />
    <glyph glyph-name="dotaccent" unicode="&#x2d9;" 
d="M512 1286q40 0 70 -30t30 -71q0 -40 -30 -70t-70 -30q-41 0 -71 30t-29 71q0 40 30 70t70 30z" />
    <glyph glyph-name="ring" unicode="&#x2da;" 
d="M512 1102q62 0 106 44t44 106t-44 106t-106 45q-61 0 -105 -44q-45 -45 -45 -107t44 -106t106 -44zM754 1253q0 -100 -71 -171q-71 -70 -171 -70t-170 70t-70 171q0 100 70 170t170 70t171 -70t71 -170z" />
    <glyph glyph-name="ogonek" unicode="&#x2db;" 
d="M492 -236q0 -46 24 -82t78 -36q78 0 117 71l28 -18q-31 -66 -87 -107t-125 -41t-113 39t-43 105q0 178 252 336h49q-180 -139 -180 -267z" />
    <glyph glyph-name="tilde" unicode="&#x2dc;" 
d="M604 1122q-27 0 -74 11l-108 28q-31 6 -49 6q-74 0 -97 -90h-51q19 119 75 166t120 47q29 0 65 -10l111 -29q37 -8 55 -8q69 0 94 84h54q-37 -205 -195 -205z" />
    <glyph glyph-name="hungarumlaut" unicode="&#x2dd;" 
d="M829 1391q27 1 47 -19t21 -51q0 -31 -41 -74l-203 -217h-59l143 281q41 80 92 80zM555 1391q27 1 47 -19q48 -47 -20 -125l-205 -217h-58l144 281q41 80 92 80z" />
    <glyph glyph-name="accent" unicode="&#x301;" horiz-adv-x="4" 
d="M-158 1319q0 -47 -61 -84l-330 -205h-67l288 299q60 59 96 59t55 -21q19 -22 19 -48z" />
    <glyph glyph-name="accent" unicode="&#xf400;" horiz-adv-x="4" 
d="M-158 1319q0 -47 -61 -84l-330 -205h-67l288 299q60 59 96 59t55 -21q19 -22 19 -48z" />
    <glyph glyph-name="uni0313" unicode="&#x313;" horiz-adv-x="458" 
d="M135 1354q1 92 101 92q46 0 81 -44t35 -136t-60 -166t-130 -117l-27 33q135 106 135 166q0 36 -13 46q-13 9 -27 15q-94 39 -95 111z" />
    <glyph glyph-name="uni0315" unicode="&#x315;" horiz-adv-x="458" 
d="M135 1354q1 92 101 92q46 0 81 -44t35 -136t-60 -166t-130 -117l-27 33q135 106 135 166q0 36 -13 46q-13 9 -27 15q-94 39 -95 111z" />
    <glyph glyph-name="uni0326" unicode="&#x326;" horiz-adv-x="462" 
d="M129 -184q1 92 101 92q46 0 81 -44t35 -136t-60 -166t-130 -117l-27 33q135 106 135 166q0 36 -13 46q-13 9 -27 15q-94 39 -95 111z" />
    <glyph glyph-name="Delta" unicode="&#x394;" horiz-adv-x="1390" 
d="M1079 166l-450 1005l-471 -1005h921zM1391 0h-1391l676 1446h51z" />
    <glyph glyph-name="Delta" unicode="&#x2206;" horiz-adv-x="1390" 
d="M1079 166l-450 1005l-471 -1005h921zM1391 0h-1391l676 1446h51z" />
    <glyph glyph-name="Omega" unicode="&#x3a9;" horiz-adv-x="1464" 
d="M389 178h217v148q-200 30 -324 180t-124 354t86 335q158 239 489 240t490 -240q86 -131 86 -335t-124 -354t-325 -180v-148h217q113 0 201 137l39 62l47 -15l-96 -362h-463v373q23 2 47 8t73 37q48 31 84 79t63 145q28 97 28 225q0 127 -27 225t-64 151q-38 53 -90 86
q-53 33 -97 43t-89 10t-89 -10t-96 -43t-90 -86t-65 -150t-27 -225t28 -226q28 -97 64 -145t84 -79t72 -37t48 -8v-373h-463l-97 362l48 15l38 -62q88 -137 201 -137z" />
    <glyph glyph-name="Omega" unicode="&#x2126;" horiz-adv-x="1464" 
d="M389 178h217v148q-200 30 -324 180t-124 354t86 335q158 239 489 240t490 -240q86 -131 86 -335t-124 -354t-325 -180v-148h217q113 0 201 137l39 62l47 -15l-96 -362h-463v373q23 2 47 8t73 37q48 31 84 79t63 145q28 97 28 225q0 127 -27 225t-64 151q-38 53 -90 86
q-53 33 -97 43t-89 10t-89 -10t-96 -43t-90 -86t-65 -150t-27 -225t28 -226q28 -97 64 -145t84 -79t72 -37t48 -8v-373h-463l-97 362l48 15l38 -62q88 -137 201 -137z" />
    <glyph glyph-name="pi" unicode="&#x3c0;" horiz-adv-x="1103" 
d="M713 766h-342v-178q0 -433 -156 -565q-53 -45 -96 -45t-69 20t-26 59t22 63q21 24 94 46t110 84q59 106 59 377v139h-69q-82 0 -136 -96l-24 -43l-45 24l22 56q39 98 107 143t217 45h483q96 0 135 76l21 41l47 -21l-104 -225h-50q-31 0 -37 -10t-8 -14q-4 -7 -4 -22v-523
q0 -92 62 -93q53 0 71 70l9 29h61l-10 -35q-55 -190 -193 -191q-152 0 -151 203v586z" />
    <glyph glyph-name="afii10023" unicode="&#x401;" horiz-adv-x="1323" 
d="M858 1831q34 1 66 -27t32 -71t-28 -73t-69 -30q-42 0 -72 29q-29 29 -29 73t33 72t67 27zM469 1831q35 1 67 -27t33 -72t-29 -73t-72 -29t-70 30t-28 73t32 71t67 27zM113 0v47q96 -6 129 29q20 20 20 106v1051q0 87 -20 113t-97 26h-32v49h1028l102 -325l-43 -17
q-104 180 -188 235t-202 59q-34 1 -130 1h-209v-624h107q178 0 239 45q43 31 69 93t29 122h35v-570h-35q-4 55 -29 120q-26 65 -69 95q-61 45 -239 45h-107v-499q0 -94 32 -124t136 -30h125q168 0 258 53q55 33 123 117t110 166l39 -12l-75 -371h-1106z" />
    <glyph glyph-name="afii10051" unicode="&#x402;" horiz-adv-x="1683" 
d="M1166 33q64 -1 113 67q50 68 50 252v94q0 174 -79 254q-80 80 -190 80t-315 -78v-544q0 -96 27 -158h-399v47h39q105 0 118 51q8 27 9 74l-2 1200h-54q-29 0 -102 -6l-53 -6q-46 -6 -94 -62t-140 -196l-35 -53l-24 18l80 387q109 -33 274 -33h504q158 -2 274 33l80 -387
l-24 -18l-35 53q-92 141 -140 196t-94 62l-53 6q-74 6 -102 6h-54v-618q203 88 385 88t296 -115q116 -115 116 -299q0 -116 -39 -204q-39 -87 -83 -135t-121 -81t-176 -33t-164 44q-65 43 -65 113t32 100q30 30 78 30t76 -36t28 -76l-6 -60q0 -57 64 -57z" />
    <glyph glyph-name="afii10052" unicode="&#x403;" horiz-adv-x="1216" 
d="M1006 1849q36 1 56 -21q19 -22 19 -48q0 -47 -61 -84l-330 -205h-67l288 299q59 59 95 59zM852 1372h-371v-1222q0 -121 181 -103v-47h-539v49h14q86 0 111 23t24 118v1086q0 72 -38 84t-76 12h-35v49h795q133 0 212 47l91 -385l-43 -16l-146 225q-53 80 -180 80z" />
    <glyph glyph-name="afii10053" unicode="&#x404;" horiz-adv-x="1462" 
d="M1339 500v-467h-41l-36 76q-8 14 -18 14t-93 -45q-178 -102 -371 -103q-240 0 -432 152q-260 207 -260 586q0 268 150 463q88 118 230 194t320 76q106 0 156 -14t86 -27q36 -11 52 -21t46 -24t62 -31q34 -17 53 -16q47 0 62 71h36v-475h-43q-14 154 -90 273
q-135 217 -379 217q-285 0 -442 -309q-78 -154 -80 -322h273q178 0 239 45q39 29 67 88t32 121h34v-561h-34q-4 61 -33 121t-66 88q-61 45 -239 45h-273q-6 -213 70 -374q75 -161 193 -237t243 -75q246 0 383 202q77 117 104 269h39z" />
    <glyph glyph-name="afii10054" unicode="&#x405;" horiz-adv-x="1114" 
d="M96 4v438h45q6 -133 66 -231q106 -180 325 -180q132 0 222 83t90 210q0 86 -41 132q-23 26 -51 52t-113 57q-86 31 -96 35l-70 27q-145 58 -212 118q-124 109 -124 285t120 296t284 120t299 -84q25 -14 38 -22t19 -7q29 0 59 41h29v-418h-41q-23 152 -76 250
q-98 188 -286 189q-117 0 -195 -82t-78 -210t95 -197q50 -36 92 -55t118 -47q78 -28 123 -46t107 -56t94 -74q82 -93 82 -235q0 -188 -131 -302q-131 -113 -325 -113t-376 100l-65 -74h-27z" />
    <glyph glyph-name="afii10055" unicode="&#x406;" horiz-adv-x="772" 
d="M659 1421v-47h-41q-45 0 -60 -1q-16 -1 -36 -12t-25 -37t-5 -73v-1079q0 -82 18 -104t115 -21h34v-47h-546v47h28q103 0 123 30q17 23 17 63v1130q0 55 -17 80q-17 24 -112 24h-39v47h546z" />
    <glyph glyph-name="afii10056" unicode="&#x407;" horiz-adv-x="772" 
d="M563 1747q35 0 67 -28q32 -29 32 -71t-28 -72t-70 -30t-72 29t-29 73t33 72t67 27zM211 1747q35 0 68 -28q33 -27 33 -71t-30 -73t-72 -29t-70 30t-28 73t32 71t67 27z" />
    <glyph glyph-name="afii10057" unicode="&#x408;" horiz-adv-x="763" 
d="M299 -143v1368q0 57 -6 88t-29 43t-38 14t-64 2h-27v49h541v-49h-68q-51 0 -55 -7q-5 -7 -19 -20t-14 -94v-954q0 -254 -54 -384t-145 -189q-91 -60 -181 -60t-132 36q-43 36 -43 86t27 81t71 31q78 0 130 -113q25 -59 53 -59q53 0 53 131z" />
    <glyph glyph-name="afii10058" unicode="&#x409;" horiz-adv-x="1978" 
d="M1180 186q0 -104 64 -127q34 -12 85 -12h74q141 0 227 117q58 78 58 230t-94 243q-94 90 -310 90q-59 0 -104 -4v-537zM367 1372v49h962v-49h-18q-78 0 -105 -19t-26 -77v-502q141 6 159 6q254 0 387 -71q186 -100 187 -314q0 -160 -109 -264q-62 -59 -166 -95t-211 -36
h-624v47h39q47 0 61 1t36 12t27 37t5 75v1094q0 106 -94 106h-72q-101 0 -131 -69q-16 -37 -22 -99t-19 -202q-36 -419 -120 -652q-85 -233 -232 -321q-73 -45 -137 -45q-152 0 -152 114q0 47 32 82t80 35t90 -38t78 -38q36 -1 88 53q115 116 183 564q39 264 39 406t-52 179
q-39 31 -116 31h-47z" />
    <glyph glyph-name="afii10059" unicode="&#x40a;" horiz-adv-x="2220" 
d="M1419 186q0 -104 65 -127q34 -12 85 -12h73q141 0 228 117q57 78 57 230t-94 243q-94 90 -309 90q-60 0 -105 -4v-537zM2152 393q0 -158 -108 -262q-62 -59 -166 -95t-211 -36h-627v47h39q47 0 61 1t37 12q22 11 26 37q5 26 5 75v530h-735v-530q0 -49 5 -75t27 -37
t36 -12t61 -1h39v-47h-528v49h16q84 0 110 23t25 75v1129q0 57 -26 77q-27 19 -105 19h-18v49h526v-47h-41q-45 0 -60 -1q-16 -1 -36 -12t-26 -37t-5 -73v-493h735v493q0 47 -5 73q-9 46 -61 49q-15 1 -61 1h-41v47h545v-47l-80 -2q-88 -2 -88 -112v-486l162 6
q573 0 573 -387z" />
    <glyph glyph-name="afii10060" unicode="&#x40b;" horiz-adv-x="1714" 
d="M537 172v1200h-54q-29 0 -102 -6l-53 -6q-46 -6 -94 -62t-140 -196l-35 -53l-24 18l80 387q109 -33 274 -33h504q158 -2 274 33l80 -387l-24 -18l-35 53q-92 141 -140 196t-94 62l-53 6q-74 6 -102 6h-54v-624q233 96 403 96q253 0 328 -194q24 -62 30 -118t5 -133v-252
q0 -53 26 -75t110 -23h16v-49h-528v47h39q47 0 61 1t36 12t26 37q5 26 6 75v381q0 223 -209 223q-164 0 -349 -94v-510q-1 -49 5 -75t28 -37t35 -12q14 -1 61 -1h39v-47h-542v47h39q105 0 118 51q9 27 9 74z" />
    <glyph glyph-name="afii10061" unicode="&#x40c;" horiz-adv-x="1464" 
d="M966 1849q36 1 55 -21t19 -48q0 -47 -61 -84l-330 -205h-67l288 299q60 59 96 59zM1262 72q83 0 114 131l45 -13q-25 -96 -65 -145q-59 -72 -166 -72q-137 0 -211 129q-28 48 -41 105q-12 58 -23 114q-40 225 -106 311q-66 85 -203 85h-131v-545q0 -49 5 -75t27 -37
t36 -12t59 -1h53v-47h-540v47q31 -2 73 6q42 7 58 25q18 18 18 104v1094q0 57 -26 77q-27 19 -105 19h-18v49h540v-47q-131 4 -155 -22t-25 -101v-473h109q135 0 196 74q44 53 58 109l43 167q45 164 111 237q67 73 167 73q63 0 101 -29t38 -80t-30 -78q-62 -55 -148 -2
q-43 31 -69 31q-68 0 -103 -145l-47 -191q-35 -139 -153 -186v-4q168 -28 270 -130t133 -378q12 -98 39 -136t72 -38z" />
    <glyph glyph-name="afii10062" unicode="&#x40e;" horiz-adv-x="1462" 
d="M1161 1759q0 -90 -97 -168t-273 -78t-274 78q-97 78 -97 168q0 49 27 68q28 18 59 18q94 0 100 -139q4 -58 23 -88q36 -57 162 -57q125 0 157 52q23 38 27 93q6 139 100 139q31 0 59 -18q27 -19 27 -68zM1462 1421v-49q-74 8 -133 -26t-104 -136l-303 -688
q-154 -348 -238 -442q-98 -104 -229 -105q-88 0 -138 43q-49 42 -49 92t29 85t74 34q70 0 125 -82q42 -59 78 -59t76 50t61 91l41 86l-547 959q-57 104 -148 98v49h518v-49q-93 0 -117 -18t-24 -42t19 -55l405 -718l281 641q27 57 27 108t-48 72q-29 12 -110 12v49h454z" />
    <glyph glyph-name="afii10145" unicode="&#x40f;" horiz-adv-x="1679" 
d="M1567 0h-701q0 -115 60 -252q50 -111 -9 -165q-33 -29 -75 -29t-76 30q-33 30 -33 69q0 40 25 95q59 137 59 252h-702v49h18q78 -1 105 19t26 77v1129q0 53 -25 76q-26 23 -110 22h-16v49h528v-47h-39q-47 0 -61 -1t-36 -12t-27 -37t-5 -75v-1085q0 -72 26 -94t68 -23
h547q68 0 86 53q8 25 8 64v1085q0 49 -5 75t-26 37q-22 11 -36 12t-62 1h-39v47h529v-49h-17q-84 0 -110 -22t-25 -76v-1129q0 -57 27 -76t104 -20h19v-49z" />
    <glyph glyph-name="afii10017" unicode="&#x410;" horiz-adv-x="1236" 
d="M315 592h439l-228 582zM-59 0v49l69 12q27 4 44 25q18 22 26 34t17 36q9 23 20 45t20 61l352 938q12 37 -6 72l-18 31q100 74 153 157h19l500 -1300q25 -63 57 -88t94 -23v-49h-536v49l63 8q63 10 82 26q18 15 18 44t-14 63l-125 342h-481l-105 -284q-29 -80 -28 -113
q0 -66 117 -82l43 -6v-47h-381z" />
    <glyph glyph-name="afii10018" unicode="&#x411;" horiz-adv-x="1314" 
d="M477 717v-531q0 -104 65 -127q34 -12 85 -12h78q141 0 227 117q57 78 57 226t-94 238q-94 89 -277 89h-141zM477 766h215q252 0 386 -97t134 -282q0 -152 -108 -256q-62 -59 -166 -95t-211 -36h-608v49h12q86 0 112 22t25 128v1034q0 96 -24 118q-25 22 -111 21h-14v49
h932l102 -325l-43 -17q-113 186 -199 242q-67 46 -192 50q-33 1 -129 1h-113v-606z" />
    <glyph glyph-name="afii10019" unicode="&#x412;" horiz-adv-x="1263" 
d="M90 49h12q86 0 112 22t26 128v1034q0 96 -25 118t-111 21h-14v49l412 6q584 6 583 -362q1 -117 -67 -193t-168 -110q146 -16 242 -114t96 -232q0 -424 -643 -424l-217 4h-52l-186 4v49zM449 752h45q184 0 283 67q44 29 79 90t35 147t-33 152t-83 98q-114 73 -226 71
q-55 -1 -100 -1v-624zM449 707v-531q1 -70 33 -102t122 -31q90 0 158 24q68 25 104 59q76 72 91 172q26 154 -27 263q-53 108 -213 135q-59 10 -142 11h-126z" />
    <glyph glyph-name="afii10020" unicode="&#x413;" horiz-adv-x="1216" 
d="M852 1372h-371v-1222q0 -121 181 -103v-47h-539v49h14q86 0 111 23t24 118v1086q0 72 -38 84t-76 12h-35v49h795q133 0 212 47l91 -385l-43 -16l-146 225q-53 80 -180 80z" />
    <glyph glyph-name="afii10021" unicode="&#x414;" horiz-adv-x="1515" 
d="M1004 150v1128q0 45 -24 70t-62 24h-56q-129 0 -176 -82q-20 -33 -62 -257t-116 -473t-161 -400q-23 -46 -23 -66q0 -45 94 -45h413q130 0 158 44q15 22 15 57zM571 1208q0 164 -151 164h-31v49h973v-49h-19q-79 0 -105 -19t-26 -77v-1075q0 -152 134 -152h108v-487h-51
l-29 135q-33 147 -90 213q-80 90 -240 90h-692q-125 0 -188 -80q-37 -45 -90 -211l-47 -149h-52l35 489h53q94 0 170 82t157 293q81 210 131 452t50 332z" />
    <glyph glyph-name="afii10022" unicode="&#x415;" horiz-adv-x="1323" 
d="M113 0v47q96 -6 129 29q20 20 20 106v1051q0 87 -20 113t-97 26h-32v49h1028l102 -325l-43 -17q-104 180 -188 235t-202 59q-34 1 -130 1h-209v-624h107q178 0 239 45q43 31 69 93t29 122h35v-570h-35q-4 55 -29 120q-26 65 -69 95q-61 45 -239 45h-107v-499
q0 -94 32 -124t136 -30h125q168 0 258 53q55 33 123 117t110 166l39 -12l-75 -371h-1106z" />
    <glyph glyph-name="afii10024" unicode="&#x416;" horiz-adv-x="2048" 
d="M371 1280q-27 0 -68 -28q-84 -57 -149 -1q-31 27 -31 78t38 80t101 29q148 0 223 -154q25 -50 56 -156l43 -167q13 -56 48 -99q68 -82 206 -84h84v473q0 47 -6 73q-9 46 -61 49q-15 1 -60 1h-41v47h540v-47h-41q-45 0 -60 -1t-35 -12t-26 -37q-5 -26 -6 -73v-473h84
q136 0 197 74q45 55 57 109l43 167q44 163 112 236q67 74 167 74q63 0 101 -29t38 -80t-31 -78q-62 -54 -147 -2q-43 31 -70 31q-68 0 -102 -145l-47 -191q-35 -139 -154 -186v-4q168 -28 270 -130t134 -378q12 -98 39 -136t71 -38q84 0 115 131l45 -13q-25 -96 -66 -145
q-59 -72 -165 -72q-137 0 -211 129q-28 48 -41 105q-12 58 -23 114q-40 225 -106 311q-66 85 -203 85h-107v-545q0 -37 1 -50t11 -36q18 -39 115 -39h39v-47h-536v47h39q97 0 114 39q10 23 12 36q1 13 1 50v545h-107q-137 0 -203 -85t-101 -280t-69 -250q-74 -129 -211 -129
q-106 0 -165 72q-41 49 -66 145l45 13q31 -131 115 -131q46 0 72 38t38 136q32 276 134 378t270 130v4q-119 47 -154 186l-47 191q-35 145 -102 145z" />
    <glyph glyph-name="afii10025" unicode="&#x417;" horiz-adv-x="1208" 
d="M866 389q0 316 -385 318h-119v59h117q94 0 175 38t132 106q52 68 52 203q0 134 -75 208t-188 74q-297 0 -366 -400h-41v402h29q29 -41 52 -41t61 19q142 71 318 71t294 -94q116 -94 116 -261t-155 -264q-92 -57 -197 -69v-6q166 -6 285 -104t119 -267q0 -236 -220 -342
q-130 -63 -300 -63t-289 40q-174 63 -175 193q0 41 27 72t64 31q72 -1 93 -42q21 -40 41 -102q45 -139 216 -139q170 0 258 135q61 94 61 225z" />
    <glyph glyph-name="afii10026" unicode="&#x418;" horiz-adv-x="1677" 
d="M1565 1421v-49h-19q-78 0 -104 -19t-27 -77v-1129q0 -53 26 -75t109 -23h17v-49h-529v47h39q47 0 61 1t37 12q22 11 26 37q5 26 5 75v991l-733 -989q-7 -68 16 -102q8 -12 34 -18t36 -7h82v-47h-528v49h16q84 0 110 23t25 75v1129q0 57 -26 77q-27 19 -105 19h-18v49h526
v-47h-41q-45 0 -60 -1q-16 -1 -36 -12t-26 -37t-5 -73v-966l733 983q0 42 -7 64q-11 37 -64 41q-12 1 -56 1h-41v47h527z" />
    <glyph glyph-name="afii10027" unicode="&#x419;" horiz-adv-x="1677" 
d="M1212 1759q0 -90 -97 -168t-273 -78t-274 78q-97 78 -97 168q0 49 28 67t58 19q94 0 100 -139q7 -107 83 -132q40 -13 102 -13t101 13q76 25 83 132q6 139 100 139q31 0 59 -18q27 -19 27 -68zM1565 1421v-49h-19q-78 0 -104 -19t-27 -77v-1129q0 -53 26 -75t109 -23h17
v-49h-529v47h39q47 0 61 1t37 12q22 11 26 37q5 26 5 75v991l-733 -989q-7 -68 16 -102q8 -12 34 -18t36 -7h82v-47h-528v49h16q84 0 110 23t25 75v1129q0 57 -26 77q-27 19 -105 19h-18v49h526v-47h-41q-45 0 -60 -1q-16 -1 -36 -12t-26 -37t-5 -73v-966l733 983
q0 42 -7 64q-11 37 -64 41q-12 1 -56 1h-41v47h527z" />
    <glyph glyph-name="afii10028" unicode="&#x41a;" horiz-adv-x="1462" 
d="M1262 72q83 0 114 131l45 -13q-25 -96 -65 -145q-59 -72 -166 -72q-137 0 -211 129q-28 48 -41 105q-12 58 -23 114q-40 225 -106 311q-66 85 -203 85h-131v-545q0 -49 5 -75t27 -37t36 -12t59 -1h53v-47h-540v47q31 -2 73 6q42 7 58 25q18 18 18 104v1094q0 57 -26 77
q-27 19 -105 19h-18v49h540v-47q-131 4 -155 -22t-25 -101v-473h109q135 0 196 74q44 53 58 109l43 167q45 164 111 237q67 73 167 73q63 0 101 -29t38 -80t-30 -78q-62 -55 -148 -2q-43 31 -69 31q-68 0 -103 -145l-47 -191q-35 -139 -153 -186v-4q168 -28 270 -130
t133 -378q12 -98 39 -136t72 -38z" />
    <glyph glyph-name="afii10029" unicode="&#x41b;" horiz-adv-x="1441" 
d="M367 1372v49h962v-49h-18q-78 0 -105 -19t-26 -77v-1129q0 -53 26 -75t109 -23h16v-49h-528v47h39q47 0 61 1t36 12t27 37t5 75v1094q0 106 -94 106h-72q-101 0 -131 -69q-16 -37 -22 -99t-19 -202q-36 -419 -120 -652q-85 -233 -232 -321q-73 -45 -137 -45
q-152 0 -152 114q0 47 32 82t80 35t90 -38t78 -38q36 -1 88 53q115 116 183 564q39 264 39 406t-52 179q-39 31 -116 31h-47z" />
    <glyph glyph-name="afii10030" unicode="&#x41c;" horiz-adv-x="1886" 
d="M297 281q0 -135 37 -187t112 -51h43v-43h-430v43h41q68 0 106 50t38 186v1017q-12 42 -47 62t-121 22v41h350l537 -1147l491 1147h330v-49h-25q-88 0 -107 -26t-20 -121v-1091q0 -26 4 -32t10 -16t12 -14l28 -16t98 -13v-43h-529v43q100 -4 135 24q34 28 33 105v1057
l-518 -1229h-43l-565 1210v-929z" />
    <glyph glyph-name="afii10031" unicode="&#x41d;" horiz-adv-x="1679" 
d="M115 1421h526v-47h-41q-45 0 -60 -1q-16 -1 -36 -12t-26 -37t-5 -73v-493h735v493q0 47 -5 73q-9 46 -61 49q-15 1 -61 1h-41v47h527v-49h-19q-78 0 -104 -19t-27 -77v-1129q0 -53 26 -75t109 -23h17v-49h-529v47h39q47 0 61 1t37 12q22 11 26 37q5 26 5 75v530h-735
v-530q0 -49 5 -75t27 -37t36 -12t61 -1h39v-47h-528v49h16q84 0 110 23t25 75v1129q0 57 -26 77q-27 19 -105 19h-18v49z" />
    <glyph glyph-name="afii10032" unicode="&#x41e;" horiz-adv-x="1564" 
d="M305 706q0 -330 141 -506t338 -175q196 0 338 177t142 510t-140 511t-337 178q-198 0 -340 -182q-142 -183 -142 -513zM780 1446q304 0 502 -206q197 -206 197 -531q0 -326 -194 -530t-502 -204q-307 0 -501 213q-194 214 -194 530t194 522t498 206z" />
    <glyph glyph-name="afii10033" unicode="&#x41f;" horiz-adv-x="1679" 
d="M115 1421h1452v-49h-19q-78 0 -104 -19t-27 -77v-1129q0 -53 26 -75t109 -23h17v-49h-529v47h39q47 0 61 1t37 12q22 11 26 37q5 26 5 75v1085q0 51 -17 79t-35 32t-42 4h-547q-25 0 -42 -4t-35 -32t-17 -79v-1085q0 -49 5 -75t27 -37t36 -12t61 -1h39v-47h-528v49h16
q84 0 110 23t25 75v1129q0 57 -26 77q-27 19 -105 19h-18v49z" />
    <glyph glyph-name="afii10034" unicode="&#x420;" horiz-adv-x="1241" 
d="M967 1016q0 364 -349 362q-94 0 -120 -38t-27 -105v-576q45 -4 107 -4q260 0 344 148q45 78 45 213zM471 172q0 -70 36 -102t144 -23v-47h-538v49h14q86 0 111 23t24 118v1086q0 72 -38 84t-77 12h-34v49q82 -4 259 -1t185 3q266 0 404 -57q221 -94 221 -348t-215 -352
q-135 -61 -394 -62l-102 2v-434z" />
    <glyph glyph-name="afii10035" unicode="&#x421;" horiz-adv-x="1458" 
d="M1339 500v-467h-41l-36 76q-8 14 -18 14t-93 -45q-178 -102 -371 -103q-240 0 -432 152q-260 207 -260 586q0 268 150 463q88 118 230 194t320 76q106 0 156 -14t86 -27q36 -11 52 -21t46 -24t62 -31q34 -17 53 -16q47 0 62 71h36v-475h-43q-14 154 -90 273
q-135 217 -379 217q-87 0 -175 -38q-171 -73 -267 -271q-80 -162 -80 -382t73 -374q72 -154 190 -230t243 -75q246 0 383 202q77 117 104 269h39z" />
    <glyph glyph-name="afii10036" unicode="&#x422;" horiz-adv-x="1521" 
d="M864 1372v-1200q0 -94 36 -110q36 -15 91 -15h39v-47h-538v47h38q104 0 119 51q8 27 8 74v1200h-53q-129 0 -248 -8l-63 -4q-41 -2 -90 -58t-144 -200l-34 -53l-25 18l80 387q109 -33 274 -33h813q166 0 275 33l80 -387l-25 -18l-35 53q-94 144 -143 200t-90 58l-64 4
q-119 8 -247 8h-54z" />
    <glyph glyph-name="afii10037" unicode="&#x423;" horiz-adv-x="1462" 
d="M1462 1421v-49q-74 8 -133 -26t-104 -136l-303 -688q-154 -348 -238 -442q-98 -104 -229 -105q-88 0 -138 43q-49 42 -49 92t29 85t74 34q70 0 125 -82q42 -59 78 -59t76 50t61 91l41 86l-547 959q-57 104 -148 98v49h518v-49q-93 0 -117 -18t-24 -42t19 -55l405 -718
l281 641q27 57 27 108t-48 72q-29 12 -110 12v49h454z" />
    <glyph glyph-name="afii10038" unicode="&#x424;" horiz-adv-x="1679" 
d="M741 223v977q-154 -6 -248 -64q-210 -131 -210 -404t151 -404q123 -105 307 -105zM938 223q184 0 307 105q152 131 152 393q0 152 -59 254q-58 103 -152 161t-248 64v-977zM1100 23v-48h-520v48h45q65 -1 89 25t23 99v17q-223 10 -358 76t-224 186t-89 274t77 273
q79 119 217 195t377 89v37q0 74 -18 99t-64 24h-41v47h451v-47h-41q-45 -1 -63 -25t-19 -98v-37q240 -12 378 -89q138 -78 216 -196t78 -273t-89 -273t-225 -186q-136 -66 -358 -76v-17q0 -95 39 -112q28 -12 74 -12h45z" />
    <glyph glyph-name="afii10039" unicode="&#x425;" horiz-adv-x="1339" 
d="M-47 0v47q66 0 120 29q54 28 81 56t63 77l361 469l-404 584q-25 37 -45 57q-21 21 -67 39t-109 16v47h612v-47l-88 -6q-78 -4 -78 -49q0 -35 101 -178l219 -318l155 191q174 213 175 272q0 88 -158 88v47h491v-47q-66 2 -118 -24t-78 -52q-25 -25 -64 -73l-368 -453
l383 -567q61 -90 109 -125t136 -33v-47h-606v47q170 0 170 64q0 27 -51 100l-283 418l-163 -219q-187 -250 -187 -299t84 -56l96 -8v-47h-489z" />
    <glyph glyph-name="afii10040" unicode="&#x426;" horiz-adv-x="1720" 
d="M115 1421h526v-47h-41q-45 0 -60 -1q-16 -1 -36 -12t-26 -37t-5 -73v-1085q0 -72 26 -94t68 -23h547q68 0 86 53q8 25 8 64v1085q0 47 -5 73q-9 46 -61 49q-15 1 -61 1h-41v47h527v-49h-19q-78 0 -104 -19t-27 -77v-1075q0 -152 133 -152h109v-487h-51l-29 135
q-33 147 -90 213q-80 90 -240 90h-1136v49h16q84 0 110 23t25 75v1129q0 57 -26 77q-27 19 -105 19h-18v49z" />
    <glyph glyph-name="afii10041" unicode="&#x427;" horiz-adv-x="1406" 
d="M150 1276q0 56 -27 76t-105 20h-18v49h526v-47h-41q-45 0 -60 -1t-35 -12t-26 -37q-5 -26 -6 -73v-333q0 -120 68 -176t166 -56q150 0 344 90v475q0 47 -5 73t-25 37t-36 12t-61 1h-41v47h526v-49h-18q-78 0 -105 -19t-26 -77v-1086q1 -96 25 -118t110 -23h14v-49h-538
v47q108 -9 144 23t36 102v541q-242 -94 -389 -95q-399 0 -397 351v307z" />
    <glyph glyph-name="afii10042" unicode="&#x428;" horiz-adv-x="2177" 
d="M117 1372v49h526v-47h-65q-43 0 -51 -4q-9 -4 -27 -16q-25 -17 -25 -103v-1087q-1 -51 17 -79t35 -32t42 -4h322q25 0 42 4t35 32q17 28 17 79v1089q-1 74 -21 98t-110 23h-18v47h507v-47h-18q-51 0 -79 -6t-39 -28t-12 -34t-1 -53v-1089q0 -51 17 -79t35 -32t42 -4h322
q25 0 42 4t35 32q17 28 17 79v1087q0 77 -25 100t-43 23h-100v47h526v-49h-18q-78 0 -105 -19t-26 -77v-1129q-1 -53 25 -75t110 -23h16v-49h-1949v49h16q84 0 110 23t25 75v1129q0 57 -26 77q-27 19 -105 19h-18z" />
    <glyph glyph-name="afii10043" unicode="&#x429;" horiz-adv-x="2215" 
d="M117 1372v49h526v-47h-65q-43 0 -51 -4q-9 -4 -27 -16q-25 -17 -25 -103v-1087q-1 -51 17 -79t35 -32t42 -4h322q25 0 42 4t35 32q17 28 17 79v1089q-1 74 -21 98t-110 23h-18v47h507v-47h-18q-51 0 -79 -6t-39 -28t-12 -34t-1 -53v-1089q0 -51 17 -79t35 -32t42 -4h322
q25 0 42 4t35 32q17 28 17 79v1087q0 77 -25 100t-43 23h-100v47h526v-49h-18q-78 0 -105 -19t-26 -77v-1075q0 -152 133 -152h108v-487h-51l-28 135q-33 147 -90 213q-80 90 -240 90h-1630v49h16q84 0 110 23t25 75v1129q0 57 -26 77q-27 19 -105 19h-18z" />
    <glyph glyph-name="afii10044" unicode="&#x42a;" horiz-adv-x="1554" 
d="M754 186q0 -104 64 -127q34 -12 85 -12h78q141 0 227 117q58 78 58 230t-93 243q-93 90 -315 90q-59 0 -104 -4v-537zM1489 393q0 -158 -109 -262q-62 -59 -166 -95t-210 -36h-609v49h13q86 0 112 22t25 128v1173h-53q-84 0 -114 -4t-42 -4l-64 -4q-41 -2 -90 -58
t-143 -200l-35 -53l-24 18l79 387q109 -33 275 -33h588v-47l-80 -2q-88 -2 -88 -112v-486l161 6q574 0 574 -387z" />
    <glyph glyph-name="afii10045" unicode="&#x42b;" horiz-adv-x="1890" 
d="M578 727q-68 0 -105 -4v-537q0 -104 65 -127q34 -12 85 -12h57q141 0 227 117q57 78 58 211q0 352 -387 352zM1778 1421v-47h-41q-45 0 -61 -1t-36 -12t-25 -37t-5 -73v-1079q0 -82 18 -104t115 -21h35v-47h-547v47h29q102 0 122 30q17 23 17 63v1130q0 33 -2 47
q-6 44 -52 52q-28 5 -75 5h-39v47h547zM614 780q572 0 574 -387q0 -158 -109 -262q-61 -59 -165 -95t-212 -36h-587v49h12q85 0 111 22t26 128v1077q0 57 -26 77q-27 19 -105 19h-18v49h526v-47l-80 -2q-88 -2 -88 -112v-486q82 6 141 6z" />
    <glyph glyph-name="afii10046" unicode="&#x42c;" horiz-adv-x="1273" 
d="M473 186q0 -104 65 -127q34 -12 85 -12h73q141 0 228 117q57 78 57 230t-94 243q-94 90 -309 90q-60 0 -105 -4v-537zM1206 393q0 -158 -108 -262q-62 -59 -166 -95t-211 -36h-608v49h12q85 0 111 22t26 128v1077q0 57 -26 77q-27 19 -105 19h-18v49h526v-47l-80 -2
q-88 -2 -88 -112v-486l162 6q573 0 573 -387z" />
    <glyph glyph-name="afii10047" unicode="&#x42d;" horiz-adv-x="1462" 
d="M162 938v446h37q14 -72 61 -71q24 1 64 21l62 31t32 17q133 63 284 64q309 0 502 -236q172 -211 172 -510q0 -170 -66 -322t-188 -251q-186 -152 -479 -152t-448 138q-113 100 -113 221q0 49 28 81t78 31q84 0 111 -75q7 -23 23 -135t104 -158q88 -45 223 -45
q297 0 434 282q86 176 80 404h-241q-178 0 -230 -38q-52 -39 -79 -103q-26 -64 -29 -119h-35v569h35q4 -60 30 -122t68 -93q61 -45 240 -45h241q-4 180 -73 324q-141 307 -426 307q-113 1 -210 -57q-203 -120 -249 -404h-43z" />
    <glyph glyph-name="afii10048" unicode="&#x42e;" horiz-adv-x="1978" 
d="M1763 712q0 335 -137 508t-331 173q-193 1 -321 -191t-128 -510t139 -488t321 -171q182 0 319 172q138 172 138 507zM379 750h252q6 218 109 380q102 162 250 239t310 77q289 0 484 -207t194 -532q0 -183 -62 -329t-164 -230q-207 -173 -456 -173t-455 196t-212 521h-250
v-520q0 -82 18 -104t115 -21h35v-47h-547v47h29q103 0 123 30q16 23 16 63v1130q0 55 -13 74q-13 20 -41 25t-75 5h-39v47h547v-47h-41q-44 0 -60 -1q-51 -3 -62 -49q-5 -26 -5 -73v-501z" />
    <glyph glyph-name="afii10049" unicode="&#x42f;" horiz-adv-x="1443" 
d="M973 709v567q0 27 -5 44q-5 16 -32 34t-74 18h-71q-119 0 -197 -72q-98 -88 -98 -262t104 -258q88 -72 242 -71h131zM287 1031q1 167 115 279t309 111h620v-49h-18q-78 0 -105 -19t-26 -77v-1129q0 -53 26 -75t109 -23h16v-49h-528v47h39q47 0 61 1t36 12t27 37t5 75v485
h-96q-176 0 -277 -178q-29 -51 -68 -147q-38 -96 -74 -173t-86 -129t-136 -53q-170 0 -201 240l51 14q0 -61 27 -98t55 -37q55 0 113 156q2 6 12 33t19 55t19 44l19 38t20 34q112 172 308 201v9q-158 4 -274 101t-117 264z" />
    <glyph glyph-name="afii10065" unicode="&#x430;" horiz-adv-x="878" 
d="M219 238q0 -68 46 -108t119 -40t167 82v309q-164 -59 -254 -123q-78 -52 -78 -120zM690 -18q-62 0 -103 36q-40 36 -42 103q-137 -143 -275 -144q-86 1 -139 51t-53 132q0 141 170 237q113 66 309 135v205q0 123 -115 123q-68 0 -123 -28t-63 -82q0 -76 -12 -111
q-20 -61 -88 -61q-78 0 -78 75q0 66 94 142q160 127 336 127q94 0 150 -49t57 -224v-520q0 -55 41 -55q20 0 36 20q15 20 17 49h39q-4 -77 -50 -119t-108 -42z" />
    <glyph glyph-name="afii10066" unicode="&#x431;" horiz-adv-x="1003" 
d="M291 408q-1 -184 63 -284q64 -99 174 -99t174 122q60 105 60 277t-62 273t-172 101q-111 0 -176 -108q-61 -98 -61 -282zM526 848q160 0 271 -96q137 -119 137 -329t-129 -339q-111 -109 -297 -109q-186 -1 -293 137q-108 138 -109 388q0 188 57 366q70 220 267 326
q70 38 194 72t151 46q28 12 61 44q33 33 45 82l30 -2q-29 -215 -254 -322q-59 -30 -168 -66t-157 -69q-175 -115 -152 -342h13q51 101 141 157t192 56z" />
    <glyph glyph-name="afii10067" unicode="&#x432;" horiz-adv-x="968" 
d="M356 485h84q113 1 170 53q58 52 58 133t-60 131t-182 50h-70v-367zM356 440v-313q0 -80 136 -80q106 0 161 55t56 134q0 113 -91 165q-63 39 -167 39h-95zM90 895h428q154 0 235 -57q81 -56 81 -152t-56 -142t-123 -63v-10q84 -17 154 -73t70 -167q0 -140 -134 -201
q-63 -30 -137 -30h-518v39q66 0 90 22t23 129v586q0 42 -22 62t-79 20h-12v37z" />
    <glyph glyph-name="afii10068" unicode="&#x433;" horiz-adv-x="837" 
d="M590 852h-234v-694q0 -76 27 -100t117 -19v-39h-410v39q61 -4 87 25t26 126v586q0 42 -22 62t-79 20h-12v37h696l52 -244l-39 -10l-68 119q-33 55 -62 74q-30 18 -79 18z" />
    <glyph glyph-name="afii10069" unicode="&#x434;" horiz-adv-x="983" 
d="M641 172v612l-8 43q-6 27 -62 27h-90q-76 0 -100 -45q-12 -20 -27 -131q-18 -180 -65 -330t-74 -206t-27 -66q0 -31 33 -31h307q72 1 92 25t21 102zM166 858v37h741v-37h-12q-57 0 -79 -19t-21 -63v-661q0 -70 55 -70h84v-381h-45l-86 254q-29 82 -117 82h-459
q-51 0 -73 -17t-33 -49l-88 -270h-45l8 381h12q78 1 131 65t111 258t59 365q0 81 -32 103t-84 22h-27z" />
    <glyph glyph-name="afii10070" unicode="&#x435;" horiz-adv-x="995" 
d="M618 662q70 0 70 61q0 67 -54 109t-139 42t-153 -57t-92 -155h368zM864 608h-622q-14 -100 -15 -151q-1 -150 99 -251t249 -102q105 0 189 58t125 155l39 -12q-45 -154 -162 -243q-118 -89 -276 -89t-287 120t-129 335t124 353t328 139q152 0 264 -88t111 -183
q0 -25 -7 -33t-30 -8z" />
    <glyph glyph-name="afii10072" unicode="&#x436;" horiz-adv-x="1372" 
d="M791 442h-29v-276q0 -86 18 -107t94 -20v-39h-376v39q76 0 94 20t18 107v276h-28q-74 0 -113 -37t-87 -173t-95 -190q-47 -52 -129 -52q-133 0 -166 157l37 9q1 -27 23 -59q22 -31 54 -31t56 45q8 16 22 61t27 78q45 125 127 172q59 35 137 45v4q-47 18 -72 53t-47 92
l-34 91q-31 80 -72 79q-18 0 -46 -20t-63 -20t-55 25t-20 61t30 58q31 22 79 22t88 -30q41 -30 59 -63t38 -86l41 -106q53 -139 170 -140h39v289q0 42 -22 62t-78 20h-10v37h372v-37h-10q-56 0 -78 -19t-22 -63v-289h39q117 0 170 140l41 106q20 53 39 86q18 33 58 63t88 30
t79 -22t31 -58q-1 -36 -21 -62t-55 -25t-63 21t-46 20q-41 0 -71 -79l-35 -91q-44 -117 -119 -145v-4q78 -10 137 -45q82 -47 127 -172q13 -33 27 -78t22 -61q23 -45 56 -45t54 32t23 58l37 -9q-33 -157 -163 -157q-83 0 -131 52t-96 190t-87 174t-112 36z" />
    <glyph glyph-name="afii10073" unicode="&#x437;" horiz-adv-x="880" 
d="M84 226q18 22 61 22t64 -46q6 -15 14 -46t13 -41q32 -92 158 -92t184 75q41 55 40 140q0 115 -81 165q-47 31 -125 31h-101v49h95q94 0 145 72q39 51 39 135t-52 134t-128 50q-161 0 -224 -217l-12 -45h-43v232q161 76 313 76t232 -66t80 -162q0 -98 -58 -152t-145 -67
v-4q92 -14 147 -57q90 -66 90 -184t-100 -184q-102 -66 -262 -66q-239 -1 -332 118q-56 75 -12 130z" />
    <glyph glyph-name="afii10074" unicode="&#x438;" horiz-adv-x="1146" 
d="M791 786q0 72 -101 72h-10v37h377v-37h-13q-57 0 -78 -19t-22 -63v-610q0 -86 20 -107t93 -20v-39h-377v39q70 -6 94 24q16 16 17 95v524l-435 -543v-26q0 -29 22 -55t89 -19v-39h-377v39q74 0 93 20t20 107v610q0 42 -22 62t-79 20h-12v37h377v-37h-10q-57 0 -79 -19
t-22 -63v-559l435 545v24z" />
    <glyph glyph-name="afii10075" unicode="&#x439;" horiz-adv-x="1146" 
d="M719 1188q0 18 -10 46q-11 28 -11 58t23 57q23 25 57 25t61 -24q25 -24 25 -92t-74 -140t-216 -72q-144 0 -218 72t-74 140t26 92t61 24t57 -26t23 -66l-21 -98q0 -43 42 -68q42 -24 106 -24t104 26q39 26 39 70zM791 786q0 72 -101 72h-10v37h377v-37h-13q-57 0 -78 -19
t-22 -63v-610q0 -86 20 -107t93 -20v-39h-377v39q70 -6 94 24q16 16 17 95v524l-435 -543v-26q0 -29 22 -55t89 -19v-39h-377v39q74 0 93 20t20 107v610q0 42 -22 62t-79 20h-12v37h377v-37h-10q-57 0 -79 -19t-22 -63v-559l435 545v24z" />
    <glyph glyph-name="afii10076" unicode="&#x43a;" horiz-adv-x="1007" 
d="M385 442h-29v-284q0 -78 17 -95q25 -31 94 -24v-39h-377v39q74 0 93 20t20 107v610q0 42 -22 62t-79 20h-12v37h377v-37h-10q-57 0 -79 -19t-22 -63v-289h39q131 0 195 108q10 17 16 32l41 106q20 53 39 86q18 33 58 63t92 30t78 -24q28 -24 28 -58t-20 -60t-56 -25
t-62 21q-28 20 -46 20q-41 0 -72 -79l-35 -91q-51 -123 -139 -145v-4q203 -16 285 -217q14 -39 27 -80t22 -59q24 -45 56 -45t53 32t24 58l37 -9q-33 -157 -164 -157q-80 0 -137 54t-101 188t-89 172q-46 38 -140 38z" />
    <glyph glyph-name="afii10077" unicode="&#x43b;" horiz-adv-x="1003" 
d="M537 0v39q70 -6 94 24q16 16 16 95v610q0 82 -69 82h-37q-23 0 -31 -2t-25 -6t-33 -23q-16 -20 -26 -44t-46 -236t-67 -314q-72 -240 -227 -237q-45 0 -74 22q-28 22 -28 65q0 41 22 63t46 22q26 0 43 -24t69 -24t80 68q34 76 72 268t38 272q0 82 -26 108t-78 30l-37 2
v35h700v-37h-12q-57 0 -79 -19t-21 -63v-610q0 -84 16 -103q12 -12 43 -19t53 -5v-39h-376z" />
    <glyph glyph-name="afii10078" unicode="&#x43c;" horiz-adv-x="1290" 
d="M1200 895v-37h-12q-56 0 -78 -19t-23 -63v-610q0 -86 20 -107t93 -20v-39h-377v39q70 -6 95 24q16 16 16 95v614l-309 -772h-41l-332 772v-614q0 -78 16 -95q25 -31 94 -24v-39h-272v39q74 0 93 20t20 107v610q0 42 -22 62t-79 20h-12v37h279l288 -682l271 682h272z" />
    <glyph glyph-name="afii10079" unicode="&#x43d;" horiz-adv-x="1114" 
d="M467 895v-37h-10q-57 0 -79 -19t-22 -63v-282h402v282q0 42 -22 62t-79 20h-10v37h377v-37h-12q-56 0 -78 -19t-23 -63v-610q0 -86 20 -107t93 -20v-39h-377v39q70 -6 94 24q16 16 17 95v286h-402v-286q0 -78 17 -95q25 -31 94 -24v-39h-377v39q74 0 93 20t20 107v610
q0 42 -22 62t-79 20h-12v37h377z" />
    <glyph glyph-name="afii10080" unicode="&#x43e;" horiz-adv-x="983" 
d="M496 870q-104 0 -180 -98t-74 -324q0 -226 74 -325q75 -98 168 -98t168 81q40 44 65 132t24 211q0 213 -70 317q-71 104 -175 104zM72 450q0 212 115 341t305 129t306 -129t116 -339t-116 -343q-114 -133 -304 -133t-307 130q-115 132 -115 344z" />
    <glyph glyph-name="afii10081" unicode="&#x43f;" horiz-adv-x="1114" 
d="M467 0h-377v39q74 0 93 20t20 107v610q0 42 -22 62t-79 20h-12v37h934v-37h-12q-56 0 -78 -19t-23 -63v-610q0 -86 20 -107t93 -20v-39h-377v39q70 -6 94 24q16 16 17 95v604q0 38 -14 60t-30 26q-15 4 -40 4h-252q-31 0 -46 -17q-16 -17 -18 -31t-2 -42v-604
q0 -78 17 -95q24 -30 94 -24v-39z" />
    <glyph glyph-name="afii10082" unicode="&#x440;" horiz-adv-x="1114" 
d="M346 420q0 -195 27 -253q42 -95 102 -121q41 -17 94 -17q129 1 212 113t83 294t-101 292q-101 112 -226 112q-95 0 -191 -74v-346zM346 -283q0 -55 14 -83t48 -34t90 -3v-37h-420v37q103 -5 110 54q2 15 2 44v956q0 61 -18 92t-78 54v24q127 39 236 99h16v-103
q127 96 291 96q165 1 277 -121t112 -328t-136 -346t-345 -141q-105 0 -199 35v-295z" />
    <glyph glyph-name="afii10083" unicode="&#x441;" horiz-adv-x="909" 
d="M479 -23q-176 1 -290 137q-113 136 -113 344t131 336t285 128t247 -74q94 -74 95 -156q0 -35 -25 -55t-53 -21q-51 0 -72 54q-2 4 -19 66t-34 89q-32 49 -107 49q-116 0 -200 -98t-84 -280t95 -292q95 -108 218 -108q88 0 158 52q69 53 108 135l31 -15
q-50 -131 -150 -211t-221 -80z" />
    <glyph glyph-name="afii10084" unicode="&#x442;" horiz-adv-x="862" 
d="M651 0h-440v39q90 -4 121 22q23 23 22 84v707h-102q-45 0 -79 -18t-62 -74l-68 -129l-39 10l51 254h752l51 -254l-39 -10l-67 129q-29 56 -63 74t-79 18h-102v-707q0 -61 22 -84q31 -26 121 -22v-39z" />
    <glyph glyph-name="afii10085" unicode="&#x443;" horiz-adv-x="933" 
d="M-25 858v37h437v-37l-50 -4q-94 -6 -96 -53q0 -12 17 -45l286 -539l172 514q11 27 11 61q1 61 -73 66q-28 2 -75 0v37h346v-37q-81 0 -106 -38t-43 -87l-336 -950q-11 -45 -20 -62q-9 -15 -17 -39t-13 -31t-16 -26t-30 -36t-45 -24t-57 -7t-53 28t-22 64q0 37 27 57
t57 21l70 -11q23 1 39 13t19 20t12 27l86 246l-396 725q-18 35 -30 53q-12 17 -39 37t-62 20z" />
    <glyph glyph-name="afii10086" unicode="&#x444;" horiz-adv-x="1390" 
d="M621 201v577q-57 58 -155 58t-166 -94q-67 -94 -67 -309q0 -214 66 -304t150 -90t128 46t44 116zM770 201q0 -70 44 -116t128 -46t150 90t66 304t-67 308t-165 94t-156 -57v-577zM903 -440h-416v37q86 -3 109 25t22 95v308q-84 -43 -169 -43q-181 0 -279 142t-98 344
t110 325q94 102 252 102q98 0 184 -51v323q0 39 -3 59t-28 48q-26 27 -77 35v26q137 37 244 101h18v-592q86 51 182 51q160 0 254 -102q111 -123 111 -325t-98 -344t-277 -142q-92 0 -172 43v-308q0 -68 22 -96t109 -24v-37z" />
    <glyph glyph-name="afii10087" unicode="&#x445;" horiz-adv-x="968" 
d="M23 0v39h6q80 0 126 36t115 130l170 229l-262 354q-39 53 -104 64l-37 6v37h414v-37l-35 -4q-51 -6 -51 -33q0 -20 16 -45l158 -223l145 209q18 25 18 55q0 41 -98 41h-26v37h364v-37q-57 0 -97 -18q-41 -18 -57 -36t-47 -59l-172 -227l250 -364q45 -70 87 -90t91 -25
v-39h-477v39l68 4q78 6 78 49q0 23 -41 80l-158 219l-150 -213q-49 -68 -49 -98q0 -41 92 -41h29v-39h-366z" />
    <glyph glyph-name="afii10088" unicode="&#x446;" horiz-adv-x="1101" 
d="M467 895v-37h-10q-57 0 -79 -19t-22 -63v-639q0 -92 76 -92h262q31 0 46 17q16 18 18 32t2 43v639q0 42 -22 62t-79 20h-10v37h377v-37h-12q-56 0 -78 -19t-23 -63v-661q0 -70 56 -70h84v-381h-45l-86 254q-29 82 -117 82h-715v39q74 0 93 20t20 107v610q0 42 -22 62
t-79 20h-12v37h377z" />
    <glyph glyph-name="afii10089" unicode="&#x447;" horiz-adv-x="1007" 
d="M279 553q0 -143 167 -141q96 0 205 39v325q1 42 -21 62t-79 20h-10v37h377v-37h-13q-57 0 -79 -19t-21 -63v-586q1 -100 25 -126t88 -25v-39h-400v39q88 0 111 21t22 98v239q-151 -47 -275 -47q-250 0 -251 234v192q0 42 -22 62t-78 20h-13v37h377v-37h-10q-57 0 -79 -19
t-21 -63v-223z" />
    <glyph glyph-name="afii10090" unicode="&#x448;" horiz-adv-x="1574" 
d="M1485 895v-37h-12q-57 0 -79 -19t-22 -63v-610q0 -86 17 -103q20 -25 96 -24v-39h-1395v39q74 0 93 20t20 107v610q0 42 -22 62t-79 20h-12v37h377v-37h-10q-57 0 -79 -19t-22 -63v-639q0 -27 3 -42t23 -33t58 -17h205q31 0 46 17q15 18 17 32t3 43v639q0 42 -22 62
t-79 20h-10v37h375v-37h-10q-57 0 -79 -19t-22 -63v-639q0 -27 3 -42t23 -33t58 -17h205q31 0 46 17q15 18 17 32t3 43v639q0 42 -22 62t-79 20h-10v37h377z" />
    <glyph glyph-name="afii10091" unicode="&#x449;" horiz-adv-x="1560" 
d="M1485 895v-37h-12q-57 0 -79 -19t-22 -63v-661q0 -70 55 -70h84v-381h-45l-86 254q-29 82 -116 82h-1174v39q74 0 93 20t20 107v610q0 42 -22 62t-79 20h-12v37h377v-37h-10q-57 0 -79 -19t-22 -63v-639q0 -27 3 -42t23 -33t58 -17h205q31 0 46 17q15 18 17 32t3 43v639
q0 42 -22 62t-79 20h-10v37h375v-37h-10q-57 0 -79 -19t-22 -63v-639q0 -27 3 -42t23 -33t58 -17h205q31 0 46 17q15 18 17 32t3 43v639q0 42 -22 62t-79 20h-10v37h377z" />
    <glyph glyph-name="afii10092" unicode="&#x44a;" horiz-adv-x="1075" 
d="M524 455v-316q0 -92 105 -92q137 0 192 84q33 47 33 119q0 119 -82 172q-51 33 -137 33h-111zM258 0v39q74 0 93 20t20 107v600q0 84 -72 84h-61q-49 0 -82 -18t-60 -72l-67 -129l-39 10l51 254h596v-37h-12q-57 0 -79 -19t-22 -63v-270h164q131 0 205 -37
q133 -61 133 -215q0 -125 -98 -197q-78 -57 -199 -57h-471z" />
    <glyph glyph-name="afii10093" unicode="&#x44b;" horiz-adv-x="1359" 
d="M356 455v-316q0 -92 107 -92q135 0 190 84q33 51 33 117q0 123 -82 174q-51 33 -137 33h-111zM90 0v39q74 0 93 20t20 107v610q0 42 -22 62t-79 20h-12v37h379v-37h-12q-57 0 -79 -19t-22 -63v-270h164q131 0 205 -37q133 -61 133 -215q0 -125 -98 -197q-78 -57 -199 -57
h-471zM891 895h379v-37h-13q-57 0 -78 -19t-22 -63v-610q0 -86 20 -107t93 -20v-39h-379v39q74 0 93 20t20 107v610q0 42 -22 62t-79 20h-12v37z" />
    <glyph glyph-name="afii10094" unicode="&#x44c;" horiz-adv-x="907" 
d="M686 246q0 209 -219 209h-111v-316q0 -92 107 -92q135 0 190 84q33 53 33 115zM90 0v39q74 0 93 20t20 107v610q0 42 -22 62t-79 20h-12v37h379v-37h-12q-57 0 -79 -19t-22 -63v-270h164q131 0 205 -37q133 -61 133 -213q0 -127 -98 -199q-78 -57 -199 -57h-471z" />
    <glyph glyph-name="afii10095" unicode="&#x44d;" horiz-adv-x="954" 
d="M285 496h428q-4 131 -45 221q-76 158 -238 157q-202 0 -260 -217l-12 -45h-43v232q168 76 344 76t286 -97q139 -127 139 -346t-104 -350q-121 -150 -356 -150t-328 119q-56 75 -12 129q18 23 59 23t61 -37q7 -14 17 -44q16 -47 43 -88q37 -56 137 -56q186 0 269 176
q49 111 43 247h-428v50z" />
    <glyph glyph-name="afii10096" unicode="&#x44e;" horiz-adv-x="1415" 
d="M932 870q-90 0 -166 -96t-76 -325q0 -325 166 -406q37 -18 76 -18q88 0 165 97t77 327q0 322 -167 403q-38 18 -75 18zM469 895v-37h-12q-57 0 -79 -19t-22 -63v-278h166q8 188 126 305t292 117t290 -130t116 -348t-124 -342t-290 -125q-201 1 -306 143t-106 333h-164
v-285q0 -86 17 -103q20 -25 96 -24v-39h-379v39q74 0 93 20t20 107v610q0 42 -22 62t-79 20h-12v37h379z" />
    <glyph glyph-name="afii10097" unicode="&#x44f;" 
d="M668 438v307q0 105 -106 105t-159 -53q-53 -57 -53 -157t66 -150q66 -52 170 -52h82zM934 895v-37h-12q-56 0 -78 -19t-23 -67v-606q0 -86 20 -107t93 -20v-39h-377v39q70 -6 94 24q16 16 17 95v235h-72q-70 0 -108 -31q-38 -32 -86 -152t-96 -170q-46 -50 -125 -50
t-126 61q-27 39 -39 96l37 9q2 -27 24 -59q23 -31 55 -31t56 43q10 18 28 61q17 43 26 59q76 160 215 174v5q-121 6 -200 70t-79 174t92 176t279 67h385z" />
    <glyph glyph-name="afii10071" unicode="&#x451;" horiz-adv-x="991" 
d="M784 1147q0 -43 -28 -73t-69 -30q-42 0 -72 29q-29 29 -29 73t32 72q67 57 135 0q31 -28 31 -71zM442 1146q0 -44 -30 -73t-71 -29q-42 0 -70 30q-27 30 -27 73t31 71q65 57 135 0q32 -28 32 -72zM616 662q70 0 70 61q0 67 -54 109t-139 42t-153 -57t-92 -155h368z
M862 608h-622q-14 -100 -15 -151q-1 -150 99 -251t249 -102q105 0 189 58t125 155l39 -12q-45 -154 -162 -243q-118 -89 -276 -89t-287 120t-129 335t124 353t328 139q152 0 264 -88t111 -181q0 -25 -7 -34t-30 -9z" />
    <glyph glyph-name="afii10099" unicode="&#x452;" horiz-adv-x="1062" 
d="M569 -348q127 0 164 180q33 156 33 404v274q0 160 -39 240t-156 79q-70 1 -132 -37t-99 -108v-526q0 -78 14 -94t46 -22q32 -7 53 -3v-39h-379v39q66 -6 96 35q16 23 16 116v885h-206v72h206v20q0 39 -4 61t-26 46t-64 39v24q141 43 236 99h12v-289h315v-72h-315v-317
q121 164 293 164q145 0 209 -95t77 -202t13 -280q0 -471 -168 -650q-94 -98 -215 -98t-175 49t-54 104t22 82t64 27t68 -31t26 -76l-2 -45q0 -19 18 -37t53 -18z" />
    <glyph glyph-name="afii10100" unicode="&#x453;" horiz-adv-x="747" 
d="M377 1030l289 299q98 98 150 38q19 -22 20 -48q0 -47 -62 -84l-330 -205h-67zM590 852h-234v-694q0 -76 27 -100t117 -19v-39h-410v39q61 -4 87 25t26 126v586q0 42 -22 62t-79 20h-12v37h696l52 -244l-39 -10l-68 119q-33 55 -62 74q-30 18 -79 18z" />
    <glyph glyph-name="afii10101" unicode="&#x454;" horiz-adv-x="909" 
d="M479 -23q-163 0 -283 125t-120 361t139 360q106 97 264 97t330 -78v-221h-57l-11 45q-48 208 -221 208q-152 0 -227 -157q-49 -100 -45 -228h428v-49h-428q8 -154 99 -249t193 -95q191 0 279 187l31 -15q-48 -131 -148 -211t-223 -80z" />
    <glyph glyph-name="afii10102" unicode="&#x455;" horiz-adv-x="792" 
d="M102 297h39q40 -198 129 -252q38 -23 104 -23t116 52q50 51 50 127q0 75 -43 117q-58 55 -155 102t-113 61q-16 13 -36 29q-19 16 -27 26t-22 28q-32 40 -31 126q0 86 75 158q76 72 208 72t257 -70v-217h-43q-6 74 -45 139q-66 109 -176 109q-67 0 -109 -37t-42 -81
t8 -68q13 -38 119 -99l63 -35q111 -57 162 -96q102 -78 102 -206t-100 -205t-236 -77t-254 68v252z" />
    <glyph glyph-name="afii10103" unicode="&#x456;" horiz-adv-x="561" 
d="M379 1327q0 -41 -32 -73t-76 -32q-45 0 -75 32t-30 77t30 75t78 30t76 -34q29 -34 29 -75zM365 920v-762q-1 -76 21 -101t91 -18v-39h-387v39q74 -4 92 28t19 123v461q0 39 -4 61t-26 46t-65 39v24q127 39 236 99h23z" />
    <glyph glyph-name="afii10104" unicode="&#x457;" horiz-adv-x="567" 
d="M457 1286q35 0 67 -28t31 -70q0 -42 -28 -73q-27 -30 -69 -30t-72 29t-30 73q0 43 33 71t68 28zM104 1286q35 0 68 -28t33 -72t-30 -72q-30 -29 -72 -29q-41 0 -69 30t-28 73q0 42 32 70t66 28zM383 920v-762q-1 -76 21 -101t92 -18v-39h-387v39q74 -4 92 28t18 123v461
q0 39 -4 61t-26 46t-64 39v24q127 39 235 99h23z" />
    <glyph glyph-name="afii10105" unicode="&#x458;" horiz-adv-x="514" 
d="M367 1329q0 -43 -32 -75t-77 -32t-76 32q-30 32 -30 77t30 75q31 30 75 30t77 -32t33 -75zM346 920v-889q0 -248 -85 -363t-208 -114q-63 0 -106 30t-43 72q0 43 21 62q22 19 52 20q58 0 121 -84q23 -31 39 -31q53 0 51 146v882q0 59 -18 91t-78 55v24q141 43 236 99h18z
" />
    <glyph glyph-name="afii10106" unicode="&#x459;" horiz-adv-x="1351" 
d="M911 455h-110v-316q0 -92 106 -92q135 0 191 84q33 53 32 115q0 209 -219 209zM213 895h700v-37h-12q-57 0 -79 -19t-21 -63v-270h164q131 0 204 -37q133 -61 133 -201t-98 -211q-78 -57 -198 -57h-471v39q72 -6 96 24q16 16 16 95v610q0 82 -69 82h-37q-23 0 -31 -2
t-25 -6t-33 -23q-16 -20 -26 -44t-46 -236t-67 -314q-72 -240 -227 -237q-45 0 -74 22q-28 22 -28 65q0 41 22 63t46 22q26 0 43 -24t69 -24t80 68q34 76 72 268t38 272q0 82 -26 108t-78 30l-37 2v35z" />
    <glyph glyph-name="afii10107" unicode="&#x45a;" horiz-adv-x="1462" 
d="M911 455v-316q0 -92 113 -92t165 59t52 140q0 209 -219 209h-111zM911 506h164q190 0 264 -75t74 -183t-82 -178t-215 -70h-469v39q70 -6 94 24q16 16 17 95v286h-402v-286q0 -78 17 -95q25 -31 94 -24v-39h-377v39q74 0 93 20t20 107v610q0 42 -22 62t-79 20h-12v37h377
v-37h-10q-57 0 -79 -19t-22 -63v-282h402v282q0 42 -22 62t-79 20h-10v37h377v-37h-12q-56 0 -78 -19t-23 -63v-270z" />
    <glyph glyph-name="afii10108" unicode="&#x45b;" horiz-adv-x="1105" 
d="M84 0v39q66 -6 96 35q16 23 17 116v885h-207v72h207v20q0 39 -4 61t-26 46t-65 39v24q141 43 236 99h12v-289h316v-72h-316v-317q121 164 291 164t229 -121q60 -121 60 -297v-363q0 -63 20 -86t92 -16v-39h-372v39q26 -2 54 6t38 25q14 18 14 96v344q0 160 -39 240
t-155 79q-70 1 -132 -37t-100 -108v-526q0 -78 14 -94t47 -22q32 -7 52 -3v-39h-379z" />
    <glyph glyph-name="afii10109" unicode="&#x45c;" horiz-adv-x="925" 
d="M418 1030l289 299q98 98 150 38q19 -22 20 -48q0 -47 -62 -84l-330 -205h-67zM385 442h-29v-284q0 -78 17 -95q25 -31 94 -24v-39h-377v39q74 0 93 20t20 107v610q0 42 -22 62t-79 20h-12v37h377v-37h-10q-57 0 -79 -19t-22 -63v-289h39q131 0 195 108q10 17 16 32
l41 106q20 53 39 86q18 33 58 63t92 30t78 -24q28 -24 28 -58t-20 -60t-56 -25t-62 21q-28 20 -46 20q-41 0 -72 -79l-35 -91q-51 -123 -139 -145v-4q203 -16 285 -217q14 -39 27 -80t22 -59q24 -45 56 -45t53 32t24 58l37 -9q-33 -157 -164 -157q-80 0 -137 54t-101 188
t-89 172q-46 38 -140 38z" />
    <glyph glyph-name="afii10110" unicode="&#x45e;" horiz-adv-x="927" 
d="M-25 858v37h437v-37l-50 -4q-94 -6 -96 -53q0 -12 17 -45l286 -539l172 514q11 27 11 61q1 61 -73 66q-28 2 -75 0v37h346v-37q-81 0 -106 -38t-43 -87l-336 -950q-11 -45 -20 -62q-9 -15 -17 -39t-13 -31t-16 -26t-30 -36t-45 -24t-57 -7t-53 28t-22 64q0 37 27 57
t57 21l70 -11q23 1 39 13t19 20t12 27l86 246l-396 725q-18 35 -30 53q-12 17 -39 37t-62 20zM795 1258q0 -68 -74 -140t-217 -72t-217 72t-74 140t26 92q27 24 61 24t56 -26t23 -54q0 -30 -10 -63t-11 -47q0 -43 42 -68q42 -24 107 -24t103 26t39 70q0 18 -10 46t-10 58
t22 57q23 25 58 25t61 -24t25 -92z" />
    <glyph glyph-name="afii10193" unicode="&#x45f;" horiz-adv-x="1112" 
d="M645 895h377v-39q-76 0 -96 -25q-16 -16 -17 -102v-610q0 -43 22 -63t79 -19h12v-37h-444q0 -106 53 -229q23 -53 23 -90t-33 -62t-67 -25t-66 25t-31 62q0 37 22 90q53 123 53 229h-444v37h12q56 0 78 19t23 63v610q0 87 -20 107t-93 20v39h377v-39q-70 6 -94 -25
q-16 -16 -17 -94v-612q0 -82 84 -82h252q20 0 33 4q31 10 33 78v612q0 78 -17 94q-24 31 -94 25v39z" />
    <glyph glyph-name="afii10146" unicode="&#x462;" horiz-adv-x="1472" 
d="M672 186q0 -104 64 -127q34 -12 85 -12h74q141 0 227 117q58 78 58 230t-94 243q-94 90 -310 90q-59 0 -104 -4v-537zM1405 393q0 -158 -109 -262q-62 -59 -166 -95t-210 -36h-609v49h13q86 0 112 22t25 128v958l-144 -8q-63 -6 -122 -93q-66 -90 -103 -145l-39 -53
l-24 19l75 366q109 -33 275 -33h82v90q0 56 -27 76t-104 21h-19v49h527v-47l-80 -2q-88 -2 -88 -113v-74h176q166 0 274 33l72 -366l-25 -19l-39 53q-12 17 -49 71t-57 81t-53 55t-62 31l-63 6q-74 6 -142 6h-32v-387l161 6q574 0 574 -387z" />
    <glyph glyph-name="afii10194" unicode="&#x463;" horiz-adv-x="999" 
d="M449 455v-316q1 -92 113 -92t164 59t52 140q0 209 -219 209h-110zM182 0v39q76 0 94 20t19 107v686h-41q-45 0 -79 -18t-62 -74l-68 -129l-39 10l51 254h238v272q0 39 -4 61t-26 46t-64 39v24q141 43 235 99h13v-541h313l51 -254l-39 -10l-67 129q-29 56 -63 74t-79 18
h-116v-346h163q190 0 264 -75t74 -183t-82 -178t-215 -70h-471z" />
    <glyph glyph-name="afii10147" unicode="&#x472;" horiz-adv-x="1564" 
d="M305 743h959q-2 303 -140 481t-336 177q-199 1 -341 -181t-142 -477zM1264 688h-959q-4 -280 131 -472t339 -192q203 0 345 176q142 175 144 488zM780 1446q304 0 502 -206q197 -206 197 -531q0 -326 -194 -530t-502 -204q-307 0 -501 213q-194 214 -194 530t194 522
t498 206z" />
    <glyph glyph-name="afii10195" unicode="&#x473;" horiz-adv-x="983" 
d="M741 424l-499 -2q-2 -182 70 -290t180 -108q109 0 179 108t70 292zM242 481h499q0 180 -70 285q-71 104 -179 104t-180 -105q-70 -106 -70 -284zM72 450q0 212 115 341t305 129t306 -129t116 -339t-116 -343q-114 -133 -304 -133t-307 130q-115 132 -115 344z" />
    <glyph glyph-name="afii10148" unicode="&#x474;" horiz-adv-x="1337" 
d="M-63 1421h555v-47l-64 -4q-49 -2 -76 -15t-33 -27t-6 -36q0 -23 17 -67l372 -942l328 913q67 184 147 229q42 25 97 25t96 -32t41 -87t-35 -84t-77 -29q-43 0 -81 32q-38 30 -49 30q-39 0 -75 -100l-443 -1209h-41l-528 1323q-29 72 -84 76l-61 4v47z" />
    <glyph glyph-name="afii10196" unicode="&#x475;" horiz-adv-x="1021" 
d="M-2 895h416v-41h-23q-35 0 -53 -1t-36 -12t-19 -34q0 -23 16 -62l207 -559l244 580q61 150 170 149q44 1 78 -23t34 -63t-19 -65t-51 -25t-49 9q-16 8 -35 27t-32 30q-32 -27 -40 -41q-7 -14 -13 -28t-9 -19l-317 -735h-45l-295 784q-18 50 -47 68t-82 20v41z" />
    <glyph glyph-name="afii10050" unicode="&#x490;" horiz-adv-x="1167" 
d="M123 1372v49h729q129 0 180 82l146 226l43 -17l-91 -385q-80 47 -212 47h-437v-1224q0 -121 181 -103v-47h-539v49h14q86 0 111 23t24 118v1086q0 72 -38 84t-76 12h-35z" />
    <glyph glyph-name="afii10098" unicode="&#x491;" horiz-adv-x="747" 
d="M410 0h-410v39q61 -4 87 25t26 126v586q0 42 -22 62t-79 20h-12v37h500q49 0 79 18t62 74l68 119l39 -10l-52 -244h-430v-694q0 -76 27 -100t117 -19v-39z" />
    <glyph glyph-name="cyrgehook" unicode="&#x495;" horiz-adv-x="811" 
d="M434 33q64 -1 114 67t50 252v94q0 174 -79 254t-185 80t-334 -82v52q233 92 387 92q195 0 309 -114t115 -300q0 -116 -39 -204q-39 -87 -83 -135t-121 -81t-176 -33t-164 44q-64 43 -64 113t31 100t79 30t75 -36q28 -36 28 -76l-6 -60q-1 -57 63 -57z" />
    <glyph glyph-name="cyrstraightU" unicode="&#x4ae;" horiz-adv-x="1058" 
d="M643 193q0 -92 25 -123t127 -21v-49h-514v49h14q85 0 111 22t26 128v444l-362 631q-61 102 -148 100v47h510v-47q-141 8 -141 -63q0 -16 18 -49l309 -529l246 424q59 102 60 143q0 76 -123 80v41h362v-47q-67 -2 -107 -38t-93 -124l-320 -534v-485z" />
    <glyph glyph-name="cyrstraightu" unicode="&#x4af;" horiz-adv-x="937" 
d="M-25 895h437v-37l-50 -4q-94 -6 -96 -53q0 -8 17 -45l245 -539l213 514q31 85 -6 108t-127 19v37h346v-37q-63 0 -95 -29t-58 -96l-238 -588v-450q0 -54 18 -78t95 -20v-37h-381v37q77 -4 95 20t18 78v436l-302 617q-53 106 -131 110v37z" />
    <glyph glyph-name="cyrstraightUbar" unicode="&#x4b0;" horiz-adv-x="1058" 
d="M991 680v-49h-348v-438q0 -92 25 -123t127 -21v-49h-514v49h14q85 0 111 22t26 128v432h-348v49h328l-342 594q-61 102 -148 100v47h510v-47q-141 8 -141 -63q0 -16 18 -49l309 -529l246 424q59 102 60 143q0 76 -123 80v41h362v-47q-67 -2 -107 -38t-93 -124l-318 -532
h346z" />
    <glyph glyph-name="cyrstraightubar" unicode="&#x4b1;" horiz-adv-x="937" 
d="M-25 895h437v-37l-50 -4q-94 -6 -96 -53q0 -8 17 -45l245 -539l213 514q31 85 -6 108t-127 19v37h346v-37q-63 0 -95 -29t-58 -96l-238 -588v-110h258v-53h-258v-287q0 -54 18 -78t95 -20v-37h-381v37q77 -4 95 20t18 78v287h-263v53h263v96l-302 617q-53 106 -131 110
v37z" />
    <glyph glyph-name="cyrh" unicode="&#x4bb;" horiz-adv-x="1103" 
d="M82 0v39q66 -6 96 35q16 23 17 116v977q0 39 -5 61q-4 22 -26 46t-64 39v24q141 43 236 99h12v-678q121 164 291 164t229 -121q60 -121 60 -297v-363q0 -63 20 -86t92 -16v-39h-372v39q26 -2 54 6t38 25q14 18 14 96v344q0 160 -39 240t-155 79q-70 0 -133 -37
q-62 -38 -99 -108v-526q0 -78 14 -94t47 -22q32 -7 52 -3v-39h-379z" />
    <glyph glyph-name="cyrI" unicode="&#x4c0;" horiz-adv-x="555" 
d="M358 1436v-1278q0 -78 22 -101t89 -18v-39h-379v39q68 -4 96 33q16 23 17 118v977q-1 61 -19 93t-75 53v24q123 37 235 99h14z" />
    <glyph glyph-name="cyrAcyrbreve" unicode="&#x4d0;" horiz-adv-x="1337" 
d="M315 592h439l-228 582zM-59 0v49l69 12q27 4 44 25q18 22 26 34t17 36q9 23 20 45t20 61l352 938q12 37 -6 72l-18 31q100 74 153 157h19l500 -1300q25 -63 57 -88t94 -23v-49h-536v49l63 8q63 10 82 26q18 15 18 44t-14 63l-125 342h-481l-105 -284q-29 -80 -28 -113
q0 -66 117 -82l43 -6v-47h-381zM1040 1759q0 -90 -97 -168t-273 -78t-274 78q-97 78 -97 168q0 49 28 67t58 19q94 0 100 -139q7 -107 83 -132q40 -13 102 -13t101 13q76 25 83 132q6 139 100 139q31 0 59 -18q27 -19 27 -68z" />
    <glyph glyph-name="cyracyrbreve" unicode="&#x4d1;" horiz-adv-x="878" 
d="M219 238q0 -68 46 -108t119 -40t167 82v309q-164 -59 -254 -123q-78 -52 -78 -120zM690 -18q-62 0 -103 36q-40 36 -42 103q-137 -143 -275 -144q-86 1 -139 51t-53 132q0 141 170 237q113 66 309 135v205q0 123 -115 123q-68 0 -123 -28t-63 -82q0 -76 -12 -111
q-20 -61 -88 -61q-78 0 -78 75q0 66 94 142q160 127 336 127q94 0 150 -49t57 -224v-520q0 -55 41 -55q20 0 36 20q15 20 17 49h39q-4 -77 -50 -119t-108 -42zM584 1188q0 18 -11 46q-10 28 -10 58t23 57q24 25 58 25t60 -24t25 -92q0 -68 -74 -140t-217 -72t-217 72
t-74 140t26 92q27 24 61 24t57 -26t22 -66l-20 -98q0 -43 42 -68q43 -24 107 -24t103 26t39 70z" />
    <glyph glyph-name="cyrAdieresis" unicode="&#x4d2;" horiz-adv-x="1337" 
d="M315 592h439l-228 582zM-59 0v49l69 12q27 4 44 25q18 22 26 34t17 36q9 23 20 45t20 61l352 938q12 37 -6 72l-18 31q100 74 153 157h19l500 -1300q25 -63 57 -88t94 -23v-49h-536v49l63 8q63 10 82 26q18 15 18 44t-14 63l-125 342h-481l-105 -284q-29 -80 -28 -113
q0 -66 117 -82l43 -6v-47h-381zM844 1747q34 0 66 -28q32 -29 32 -71t-28 -72t-70 -30t-71 29q-30 29 -30 73t33 72t68 27zM492 1747q36 0 68 -28q32 -27 32 -71t-30 -73t-72 -29t-69 30q-28 30 -28 73t32 71t67 27z" />
    <glyph glyph-name="cyradieresis" unicode="&#x4d3;" horiz-adv-x="878" 
d="M219 238q0 -68 46 -108t119 -40t167 82v309q-164 -59 -254 -123q-78 -52 -78 -120zM690 -18q-62 0 -103 36q-40 36 -42 103q-137 -143 -275 -144q-86 1 -139 51t-53 132q0 141 170 237q113 66 309 135v205q0 123 -115 123q-68 0 -123 -28t-63 -82q0 -76 -12 -111
q-20 -61 -88 -61q-78 0 -78 75q0 66 94 142q160 127 336 127q94 0 150 -49t57 -224v-520q0 -55 41 -55q20 0 36 20q15 20 17 49h39q-4 -77 -50 -119t-108 -42zM616 1286q35 0 67 -28t32 -70t-28 -73q-28 -30 -70 -30q-41 0 -71 29t-30 73q0 43 32 71t68 28zM264 1286
q35 0 68 -28t33 -72t-30 -72q-30 -29 -72 -29q-41 0 -69 30t-28 73q0 42 32 70t66 28z" />
    <glyph glyph-name="cyrAE" unicode="&#x4d4;" horiz-adv-x="1751" 
d="M668 0v47q100 2 125 33t24 129v418h-428l-231 -408q-37 -66 -37 -94q0 -80 160 -82v-43h-400v43q49 4 89 33q40 30 63 62t48 76t30 52l559 955q25 43 24 73q0 80 -131 80h-18v47h1024l102 -325l-43 -17q-117 184 -194 236t-213 57q-47 2 -146 2h-49v-624h35l18 -2
q151 0 215 56t84 206h37v-570h-37q-20 150 -85 205t-214 55h-53v-499q0 -88 30 -121t122 -33q188 0 285 65t220 271l39 -12l-77 -371h-977zM817 682v668l-393 -668h393z" />
    <glyph glyph-name="cyrae" unicode="&#x4d5;" horiz-adv-x="1458" 
d="M1081 657q72 1 72 63t-53 106t-141 44t-154 -56q-65 -57 -92 -157h368zM1327 604h-625q-14 -90 -14 -131q0 -160 100 -265t248 -106q106 0 192 58t124 155l37 -12q-49 -154 -163 -241t-263 -87q-223 0 -357 193q-203 -197 -340 -197q-84 -1 -138 51t-54 134
q0 114 114 198t369 174v205q0 123 -115 123q-59 0 -114 -27q-54 -27 -62 -50t-11 -85q-5 -122 -91 -121q-86 0 -86 75t144 171t287 96q144 0 187 -104q117 104 282 104q166 0 276 -90t110 -180q0 -41 -37 -41zM219 232q0 -66 43 -106t116 -40t173 82v309q-180 -70 -256 -124
q-76 -55 -76 -121z" />
    <glyph glyph-name="cyrIecyrbreve" unicode="&#x4d6;" horiz-adv-x="1323" 
d="M113 0v47q96 -6 129 29q20 20 20 106v1051q0 87 -20 113t-97 26h-32v49h1028l102 -325l-43 -17q-104 180 -188 235t-202 59q-34 1 -130 1h-209v-624h107q178 0 239 45q43 31 69 93t29 122h35v-570h-35q-4 55 -29 120q-26 65 -69 95q-61 45 -239 45h-107v-499
q0 -94 32 -124t136 -30h125q168 0 258 53q55 33 123 117t110 166l39 -12l-75 -371h-1106zM1059 1759q0 -90 -97 -168q-98 -78 -274 -78t-273 78t-98 168q0 49 28 67t58 19q94 0 101 -139q4 -57 23 -88t59 -44t102 -13q126 0 158 52q22 36 26 93q6 139 101 139q31 -1 59 -19
t27 -67z" />
    <glyph glyph-name="cyriecyrbreve" unicode="&#x4d7;" horiz-adv-x="991" 
d="M618 662q70 0 70 61q0 67 -54 109t-139 42t-153 -57t-92 -155h368zM864 608h-622q-14 -100 -15 -151q-1 -150 99 -251t249 -102q105 0 189 58t125 155l39 -12q-45 -154 -162 -243q-118 -89 -276 -89t-287 120t-129 335t124 353t328 139q152 0 264 -88t111 -183
q0 -25 -7 -33t-30 -8zM645 1188q0 18 -10 46t-10 58t22 57q23 25 58 25t61 -24t25 -92q0 -68 -74 -140t-217 -72t-217 72t-74 140t25 92q26 24 61 24t57 -26t23 -66l-21 -98q0 -43 42 -68q42 -24 107 -24t103 26t39 70z" />
    <glyph glyph-name="cyrinvE" unicode="&#x4d8;" horiz-adv-x="1462" 
d="M545 377q-107 0 -107 -94t77 -166t214 -72q86 0 156 33q71 33 109 72t74 102t50 125h-573zM164 459h969q18 129 18 227q0 238 -152 394t-387 157q-168 0 -297 -87t-188 -243l-61 19q70 238 250 377q181 139 420 139t439 -171q97 -83 156 -224t59 -332t-78 -360
q-79 -169 -241 -274q-163 -105 -391 -105t-400 134q-172 136 -174 275q0 43 12 59t46 15z" />
    <glyph glyph-name="cyrinve" unicode="&#x4d9;" horiz-adv-x="991" 
d="M375 231q-70 0 -70 -61q0 -66 54 -109q53 -43 139 -43t154 58t91 155h-368zM129 285h623q14 100 14 151q0 150 -99 251t-249 101q-106 0 -190 -57t-124 -156l-38 13q46 154 162 242t275 90q159 0 288 -120t129 -335t-124 -353t-329 -139q-151 0 -263 88t-112 183
q0 25 7 33t30 8z" />
    <glyph glyph-name="cyrinvEdieresis" unicode="&#x4da;" horiz-adv-x="1462" 
d="M881 1747q35 0 67 -28q32 -29 31 -71q0 -42 -28 -72q-27 -30 -69 -30t-72 29t-30 73t33 72t68 27zM528 1747q35 0 68 -28q33 -27 33 -71t-30 -73t-72 -29q-41 0 -69 30t-28 73t32 71t66 27zM545 377q-107 0 -107 -94t77 -166t214 -72q86 0 156 33q71 33 109 72t74 102
t50 125h-573zM164 459h969q18 129 18 227q0 238 -152 394t-387 157q-168 0 -297 -87t-188 -243l-61 19q70 238 250 377q181 139 420 139t439 -171q97 -83 156 -224t59 -332t-78 -360q-79 -169 -241 -274q-163 -105 -391 -105t-400 134q-172 136 -174 275q0 43 12 59t46 15z
" />
    <glyph glyph-name="cyrinvedieresis" unicode="&#x4db;" horiz-adv-x="991" 
d="M672 1286q34 0 66 -28t32 -70t-28 -73q-28 -30 -70 -30t-71 29q-30 29 -30 73q0 43 33 71t68 28zM319 1286q35 0 68 -28t33 -72t-30 -72q-30 -29 -72 -29t-70 30t-27 73q-1 42 31 70t67 28zM375 231q-70 0 -70 -61q0 -66 54 -109q53 -43 139 -43t154 58t91 155h-368z
M129 285h623q14 100 14 151q0 150 -99 251t-249 101q-106 0 -190 -57t-124 -156l-38 13q46 154 162 242t275 90q159 0 288 -120t129 -335t-124 -353t-329 -139q-151 0 -263 88t-112 183q0 25 7 33t30 8z" />
    <glyph glyph-name="cyrZhedieresis" unicode="&#x4dc;" horiz-adv-x="2058" 
d="M1200 1747q35 0 67 -28q31 -29 31 -71t-28 -72t-69 -30q-42 0 -72 29q-29 29 -29 73t32 72t68 27zM848 1747q36 0 68 -28q32 -27 32 -71t-30 -73t-71 -29q-42 0 -70 30q-27 30 -27 73t32 71t66 27zM371 1280q-27 0 -68 -28q-84 -57 -149 -1q-31 27 -31 78t38 80t101 29
q148 0 223 -154q25 -50 56 -156l43 -167q13 -56 48 -99q68 -82 206 -84h84v473q0 47 -6 73q-9 46 -61 49q-15 1 -60 1h-41v47h540v-47h-41q-45 0 -60 -1t-35 -12t-26 -37q-5 -26 -6 -73v-473h84q136 0 197 74q45 55 57 109l43 167q44 163 112 236q67 74 167 74q63 0 101 -29
t38 -80t-31 -78q-62 -54 -147 -2q-43 31 -70 31q-68 0 -102 -145l-47 -191q-35 -139 -154 -186v-4q168 -28 270 -130t134 -378q12 -98 39 -136t71 -38q84 0 115 131l45 -13q-25 -96 -66 -145q-59 -72 -165 -72q-137 0 -211 129q-28 48 -41 105q-12 58 -23 114
q-40 225 -106 311q-66 85 -203 85h-107v-545q0 -37 1 -50t11 -36q18 -39 115 -39h39v-47h-536v47h39q97 0 114 39q10 23 12 36q1 13 1 50v545h-107q-137 0 -203 -85t-101 -280t-69 -250q-74 -129 -211 -129q-106 0 -165 72q-41 49 -66 145l45 13q31 -131 115 -131
q46 0 72 38t38 136q32 276 134 378t270 130v4q-119 47 -154 186l-47 191q-35 145 -102 145z" />
    <glyph glyph-name="cyrzhedieresis" unicode="&#x4dd;" horiz-adv-x="1388" 
d="M860 1286q35 0 67 -28q31 -28 31 -70t-28 -73q-28 -30 -69 -30t-71 29t-30 73q0 43 32 71t68 28zM508 1286q36 0 68 -28t32 -72t-30 -72q-30 -29 -71 -29q-42 0 -70 30q-27 30 -27 73q0 42 32 70t66 28zM791 442h-29v-276q0 -86 18 -107t94 -20v-39h-376v39q76 0 94 20
t18 107v276h-28q-74 0 -113 -37t-87 -173t-95 -190q-47 -52 -129 -52q-133 0 -166 157l37 9q1 -27 23 -59q22 -31 54 -31t56 45q8 16 22 61t27 78q45 125 127 172q59 35 137 45v4q-47 18 -72 53t-47 92l-34 91q-31 80 -72 79q-18 0 -46 -20t-63 -20t-55 25t-20 61t30 58
q31 22 79 22t88 -30q41 -30 59 -63t38 -86l41 -106q53 -139 170 -140h39v289q0 42 -22 62t-78 20h-10v37h372v-37h-10q-56 0 -78 -19t-22 -63v-289h39q117 0 170 140l41 106q20 53 39 86q18 33 58 63t88 30t79 -22t31 -58q-1 -36 -21 -62t-55 -25t-63 21t-46 20
q-41 0 -71 -79l-35 -91q-44 -117 -119 -145v-4q78 -10 137 -45q82 -47 127 -172q13 -33 27 -78t22 -61q23 -45 56 -45t54 32t23 58l37 -9q-33 -157 -163 -157q-83 0 -131 52t-96 190t-87 174t-112 36z" />
    <glyph glyph-name="cyrZedieresis" unicode="&#x4de;" horiz-adv-x="1214" 
d="M778 1747q35 0 67 -28q32 -29 32 -71t-28 -72t-70 -30q-41 0 -71 29t-30 73t32 72t68 27zM426 1747q35 0 68 -28q32 -27 32 -71t-30 -73t-71 -29q-42 0 -70 30q-27 30 -27 73t32 71t66 27zM866 389q0 316 -385 318h-119v59h117q94 0 175 38t132 106q52 68 52 203
q0 134 -75 208t-188 74q-297 0 -366 -400h-41v402h29q29 -41 52 -41t61 19q142 71 318 71t294 -94q116 -94 116 -261t-155 -264q-92 -57 -197 -69v-6q166 -6 285 -104t119 -267q0 -236 -220 -342q-130 -63 -300 -63t-289 40q-174 63 -175 193q0 41 27 72t64 31q72 -1 93 -42
q21 -40 41 -102q45 -139 216 -139q170 0 258 135q61 94 61 225z" />
    <glyph glyph-name="cyrzedieresis" unicode="&#x4df;" horiz-adv-x="878" 
d="M614 1286q35 0 67 -28t32 -70t-28 -73q-28 -30 -70 -30q-41 0 -71 29t-30 73q0 43 32 71t68 28zM262 1286q35 0 68 -28q32 -28 32 -72t-30 -72q-30 -29 -71 -29q-42 0 -70 30q-27 30 -27 73q0 42 32 70t66 28zM84 226q18 22 61 22t64 -46q6 -15 14 -46t13 -41
q32 -92 158 -92t184 75q41 55 40 140q0 115 -81 165q-47 31 -125 31h-101v49h95q94 0 145 72q39 51 39 135t-52 134t-128 50q-161 0 -224 -217l-12 -45h-43v232q161 76 313 76t232 -66t80 -162q0 -98 -58 -152t-145 -67v-4q92 -14 147 -57q90 -66 90 -184t-100 -184
q-102 -66 -262 -66q-239 -1 -332 118q-56 75 -12 130z" />
    <glyph glyph-name="cyrImacron" unicode="&#x4e2;" horiz-adv-x="1677" 
d="M580 1583v125h516v-125h-516zM1565 1421v-49h-19q-78 0 -104 -19t-27 -77v-1129q0 -53 26 -75t109 -23h17v-49h-529v47h39q47 0 61 1t37 12q22 11 26 37q5 26 5 75v991l-733 -989q-7 -68 16 -102q8 -12 34 -18t36 -7h82v-47h-528v49h16q84 0 110 23t25 75v1129
q0 57 -26 77q-27 19 -105 19h-18v49h526v-47h-41q-45 0 -60 -1q-16 -1 -36 -12t-26 -37t-5 -73v-966l733 983q0 42 -7 64q-11 37 -64 41q-12 1 -56 1h-41v47h527z" />
    <glyph glyph-name="cyrimacron" unicode="&#x4e3;" horiz-adv-x="1146" 
d="M315 1122v125h516v-125h-516zM791 786q0 72 -101 72h-10v37h377v-37h-13q-57 0 -78 -19t-22 -63v-610q0 -86 20 -107t93 -20v-39h-377v39q70 -6 94 24q16 16 17 95v524l-435 -543v-26q0 -29 22 -55t89 -19v-39h-377v39q74 0 93 20t20 107v610q0 42 -22 62t-79 20h-12v37
h377v-37h-10q-57 0 -79 -19t-22 -63v-559l435 545v24z" />
    <glyph glyph-name="cyrIdieresis" unicode="&#x4e4;" horiz-adv-x="1677" 
d="M1014 1747q34 0 66 -28q32 -29 32 -71t-28 -72t-70 -30t-71 29q-30 29 -30 73t33 72t68 27zM662 1747q36 0 68 -28q32 -27 32 -71t-30 -73t-72 -29t-69 30q-28 30 -28 73t32 71t67 27zM1565 1421v-49h-19q-78 0 -104 -19t-27 -77v-1129q0 -53 26 -75t109 -23h17v-49h-529
v47h39q47 0 61 1t37 12q22 11 26 37q5 26 5 75v991l-733 -989q-7 -68 16 -102q8 -12 34 -18t36 -7h82v-47h-528v49h16q84 0 110 23t25 75v1129q0 57 -26 77q-27 19 -105 19h-18v49h526v-47h-41q-45 0 -60 -1q-16 -1 -36 -12t-26 -37t-5 -73v-966l733 983q0 42 -7 64
q-11 37 -64 41q-12 1 -56 1h-41v47h527z" />
    <glyph glyph-name="cyridieresis" unicode="&#x4e5;" horiz-adv-x="1146" 
d="M750 1286q34 0 66 -28t32 -70t-28 -73q-28 -30 -70 -30t-71 29q-30 29 -30 73q0 43 33 71t68 28zM397 1286q35 0 68 -28t33 -72t-30 -72q-30 -29 -72 -29t-70 30t-27 73q-1 42 31 70t67 28zM791 786q0 72 -101 72h-10v37h377v-37h-13q-57 0 -78 -19t-22 -63v-610
q0 -86 20 -107t93 -20v-39h-377v39q70 -6 94 24q16 16 17 95v524l-435 -543v-26q0 -29 22 -55t89 -19v-39h-377v39q74 0 93 20t20 107v610q0 42 -22 62t-79 20h-12v37h377v-37h-10q-57 0 -79 -19t-22 -63v-559l435 545v24z" />
    <glyph glyph-name="cyrOdieresis" unicode="&#x4e6;" horiz-adv-x="1564" 
d="M305 706q0 -330 141 -506t338 -175q196 0 338 177t142 510t-140 511t-337 178q-198 0 -340 -182q-142 -183 -142 -513zM780 1446q304 0 502 -206q197 -206 197 -531q0 -326 -194 -530t-502 -204q-307 0 -501 213q-194 214 -194 530t194 522t498 206zM958 1747
q35 0 67 -28q32 -29 32 -71t-28 -72t-70 -30q-41 0 -71 29t-30 73t32 72t68 27zM606 1747q35 0 68 -28q33 -27 33 -71t-30 -73t-72 -29q-41 0 -69 30t-28 73t32 71t66 27z" />
    <glyph glyph-name="cyrodieresis" unicode="&#x4e7;" horiz-adv-x="983" 
d="M496 870q-104 0 -180 -98t-74 -324q0 -226 74 -325q75 -98 168 -98t168 81q40 44 65 132t24 211q0 213 -70 317q-71 104 -175 104zM72 450q0 212 115 341t305 129t306 -129t116 -339t-116 -343q-114 -133 -304 -133t-307 130q-115 132 -115 344zM668 1286q34 0 66 -28
t32 -70t-28 -73q-28 -30 -70 -30t-71 29q-30 29 -30 73q0 43 33 71t68 28zM315 1286q35 0 68 -28t33 -72t-30 -72q-30 -29 -72 -29t-70 30t-27 73q-1 42 31 70t67 28z" />
    <glyph glyph-name="cyrObar" unicode="&#x4e8;" horiz-adv-x="1564" 
d="M305 743h959q-2 303 -140 481t-336 177q-199 1 -341 -181t-142 -477zM1264 688h-959q-4 -280 131 -472t339 -192q203 0 345 176q142 175 144 488zM780 1446q304 0 502 -206q197 -206 197 -531q0 -326 -194 -530t-502 -204q-307 0 -501 213q-194 214 -194 530t194 522
t498 206z" />
    <glyph glyph-name="cyrobar" unicode="&#x4e9;" horiz-adv-x="983" 
d="M741 424l-499 -2q-2 -182 70 -290t180 -108q109 0 179 108t70 292zM242 481h499q0 180 -70 285q-71 104 -179 104t-180 -105q-70 -106 -70 -284zM72 450q0 212 115 341t305 129t306 -129t116 -339t-116 -343q-114 -133 -304 -133t-307 130q-115 132 -115 344z" />
    <glyph glyph-name="cyrObardieresis" unicode="&#x4ea;" horiz-adv-x="1564" 
d="M958 1747q35 0 67 -28q32 -29 32 -71t-28 -72t-70 -30q-41 0 -71 29t-30 73t32 72t68 27zM606 1747q35 0 68 -28q33 -27 33 -71t-30 -73t-72 -29q-41 0 -69 30t-28 73t32 71t66 27zM305 743h959q-2 303 -140 481t-336 177q-199 1 -341 -181t-142 -477zM1264 688h-959
q-4 -280 131 -472t339 -192q203 0 345 176q142 175 144 488zM780 1446q304 0 502 -206q197 -206 197 -531q0 -326 -194 -530t-502 -204q-307 0 -501 213q-194 214 -194 530t194 522t498 206z" />
    <glyph glyph-name="cyrobardieresis" unicode="&#x4eb;" horiz-adv-x="983" 
d="M668 1286q34 0 66 -28t32 -70t-28 -73q-28 -30 -70 -30t-71 29q-30 29 -30 73q0 43 33 71t68 28zM315 1286q35 0 68 -28t33 -72t-30 -72q-30 -29 -72 -29t-70 30t-27 73q-1 42 31 70t67 28zM741 424l-499 -2q-2 -182 70 -290t180 -108q109 0 179 108t70 292zM242 481h499
q0 180 -70 285q-71 104 -179 104t-180 -105q-70 -106 -70 -284zM72 450q0 212 115 341t305 129t306 -129t116 -339t-116 -343q-114 -133 -304 -133t-307 130q-115 132 -115 344z" />
    <glyph glyph-name="cyrUmacron" unicode="&#x4ee;" horiz-adv-x="1462" 
d="M541 1583v125h516v-125h-516zM1462 1421v-49q-74 8 -133 -26t-104 -136l-303 -688q-154 -348 -238 -442q-98 -104 -229 -105q-88 0 -138 43q-49 42 -49 92t29 85t74 34q70 0 125 -82q42 -59 78 -59t76 50t61 91l41 86l-547 959q-57 104 -148 98v49h518v-49
q-93 0 -117 -18t-24 -42t19 -55l405 -718l281 641q27 57 27 108t-48 72q-29 12 -110 12v49h454z" />
    <glyph glyph-name="cyrumacron" unicode="&#x4ef;" horiz-adv-x="927" 
d="M-25 858v37h437v-37l-50 -4q-94 -6 -96 -53q0 -12 17 -45l286 -539l172 514q11 27 11 61q1 61 -73 66q-28 2 -75 0v37h346v-37q-81 0 -106 -38t-43 -87l-336 -950q-11 -45 -20 -62q-9 -15 -17 -39t-13 -31t-16 -26t-30 -36t-45 -24t-57 -7t-53 28t-22 64q0 37 27 57
t57 21l70 -11q23 1 39 13t19 20t12 27l86 246l-396 725q-18 35 -30 53q-12 17 -39 37t-62 20zM254 1122v125h516v-125h-516z" />
    <glyph glyph-name="cyrUdieresis" unicode="&#x4f0;" horiz-adv-x="1462" 
d="M975 1747q35 0 67 -28q32 -29 31 -71q1 -42 -27 -72t-70 -30t-72 29t-30 73t33 72t68 27zM623 1747q35 0 67 -28q32 -27 33 -71q0 -44 -30 -73q-29 -29 -71 -29t-70 30t-28 73t32 71t67 27zM1462 1421v-49q-74 8 -133 -26t-104 -136l-303 -688q-154 -348 -238 -442
q-98 -104 -229 -105q-88 0 -138 43q-49 42 -49 92t29 85t74 34q70 0 125 -82q42 -59 78 -59t76 50t61 91l41 86l-547 959q-57 104 -148 98v49h518v-49q-93 0 -117 -18t-24 -42t19 -55l405 -718l281 641q27 57 27 108t-48 72q-29 12 -110 12v49h454z" />
    <glyph glyph-name="cyrudieresis" unicode="&#x4f1;" horiz-adv-x="927" 
d="M-25 858v37h437v-37l-50 -4q-94 -6 -96 -53q0 -12 17 -45l286 -539l172 514q11 27 11 61q1 61 -73 66q-28 2 -75 0v37h346v-37q-81 0 -106 -38t-43 -87l-336 -950q-11 -45 -20 -62q-9 -15 -17 -39t-13 -31t-16 -26t-30 -36t-45 -24t-57 -7t-53 28t-22 64q0 37 27 57
t57 21l70 -11q23 1 39 13t19 20t12 27l86 246l-396 725q-18 35 -30 53q-12 17 -39 37t-62 20zM688 1286q35 0 67 -28q31 -28 31 -70t-28 -73q-28 -30 -69 -30q-42 0 -72 29q-29 29 -29 73q0 43 32 71t68 28zM336 1286q36 0 68 -28t32 -72t-30 -72q-30 -29 -71 -29
q-42 0 -70 30q-27 30 -27 73q0 42 32 70t66 28z" />
    <glyph glyph-name="cyrUdblacute" unicode="&#x4f2;" horiz-adv-x="1462" 
d="M881 1491l143 281q41 80 92 79q27 0 47 -19q52 -49 -20 -124l-203 -217h-59zM909 1784q0 -29 -41 -76l-204 -217h-58l144 281q41 80 92 79q27 0 47 -19t20 -48zM1462 1421v-49q-74 8 -133 -26t-104 -136l-303 -688q-154 -348 -238 -442q-98 -104 -229 -105q-88 0 -138 43
q-49 42 -49 92t29 85t74 34q70 0 125 -82q42 -59 78 -59t76 50t61 91l41 86l-547 959q-57 104 -148 98v49h518v-49q-93 0 -117 -18t-24 -42t19 -55l405 -718l281 641q27 57 27 108t-48 72q-29 12 -110 12v49h454z" />
    <glyph glyph-name="cyrudblacute" unicode="&#x4f3;" horiz-adv-x="927" 
d="M-25 858v37h437v-37l-50 -4q-94 -6 -96 -53q0 -12 17 -45l286 -539l172 514q11 27 11 61q1 61 -73 66q-28 2 -75 0v37h346v-37q-81 0 -106 -38t-43 -87l-336 -950q-11 -45 -20 -62q-9 -15 -17 -39t-13 -31t-16 -26t-30 -36t-45 -24t-57 -7t-53 28t-22 64q0 37 27 57
t57 21l70 -11q23 1 39 13t19 20t12 27l86 246l-396 725q-18 35 -30 53q-12 17 -39 37t-62 20zM829 1391q27 1 47 -19t21 -51q0 -31 -41 -74l-203 -217h-59l143 281q41 80 92 80zM555 1391q27 1 47 -19q48 -47 -20 -125l-205 -217h-58l144 281q41 80 92 80z" />
    <glyph glyph-name="cyrChedieresis" unicode="&#x4f4;" horiz-adv-x="1406" 
d="M815 1747q35 0 67 -28q32 -29 32 -71t-28 -72t-70 -30t-72 29t-30 73t34 72q32 28 67 27zM463 1747q35 0 67 -28q32 -27 33 -71t-29 -73t-72 -29t-70 30t-28 73t32 71t67 27zM150 1276q0 56 -27 76t-105 20h-18v49h526v-47h-41q-45 0 -60 -1t-35 -12t-26 -37
q-5 -26 -6 -73v-333q0 -120 68 -176t166 -56q150 0 344 90v475q0 47 -5 73t-25 37t-36 12t-61 1h-41v47h526v-49h-18q-78 0 -105 -19t-26 -77v-1086q1 -96 25 -118t110 -23h14v-49h-538v47q108 -9 144 23t36 102v541q-242 -94 -389 -95q-399 0 -397 351v307z" />
    <glyph glyph-name="cyrchedieresis" unicode="&#x4f5;" horiz-adv-x="1007" 
d="M647 1286q35 0 67 -28t32 -70t-28 -73q-28 -30 -70 -30t-72 29t-29 73q1 43 33 71t67 28zM295 1286q35 0 67 -28t33 -72t-29 -72q-30 -29 -72 -29t-70 30t-28 73q0 42 32 70t67 28zM279 553q0 -143 167 -141q96 0 205 39v325q1 42 -21 62t-79 20h-10v37h377v-37h-13
q-57 0 -79 -19t-21 -63v-586q1 -100 25 -126t88 -25v-39h-400v39q88 0 111 21t22 98v239q-151 -47 -275 -47q-250 0 -251 234v192q0 42 -22 62t-78 20h-13v37h377v-37h-10q-57 0 -79 -19t-21 -63v-223z" />
    <glyph glyph-name="cyrYerudieresis" unicode="&#x4f8;" horiz-adv-x="1890" 
d="M1120 1747q35 0 67 -28q32 -29 32 -71t-28 -72t-70 -30q-41 0 -71 29t-30 73t32 72t68 27zM768 1747q35 0 68 -28q32 -27 32 -71t-30 -73t-71 -29q-42 0 -70 30q-27 30 -27 73t32 71t66 27zM578 727q-68 0 -105 -4v-537q0 -104 65 -127q34 -12 85 -12h57q141 0 227 117
q57 78 58 211q0 352 -387 352zM1778 1421v-47h-41q-45 0 -61 -1t-36 -12t-25 -37t-5 -73v-1079q0 -82 18 -104t115 -21h35v-47h-547v47h29q102 0 122 30q17 23 17 63v1130q0 33 -2 47q-6 44 -52 52q-28 5 -75 5h-39v47h547zM614 780q572 0 574 -387q0 -158 -109 -262
q-61 -59 -165 -95t-212 -36h-587v49h12q85 0 111 22t26 128v1077q0 57 -26 77q-27 19 -105 19h-18v49h526v-47l-80 -2q-88 -2 -88 -112v-486q82 6 141 6z" />
    </font>
</defs>
</svg>
